<svg xmlns="http://www.w3.org/2000/svg" xmlns:xlink="http://www.w3.org/1999/xlink" width="1920" height="1150" viewBox="0 0 1920 1150"><defs><style>.cls-1{isolation:isolate;}.cls-2{fill:#1e2034;}.cls-3{fill:url(#linear-gradient);}.cls-4{fill:#1763b1;mix-blend-mode:soft-light;}</style><linearGradient id="linear-gradient" x1="947.5" y1="-419.014" x2="947.5" y2="2929.2027" gradientUnits="userSpaceOnUse"><stop offset="0.2073" stop-color="#c3e9f9"/><stop offset="0.3406" stop-color="#d3ebf7"/><stop offset="0.5849" stop-color="#ebeff4"/><stop offset="0.8111" stop-color="#faf1f3"/><stop offset="1" stop-color="#fff2f2"/></linearGradient></defs><title>sect3</title><g class="cls-1"><g id="Layer_1" data-name="Layer 1"><path class="cls-2" d="M1926.4246-1412.5213s-16.8637-19.93-17.3748-6.1322l-7.1542-6.1323s11.2424-12.2645,12.2645-24.0185-24.0181,11.754-24.0181,11.754-5.6212-14.82-9.1984,0c0,0-11.2424,1.533-12.2645,11.7532,0,0-27.5952-28.6169-8.6874,8.6872,0,0-4.5992,7.6653-14.3086-7.6654s-32.1944-35.2605-26.0621-10.7314c0,0-8.1763-13.7976-17.8858-18.3968s-3.0661,18.908-3.0661,18.908-25.551-25.5508-11.7534,9.71c0,0-18.3968-16.3532-26.5732-14.82s29.6393,28.1064,29.6393,28.1064a29.0412,29.0412,0,0,0-20.952-2.5548s-15.8416-20.4412-17.3746-8.1766c0,0-6.1323-7.1541-15.3307-4.088,0,0-38.8377-33.2169-12.2645,7.6654,0,0-31.6835-20.4412-19.93,11.7532,0,0-23.507-12.7758-29.1282-6.6435s30.6613,19.4193,30.6613,19.4193l5.11,12.2645s-39.86-13.7975-56.7234-2.5556,0,18.9081,0,18.9081-43.9479,5.1105-14.82,47.0138c0,0-24.018-12.7751-25.551-.5106s21.4629,24.5291,21.4629,24.5291-16.3528-6.1323-29.6394-1.5331-4.5992,17.8855-4.5992,17.8855-18.9078-6.6435-21.974,9.1984c0,0-18.3967-5.621-21.9738,9.1984,0,0-10.22-24.529-31.1724-19.93,0,0,7.6654-24.0178-1.022-35.2605s-17.8858,28.6169-17.8858,28.6169-4.5992-65.41-18.9077-77.1638S1494.1-1296.52,1494.1-1296.52s-26.5732-44.97-42.9258-43.4371c-10.9628,1.0278-1.0261,19.9688,6.7154,32.3441-7.123-9.0389-19.2678-20.59-34.8217-20.59-25.551,0,11.7535,40.8815,11.7535,40.8815s-21.4629-22.9959-33.2164-6.1322c0,0-4.0881-13.2863-24.529-13.7976,0,0,22.9959-5.1105,29.1282-13.7976s-34.7494-4.5992-34.7494-4.5992,25.04-28.1065,28.6171-42.9258-51.6131,49.5693-51.6131,49.5693,3.577-7.6653-5.6214-8.1766c0,0,29.1283-33.7274,31.1724-59.2783s-51.1022,52.6348-51.1022,52.6348,40.3708-72.0541,38.8377-100.16-31.1724,52.1242-32.7055,53.146,1.0222-18.3968-10.22-17.8855-34.75,54.1678-34.75,54.1678-.511-15.8411-15.3306-7.154c0,0,8.1762-51.613-15.8418-44.97,0,0-5.11-66.9436-65.9218,39.86,0,0,13.2865-59.2783-15.8417-3.0661,0,0-15.8416-37.3041-43.9478,11.2427,0,0,22.9959-70.521,20.4409-87.896s-45.992,91.9839-45.992,91.9839,4.5992-15.3306,0-29.1282-20.952,33.2169-20.952,33.2169,3.5772-17.63-17.1192-38.3266-3.8326,32.9609-3.8326,32.9609-7.6654-17.63-17.63-23.7625-5.3657,22.996-5.3657,22.996-6.8988-16.0972-23.7625-22.2295-28.3617,13.0311-28.3617,13.0311-2.3-13.7976-12.2646-7.6654-14.5641,9.965-22.2294,3.0662-16.0972-2.3-19.1633,3.0661c0,0-8.4319-21.4629-26.0622-6.1323,0,0-58.2564-36.027-32.9609-9.9649,0,0-42.1593-21.4629-59.023,24.5291,0,0-1.5331-9.1984-23.7625-23.7626s3.8327,35.26,3.8327,35.26a474.071,474.071,0,0,0-38.3267-32.1943c-21.4629-16.0972,3.8327,32.9609,3.8327,32.9609a124.8239,124.8239,0,0,0-18.3968-22.23c-10.7315-9.9649-10.7315,20.6964-10.7315,20.6964s-6.1322-35.2605-16.8637-58.2565-5.3657,61.3226-5.3657,61.3226-3.8327-36.7935-27.5952-55.19S666.5-1361.1636,666.5-1361.1636s-3.8326-12.2645-26.8286-30.6613-12.2645,20.6964-12.2645,20.6964-11.498-6.8988-29.8948-21.4629-6.1323,13.7976-6.1323,13.7976-3.8326,3.8326-37.56-15.3307-24.529,17.63-24.529,17.63-12.2646-23.7625-39.0932-35.26c-21.295-9.1266-18.4434,20.861-16.3611,33.6219-2.0716-8.1961-8.1037-23.4571-25.0317-30.5558-23.7625-9.9649-19.1633,24.529-19.1633,24.529s-17.63,5.3658-42.1593-16.0971,19.1633,29.1282,19.1633,29.1282-18.3968-11.498-53.6573-25.2956,3.8327,29.8948,3.8327,29.8948-36.7936-27.5952-38.3267-55.9569-11.498,13.0311,6.8988,44.4589c0,0-2.3.7665-29.8947-13.7976-20.15-10.6349-14.96,4.4772-10.6931,13.4069a84.6825,84.6825,0,0,0-15.3691-2.6754c-29.1282-3.0662-23.7625,13.031-44.4589,2.3s-23.7625-13.7976-42.9258-12.2646-15.3307-6.1322-45.2254.7666-8.4319-13.0311-40.6263-.7666-12.2645,24.5291-48.2915,1.5331-3.0662-17.63-52.1243-13.031c-6.8317.64-12.3522,1.2808-16.8637,1.8714V1632H1941V-1434.3656A173.2478,173.2478,0,0,0,1926.4246-1412.5213Z"/><path class="cls-3" d="M1950-396.8435C1661.278-544.7666,1532.4245,101.2092,1173.8457-40.335,935.752-134.3194,939.039-52.9565,553.5488,172.6962,282.13,331.5757,55.4125,309.4982-55,282.52V2929.2027H1950Z"/><rect class="cls-4" x="-42" y="-26" width="2025" height="1198"/></g></g></svg>