<?xml version="1.0" encoding="utf-8"?>
<!-- Generator: Adobe Illustrator 22.1.0, SVG Export Plug-In . SVG Version: 6.00 Build 0)  -->
<svg version="1.1" id="Layer_1" xmlns="http://www.w3.org/2000/svg" xmlns:xlink="http://www.w3.org/1999/xlink" x="0px" y="0px"
	 viewBox="0 0 1920 1150" style="enable-background:new 0 0 1920 1150;" xml:space="preserve">
<style type="text/css">
	.st0{fill:#081A4D;}
	.st1{display:none;fill:#1763B1;}
</style>
<path class="st0" d="M1905.4,41.5c0,0-16.9-19.9-17.4-6.1l-7.2-6.1c0,0,11.2-12.3,12.3-24c1-11.8-24,11.8-24,11.8s-5.6-14.8-9.2,0
	c0,0-11.2,1.5-12.3,11.8c0,0-27.6-28.6-8.7,8.7c0,0-4.6,7.7-14.3-7.7c-9.7-15.3-32.2-35.3-26.1-10.7c0,0-8.2-13.8-17.9-18.4
	s-3.1,18.9-3.1,18.9s-25.6-25.6-11.8,9.7c0,0-18.4-16.4-26.6-14.8c-8.2,1.5,29.6,28.1,29.6,28.1s-9.2-5.6-21-2.6
	c0,0-15.8-20.4-17.4-8.2c0,0-6.1-7.2-15.3-4.1c0,0-38.8-33.2-12.3,7.7c0,0-31.7-20.4-19.9,11.8c0,0-23.5-12.8-29.1-6.6
	c-5.6,6.1,30.7,19.4,30.7,19.4l5.1,12.3c0,0-39.9-13.8-56.7-2.6c-16.9,11.2,0,18.9,0,18.9s-43.9,5.1-14.8,47c0,0-24-12.8-25.6-0.5
	c-1.5,12.3,21.5,24.5,21.5,24.5s-16.4-6.1-29.6-1.5s-4.6,17.9-4.6,17.9s-18.9-6.6-22,9.2c0,0-18.4-5.6-22,9.2
	c0,0-10.2-24.5-31.2-19.9c0,0,7.7-24-1-35.3c-8.7-11.2-17.9,28.6-17.9,28.6s-4.6-65.4-18.9-77.2c-14.3-11.8,6.1,66.9,6.1,66.9
	s-26.6-45-42.9-43.4c-11,1-1,20,6.7,32.3c-7.1-9-19.3-20.6-34.8-20.6c-25.6,0,11.8,40.9,11.8,40.9s-21.5-23-33.2-6.1
	c0,0-4.1-13.3-24.5-13.8c0,0,23-5.1,29.1-13.8c6.1-8.7-34.7-4.6-34.7-4.6s25-28.1,28.6-42.9c3.6-14.8-51.6,49.6-51.6,49.6
	s3.6-7.7-5.6-8.2c0,0,29.1-33.7,31.2-59.3c2-25.6-51.1,52.6-51.1,52.6s40.4-72.1,38.8-100.2c-1.5-28.1-31.2,52.1-32.7,53.1
	s1-18.4-10.2-17.9c-11.2,0.5-34.7,54.2-34.7,54.2s-0.5-15.8-15.3-7.2c0,0,8.2-51.6-15.8-45c0,0-5.1-66.9-65.9,39.9
	c0,0,13.3-59.3-15.8-3.1c0,0-15.8-37.3-43.9,11.2c0,0,23-70.5,20.4-87.9c-2.6-17.4-46,92-46,92s4.6-15.3,0-29.1
	c-4.6-13.8-21,33.2-21,33.2s3.6-17.6-17.1-38.3c-20.7-20.7-3.8,33-3.8,33s-7.7-17.6-17.6-23.8c-10-6.1-5.4,23-5.4,23
	s-6.9-16.1-23.8-22.2s-28.4,13-28.4,13s-2.3-13.8-12.3-7.7s-14.6,10-22.2,3.1c-7.7-6.9-16.1-2.3-19.2,3.1c0,0-8.4-21.5-26.1-6.1
	c0,0-58.3-36-33-10c0,0-42.2-21.5-59,24.5c0,0-1.5-9.2-23.8-23.8s3.8,35.3,3.8,35.3s-16.9-16.1-38.3-32.2c-21.5-16.1,3.8,33,3.8,33
	s-7.7-12.3-18.4-22.2s-10.7,20.7-10.7,20.7s-6.1-35.3-16.9-58.3c-10.7-23-5.4,61.3-5.4,61.3s-3.8-36.8-27.6-55.2s-13,29.1-13,29.1
	s-3.8-12.3-26.8-30.7c-23-18.4-12.3,20.7-12.3,20.7s-11.5-6.9-29.9-21.5s-6.1,13.8-6.1,13.8s-3.8,3.8-37.6-15.3
	s-24.5,17.6-24.5,17.6S496,53.7,469.2,42.2c-21.3-9.1-18.4,20.9-16.4,33.6c-2.1-8.2-8.1-23.5-25-30.6c-23.8-10-19.2,24.5-19.2,24.5
	s-17.6,5.4-42.2-16.1c-24.5-21.5,19.2,29.1,19.2,29.1S367.2,71.4,332,57.6s3.8,29.9,3.8,29.9s-36.8-27.6-38.3-56
	C296,3.2,286,44.5,304.4,76c0,0-2.3,0.8-29.9-13.8c-20.1-10.6-15,4.5-10.7,13.4c-3.1-1-7.9-1.9-15.4-2.7c-29.1-3.1-23.8,13-44.5,2.3
	s-23.8-13.8-42.9-12.3c-19.2,1.5-15.3-6.1-45.2,0.8s-8.4-13-40.6-0.8s-12.3,24.5-48.3,1.5s-3.1-17.6-52.1-13
	c-6.8,0.6-12.4,1.3-16.9,1.9V3086H1920V19.6C1912.3,29.1,1905.4,41.5,1905.4,41.5z"/>
<rect x="-453" y="-26" class="st1" width="2560" height="16002"/>
</svg>
