<svg id="Layer_1" data-name="Layer 1" xmlns="http://www.w3.org/2000/svg" viewBox="0 0 2085.5 1500.03"><defs><style>.cls-1{fill:#f2f2f2;}.cls-2{fill:#e6e6e6;}.cls-3{fill:#dbdbdb;}.cls-4{fill:#00a5c3;}.cls-5{fill:#0b8fb3;}.cls-6{fill:#1e2034;}.cls-7{fill:#b3b3b3;}</style></defs><title>slide-bg</title><path class="cls-1" d="M1059,166C778.36,79.26,870.21,365,604.87,181.32,345.63,1.85,237.38,70.77-5.39,159.69V1512h1936.6V106.56C1456.93-167.88,1333.78,250.93,1059,166Z" transform="translate(92.31 -12)"/><path class="cls-2" d="M-5.39,720.31S240.47,552.83,437.16,542.77,714.26,883.71,854.1,720.31s197.32-94,297.17,12.1,172.48,42.37,287.47-48.41,270.82-304.93,492.47,48.41V1512H-5.39Z" transform="translate(92.31 -12)"/><path class="cls-3" d="M-5.39,1120.12S237.45,819.73,479.52,971.77s296.53,103.63,414.55,40.08,148.27-51.44,335.88,93.8,449.35-281.41,701.26-30.25V1512H-5.39Z" transform="translate(92.31 -12)"/><path class="cls-4" d="M256.2,1453.22s-62-121-74.14-252.67-19.67-157.34,16.65-160.37,56,27.23,102.88,130.12,93.8,243.58,75.65,282.92Z" transform="translate(92.31 -12)"/><path class="cls-4" d="M307.64,1472.51s28.75-113.47,86.24-198.2,98.34-101.37,105.91-43.88-13.62,161.89-43.88,242.08Z" transform="translate(92.31 -12)"/><path class="cls-5" d="M198.71,1040.18a40.61,40.61,0,0,0-12.28,2.63c13.29,37,41.48,111.19,66.74,198.49,25.33,87.51,58.74,170,76.65,211.92h47.42c18.15-39.34-28.75-180-75.65-282.92S235,1037.15,198.71,1040.18Z" transform="translate(92.31 -12)"/><path class="cls-5" d="M393.88,1274.31c-57.49,84.73-86.24,198.2-86.24,198.2h76.15c9.09-27.16,24.36-70.53,47.91-131.25,25.73-66.32,34.81-114.83,37.92-143.62C450.91,1202.87,424.81,1228.73,393.88,1274.31Z" transform="translate(92.31 -12)"/><path class="cls-4" d="M1623.63,1375.82c5.62-12.1-26.16-263.25,28.31-292s113.47,130.12,116.5,292Z" transform="translate(92.31 -12)"/><path class="cls-4" d="M1747.26,1400.22s-138.61-147.7-171-269.31c-18.22-68.48-62-152.81-74.13-57.49s3,201.22,66.57,326.8Z" transform="translate(92.31 -12)"/><path class="cls-4" d="M1747.26,1407.35s34.8-92.29,84.72-262.5,118-214.09,142.22-168.7,40.85,243.59-51.44,431.2Z" transform="translate(92.31 -12)"/><path class="cls-5" d="M1651.39,1400.22c-26.12-38.63-70.56-109.8-90.23-173.36-19.29-62.37-37.22-144.91-46.93-192.44-5.16,5.62-9.39,17.91-12.07,39-12.11,95.31,3,201.22,66.57,326.8Z" transform="translate(92.31 -12)"/><path class="cls-5" d="M1701.32,1375.82c-5.91-55.62-23.32-215.26-36.81-295.38a28,28,0,0,0-12.57,3.38c-54.47,28.75-22.69,279.9-28.31,292Z" transform="translate(92.31 -12)"/><path class="cls-5" d="M1747.26,1407.35h94.06c20.77-59.73,102.49-302.22,112.1-447.68-31.54-4.56-82.12,51.13-121.44,185.18C1782.06,1315.06,1747.26,1407.35,1747.26,1407.35Z" transform="translate(92.31 -12)"/><path class="cls-4" d="M1383.79,1457.18s12.1-154.33,142.21-219.38-40.85,219.38-40.85,219.38Z" transform="translate(92.31 -12)"/><path class="cls-5" d="M1526,1237.8c-130.11,65-142.21,219.38-142.21,219.38h50.26c17.62-47.3,66.84-167.91,130.48-227.78C1556.84,1226.38,1544.45,1228.57,1526,1237.8Z" transform="translate(92.31 -12)"/><path class="cls-6" d="M1543.4,1412.1v-125c0-52,22.7-77,22.7-77h-8.32s-20.43,20.78-25,77-12.86,125-12.86,125Z" transform="translate(92.31 -12)"/><path class="cls-6" d="M1512.39,1411.57l-18.16-110.45s4.39,78.49,2.2,91.06-20.35-29.78-29.43-81.6-8.43-72.37-8.43-72.37h-9s9,55.35,0,72.37-38.53-24-38.53-24h-7.57s12.11,18.35,36.32,44.07,45.38,81,45.38,81Z" transform="translate(92.31 -12)"/><path class="cls-6" d="M1874.44,1335.29s5.37-12.86-20-24.21-17.81-58.25-86.65-98.34c0,0,31.77,18.15,33.28,0s-14.37-71.11-14.37-71.11,8.87-1.12,8.87,0,49.38,148.27,63.75,148.27-21.94-94.56-21.94-94.56h7.57s17.4,40.09,26.48,77.16,35.55,62.79,35.55,62.79Z" transform="translate(92.31 -12)"/><path class="cls-6" d="M1907,1361.27s-19.67-102.12-26.48-151.3,13.24-81.69,13.24-81.69h6.43s-15.13,15.63-11.35,59.63,23.46,128.73,23.46,128.73,18.91-40.09,12.1-90,1.48-72.62,1.48-72.62H1935s-8.08,31.84,0,74.89,0,132.38,0,132.38Z" transform="translate(92.31 -12)"/><path class="cls-5" d="M86,1324.33s22.7-67-18.91-123.76S14.89,1104.49-1,1145.34s-12.1,220.14,5.29,242.08S68.6,1368.66,86,1324.33Z" transform="translate(92.31 -12)"/><path class="cls-4" d="M26.23,1281.51c-12.9-70.63-18.56-118.7-14.62-153-4.3.45-8.26,5.61-12.61,16.8-15.89,40.85-12.1,220.14,5.29,242.08a16.55,16.55,0,0,0,3.32,3.18C19.36,1372.05,36,1334.75,26.23,1281.51Z" transform="translate(92.31 -12)"/><path class="cls-5" d="M59.89,1480.45s144.58-82.53,159.28-234.93-47.32-147.84-98.76-27.57-212.72,262.5-212.72,262.5Z" transform="translate(92.31 -12)"/><path class="cls-4" d="M120.41,1218C69,1338.23-92.31,1480.45-92.31,1480.45h90C171,1349,190.71,1175.92,192.82,1129.33,172.84,1128.46,145.38,1159.57,120.41,1218Z" transform="translate(92.31 -12)"/><path class="cls-6" d="M92,1467.57s-10.59-42.36-28.74-75.65a202.12,202.12,0,0,1-21.94-65.81l8.32,3.52S78.43,1412.35,92,1423.7s-17.4-90-25.34-122.55-15.51-55.23-15.51-55.23h8.32s28.75,79.43,49.93,80.19,13.62-45.39,13.62-45.39l7.56,3s1.52,25-8.32,62.78,6.22,99.1,8.41,92.3,71.11-154.41,53.29-206.19c0,0,8.75,10.82,10.17,37.49s-51.44,162.64-60.52,197.44Z" transform="translate(92.31 -12)"/><path class="cls-6" d="M157.86,1449.4s37.06-58.78,58.24-98.61,17.4-24.69,14.38-11.83-65.82,111.2-39.34,101.37,106.66-166.5,106.66-166.5,4.54,6.12-6.05,31.09-35.55,75.64-4.54,63.54,41.61-25,41.61-25-3,19.71-44.63,40.14-76.41,65.81-76.41,65.81Z" transform="translate(92.31 -12)"/><path class="cls-7" d="M-5.39,1478.37s219.49-66.8,391.11-29.48c86.78,18.87,151.8,33.93,214.3-16.07s132.16-48.22,262.52,0,328.6,83.93,478.61,32.14,415.76-225,590.06-121.44V1512H-5.39Z" transform="translate(92.31 -12)"/></svg>