<?xml version="1.0" encoding="utf-8"?>
<!-- Generator: Adobe Illustrator 22.1.0, SVG Export Plug-In . SVG Version: 6.00 Build 0)  -->
<svg version="1.1" id="Layer_1" xmlns="http://www.w3.org/2000/svg" xmlns:xlink="http://www.w3.org/1999/xlink" x="0px" y="0px"
	 viewBox="0 0 1000 1000" style="enable-background:new 0 0 1000 1000;" xml:space="preserve">
    
    <script>document.documentElement.addEventListener('load',function(){
    // This code runs once the 'onload' event fires on the root SVG element
    console.log( document.getElementById('foo') );
  },false)</script>
  <path id="foo" d="M0 0" />
    
    <script xlink:href="http://ajax.googleapis.com/ajax/libs/jquery/1.11.2/jquery.min.js"></script>
<script>
    
  // <![CDATA[

   $(document).ready(function(){
  $("#x").click(function(){
    $("#x").addClass("dnone");
  });
});

// ]]>
    </script>
    
    
<style type="text/css">
#x:hover, y:hover, .st4:hover, .st8:hover {
    cursor: pointer;
    fill: #278cf2;
}
    path:hover, line:hover {
    stroke : #278cf2;
    cursor: pointer;
    }
    .dnone {
    display: none;
    }
    #x {display: block;}
	.st0{fill:none;stroke:#FFFFFF;stroke-miterlimit:10;}
	.st1{fill:none;stroke:#999999;stroke-width:2;stroke-miterlimit:10;stroke-dasharray:5,8;}
	.st2{fill:none;stroke:#999999;stroke-width:3;stroke-miterlimit:10;stroke-dasharray:8,8;}
	.st3{fill:#EC2227;}
	.st4{fill:#FFFFFF;stroke:#999999;stroke-miterlimit:10;}
	.st5{fill:#808080;}
	.st6{font-family:'MyriadPro-Semibold';}
	.st7{font-size:12.4045px;}
	.st8{fill:#FCFCFC;}
	.st9{fill:#666666;}
	.st10{fill:#FFFFFF;}
</style>
<g id="line-x" class="line-x">
	<path class="st0" d="M375.9,499.7c0,0-22.3-94.7,97.1-169.3s96.2-136.5,96.2-136.5"/>
	<path class="st0" d="M375.9,499.7c0,0,216.4,144.6,420.2,104.4"/>
	<path class="st0" d="M375.9,499.7c0,0,83.1,126.3,172.1,146.3s111,3.1,201,51"/>
	<path class="st0" d="M375.9,499.7c0,0,101.9,173,53,314.2"/>
	<path class="st0" d="M375.9,499.7c0,0,40.1,162.2-44.4,268.7"/>
	<path class="st0" d="M375.9,499.7c0,0-123.7,126.4-122.3,197.3"/>
	<line class="st0" x1="374.3" y1="496.3" x2="203.8" y2="604.1"/>
	<line class="st0" x1="375.9" y1="499.7" x2="186.1" y2="500"/>
	<line class="st0" x1="375.9" y1="497" x2="196.9" y2="402.5"/>
	<path class="st0" d="M375.9,499.7c0,0-122.8-118.8-128.3-186.2"/>
	<path class="st0" d="M375.9,499.7c0,0-76.1-161.2-44.5-264.5"/>
	<path class="st0" d="M374.7,497c0,0-33.7-97.5,7.3-150.3S433.9,201,428.9,195"/>
</g>
<g id="line-y">
	<path class="st0" d="M628,499.6c0,0-56.1-60.6-58.8-146.6s13.9-94.5,0.4-158"/>
	<path class="st0" d="M625.5,499.6c0,0-30.6-151.5,42.8-264.4"/>
	<path class="st0" d="M625.5,499.6c0,0,33.4-101,127.4-185.4"/>
	<path class="st0" d="M625.5,499.6c0,0-136.5-102-139.5-202.3s-57.1-103.5-57.1-103.5"/>
	<line class="st0" x1="625.5" y1="499.6" x2="797.6" y2="400.2"/>
	<line class="st0" x1="625.5" y1="499.6" x2="812" y2="501"/>
	<path class="st0" d="M625.5,499.6c0,0-163.2-114.2-422.4-99.4"/>
	<path class="st0" d="M625.5,499.6c0,0-131.5,95.4-140.5,173.4s-56.1,140.9-56.1,140.9"/>
	<path class="st0" d="M625.5,499.6c0,0-319.2,77.4-444.4,1.4"/>
	<path class="st0" d="M625.5,499.6c0,0,81.4,59.4,127.4,197.4"/>
	<path class="st0" d="M625.5,499.6c0,0,71.9,171.2,37.2,268.8"/>
	<path class="st0" d="M625.5,499.6c0,0-110.7,147.1-56.6,314.2"/>
</g>
<circle id="lingkar-luar" class="st1" cx="500" cy="500" r="313.9"/>
<circle id="lingkar-dalam" class="st2" cx="500" cy="500" r="124.6"/>
<circle class="st3" cx="500" cy="500" r="97.5"/>
<g>
	<g id="x">
		<circle class="st4" cx="375.9" cy="499.7" r="14"/>
		<text transform="matrix(1 0 0 1 232.9805 496.2844)"><tspan x="0" y="0" class="st5 st6 st7">Digital Transformation</tspan><tspan x="48.7" y="14.9" class="st5 st6 st7">and Economy</tspan></text>
	</g>
	<g id="y">
		<circle class="st4" cx="625.5" cy="499.6" r="13.9"/>
		<text id="behavior-disruption" transform="matrix(1 0 0 1 648.8564 496.2916)"><tspan x="0" y="0" class="st5 st6 st7">Behavior Disruption</tspan><tspan x="0" y="14.9" class="st5 st6 st7">of Transactions</tspan></text>
	</g>
	<g>
		<polygon class="st8" points="418.1,821.8 418.1,794.8 432.9,794.8 439.7,801.7 439.7,821.8 		"/>
		<text transform="matrix(0.1588 -0.9873 0.9873 0.1588 402.7636 965.5504)"><tspan x="0" y="0" class="st9 st6 st7">Information Technology</tspan><tspan x="61.3" y="14.9" class="st9 st6 st7">and Big Data</tspan></text>
	</g>
	<g>
		<polygon class="st8" points="323.2,781.9 323.2,755 337.9,755 344.8,761.8 344.8,781.9 		"/>
		<text transform="matrix(0.4961 -0.8683 0.8683 0.4961 270.7254 868.983)" class="st9 st6 st7">Internet of Things</text>
	</g>
	<g>
		<polygon class="st8" points="242.8,710.5 242.8,683.6 257.5,683.6 264.4,690.4 264.4,710.5 		"/>
		<text transform="matrix(0.7699 -0.6381 0.6381 0.7699 189.0567 749.0749)" class="st9 st6 st7">Blockchain</text>
	</g>
	<g>
		<polygon class="st8" points="192.3,617.6 192.3,590.6 207.1,590.6 213.9,597.5 213.9,617.6 		"/>
		<text transform="matrix(0.9512 -0.3086 0.3086 0.9512 41.3311 660.4294)" class="st9 st6 st7">Banking and Capital Market</text>
	</g>
	<g>
		<polygon class="st8" points="175.3,513.5 175.3,486.5 190,486.5 196.9,493.4 196.9,513.5 		"/>
		<text transform="matrix(1 -2.085698e-03 2.085698e-03 1 42.8518 503.9545)" class="st9 st6 st7">Cities and Urbanization</text>
	</g>
	<g>
		<polygon class="st8" points="191,413.7 191,386.7 205.8,386.7 212.7,393.6 212.7,413.7 		"/>
		<text transform="matrix(0.9625 0.2712 -0.2712 0.9625 56.3523 361.464)" class="st9 st6 st7">Digital Communications</text>
	</g>
	<g>
		<polygon class="st8" points="238.4,326.9 238.4,300 253.2,300 260,306.9 260,326.9 		"/>
		<text transform="matrix(0.8648 0.5021 -0.5021 0.8648 151.6944 256.6636)"><tspan x="0" y="0" class="st9 st6 st7">Fourth Industrial</tspan><tspan x="31.4" y="14.9" class="st9 st6 st7">Revolution</tspan></text>
	</g>
	<g>
		<polygon class="st8" points="320.7,248.7 320.7,221.7 335.4,221.7 342.3,228.6 342.3,248.7 		"/>
		<text transform="matrix(0.4874 0.8732 -0.8732 0.4874 260.9705 111.7206)"><tspan x="0" y="0" class="st9 st6 st7">Artificial Intelligence</tspan><tspan x="41.1" y="14.9" class="st9 st6 st7">and Robotics</tspan></text>
	</g>
	<g>
		<polygon class="st8" points="418.1,208.5 418.1,181.5 432.9,181.5 439.7,188.4 439.7,208.5 		"/>
		<text transform="matrix(0.2162 0.9764 -0.9764 0.2162 407.9634 94.039)"><tspan x="0" y="0" class="st9 st6 st7">Financial and</tspan><tspan x="-22.3" y="14.9" class="st9 st6 st7">Monetary System</tspan></text>
	</g>
	<g>
		<polygon class="st8" points="558.4,208.5 558.4,181.5 573.1,181.5 580,188.4 580,208.5 		"/>
		<text transform="matrix(0.3556 -0.9346 0.9346 0.3556 572.3071 167.6303)"><tspan x="0" y="0" class="st9 st6 st7">Government Policy</tspan><tspan x="0" y="14.9" class="st9 st6 st7">and Society</tspan></text>
	</g>
	<g>
		<polygon class="st8" points="657.5,248.7 657.5,221.7 672.2,221.7 679.1,228.6 679.1,248.7 		"/>
		<text transform="matrix(0.5496 -0.8354 0.8354 0.5496 679.0724 212.8276)"><tspan x="0" y="0" class="st9 st6 st7">Future of Health</tspan><tspan x="0" y="14.9" class="st9 st6 st7">and Healthcare</tspan></text>
	</g>
	<g>
		<polygon class="st8" points="742.1,326.9 742.1,300 756.9,300 763.7,306.9 763.7,326.9 		"/>
		<text transform="matrix(0.7728 -0.6346 0.6346 0.7728 769.9749 297.3065)"><tspan x="0" y="0" class="st9 st6 st7">Retail, Consumer Goods</tspan><tspan x="0" y="14.9" class="st9 st6 st7">and Lifestyle</tspan></text>
	</g>
	<g>
		<polygon class="st8" points="786.5,413.7 786.5,386.7 801.2,386.7 808.1,393.6 808.1,413.7 		"/>
		<text transform="matrix(0.9687 -0.2483 0.2483 0.9687 819.6129 395.0565)" class="st9 st6 st7">Human Rights</text>
	</g>
	<g>
		<polygon class="st8" points="803,513.5 803,486.5 817.8,486.5 824.7,493.4 824.7,513.5 		"/>
		<text transform="matrix(1 -5.083914e-03 5.083914e-03 1 834.0392 503.6937)" class="st9 st6 st7">Youth Perspectives</text>
	</g>
	<g>
		<polygon class="st8" points="786.5,617.6 786.5,590.6 801.2,590.6 808.1,597.5 808.1,617.6 		"/>
		<text transform="matrix(0.9685 0.2492 -0.2492 0.9685 819.6121 614.6186)"><tspan x="0" y="0" class="st9 st6 st7">International Trade</tspan><tspan x="0" y="14.9" class="st9 st6 st7">and Investment</tspan></text>
	</g>
	<g>
		<polygon class="st8" points="742.1,710.5 742.1,683.6 756.9,683.6 763.7,690.4 763.7,710.5 		"/>
		<text transform="matrix(0.8545 0.5194 -0.5194 0.8545 780.1081 708.6407)"><tspan x="0" y="0" class="st9 st6 st7">Advance Manufacturing</tspan><tspan x="0" y="14.9" class="st9 st6 st7">and Production</tspan></text>
	</g>
	<g>
		<polygon class="st8" points="657.5,781.9 657.5,755 672.2,755 679.1,761.8 679.1,781.9 		"/>
		<text transform="matrix(0.5829 0.8125 -0.8125 0.5829 689.0707 785.9451)"><tspan x="0" y="0" class="st9 st6 st7">Workforce and</tspan><tspan x="0" y="14.9" class="st9 st6 st7">Employment</tspan></text>
	</g>
	<g>
		<polygon class="st8" points="558.4,821.8 558.4,794.8 573.1,794.8 580,801.7 580,821.8 		"/>
		<text transform="matrix(0.1723 0.9851 -0.9851 0.1723 576.283 833.5118)"><tspan x="0" y="0" class="st9 st6 st7">Education</tspan><tspan x="0" y="14.9" class="st9 st6 st7">and Skills</tspan></text>
	</g>
</g>
<g>
	<g>
		<path class="st10" d="M1410.8,835.3c59-33.6,118-67.3,177-100.9c17-9.7,34-19.4,51-29.1c1.7-1,0.2-3.5-1.5-2.6
			c-59,33.6-118,67.3-177,100.9c-17,9.7-34,19.4-51,29.1C1407.6,833.7,1409.1,836.3,1410.8,835.3L1410.8,835.3z"/>
	</g>
</g>
</svg>
