<svg xmlns="http://www.w3.org/2000/svg" viewBox="0 0 1241.75 940.56"><defs><style>.cls-1{fill:#00a5c3;}.cls-2{fill:#0b8fb3;}.cls-3{fill:#cca256;}.cls-4{fill:#f7f4f0;}.cls-5{fill:#dedddc;}.cls-6{fill:#ffd9dc;}.cls-7{fill:#ffccd2;}.cls-8{fill:#ea8668;}.cls-9{fill:#e57055;}.cls-10{fill:#ffdcd1;}.cls-11{fill:#fff;}.cls-12{fill:#fff2f4;}.cls-13{fill:#f7eacd;}.cls-14{fill:#efc465;}.cls-15{fill:#e2b65d;}.cls-16{fill:#e0aa68;}.cls-17{fill:#b57a4e;}.cls-18{fill:#f8d5ab;}.cls-19{fill:#eac092;}.cls-20{fill:#e62937;}.cls-21{fill:#cf043c;}.cls-22{fill:#fcf3eb;}.cls-23{fill:#b7092b;}.cls-24{fill:#7f051a;}.cls-25{fill:#ffe2b8;}</style></defs><title>Asset 1</title><g id="Layer_2" data-name="Layer 2"><g id="Layer_5" data-name="Layer 5"><path class="cls-1" d="M1238.2,605.71c-8.62,97.7,22.93,389.95-495.46,325.72s-857.87-78-706.48-348.65,293.6-178.92,605.55-371.6S1279.49,137.78,1238.2,605.71Z"/><path class="cls-1" d="M265.63,247.88C388.34,215.59,540.89,165.31,504.19,69S284-22.78,210.58,82.73,91.31,293.76,265.63,247.88Z"/><path class="cls-2" d="M1238.2,605.71c0-.42.06-.83.1-1.25-309.6,118-965.57,160-1204.42,171.74,91.3,91.57,359.43,111.94,708.86,155.23C1261.13,995.66,1229.58,703.41,1238.2,605.71Z"/><path class="cls-3" d="M462.58,726.76h72.58A24.19,24.19,0,0,1,559.35,751v24.2h-121V751a24.19,24.19,0,0,1,24.19-24.19Z"/><path class="cls-3" d="M1043.19,726.76h72.58A24.18,24.18,0,0,1,1140,751v24.2H1019V751a24.19,24.19,0,0,1,24.19-24.19Z"/><path class="cls-4" d="M462.58,376V678.38h72.58V376c0-140.28,113.73-254,254-254s254,113.73,254,254V678.38h72.58V376c0-180.37-146.22-326.59-326.59-326.59S462.58,195.6,462.58,376Z"/><path class="cls-5" d="M462.58,608.8v69.58h72.58V540.29a133.51,133.51,0,0,1-72.58,68.51Z"/><path class="cls-5" d="M1043.19,608.8v69.58h72.58V540.29a133.51,133.51,0,0,1-72.58,68.51Z"/><path class="cls-6" d="M541.53,331.07c-46.51,10.39-78.95,43-78.95,80.66v61c206.14,0,326.6-157.25,326.6-266.11V109.86c0,52.29-90,186-247.65,221.21Z"/><path class="cls-7" d="M789.18,167c-38,134.56-161.72,233.17-308.46,233.17-5.7,0-11.37-.18-17-.48a65.65,65.65,0,0,0-1.14,12v61c206.14,0,326.6-157.25,326.6-266.11Z"/><path class="cls-6" d="M1036.82,331.07c46.51,10.39,79,43,79,80.66v61c-206.14,0-326.59-157.25-326.59-266.11V109.86c0,52.29,90,186,247.64,221.21Z"/><path class="cls-7" d="M1115.77,411.73c0-35.93-29.57-67.28-72.7-79.1a108.88,108.88,0,0,1-90.54,102.28c45.85,23.29,100.58,37.83,163.24,37.83Z"/><path class="cls-8" d="M789.18,146.15s83.16-22.29,83.16-77.41c0-24-20.94-43.55-46.78-43.55a47.74,47.74,0,0,0-36.38,16.48,47.78,47.78,0,0,0-36.39-16.48C727,25.19,706,44.69,706,68.74c0,55.12,83.17,77.41,83.17,77.41Z"/><path class="cls-9" d="M721.46,107c24,27.43,67.72,39.14,67.72,39.14s83.16-22.29,83.16-77.41a42.44,42.44,0,0,0-17.68-34.09,114.92,114.92,0,0,1-107.82,75.21A115.22,115.22,0,0,1,721.46,107Z"/><path class="cls-10" d="M765,61.47a24.19,24.19,0,1,1-24.19-24.19A24.19,24.19,0,0,1,765,61.47Z"/><path class="cls-11" d="M583.54,194.53a24.19,24.19,0,1,1-24.19-24.19,24.18,24.18,0,0,1,24.19,24.19Z"/><path class="cls-11" d="M541.21,255a18.15,18.15,0,1,1-18.15-18.14A18.16,18.16,0,0,1,541.21,255Z"/><path class="cls-12" d="M849.66,230.82a24.2,24.2,0,1,1-24.2-24.19,24.19,24.19,0,0,1,24.2,24.19Z"/><path class="cls-12" d="M541.21,357.83a18.15,18.15,0,1,1-18.15-18.14,18.15,18.15,0,0,1,18.15,18.14Z"/><path class="cls-13" d="M474.68,696.52a18.15,18.15,0,1,1-18.15-18.14,18.15,18.15,0,0,1,18.15,18.14Z"/><path class="cls-13" d="M1055.29,696.52a18.15,18.15,0,1,1-18.14-18.14,18.14,18.14,0,0,1,18.14,18.14Z"/><path class="cls-14" d="M462.58,678.38h72.58a24.19,24.19,0,1,1,0,48.38H462.58a24.19,24.19,0,0,1,0-48.38Z"/><path class="cls-15" d="M535.16,678.38h-3.55a84.8,84.8,0,0,1-37.55,48.38h41.1a24.19,24.19,0,1,0,0-48.38Z"/><path class="cls-14" d="M1043.19,678.38h72.58a24.19,24.19,0,1,1,0,48.38h-72.58a24.19,24.19,0,0,1,0-48.38Z"/><path class="cls-16" d="M361.05,766.06,294,738.83V697H263.36v41.81l-67.05,27.23a4.09,4.09,0,0,0,1.53,7.88H359.51a4.09,4.09,0,0,0,1.54-7.88Z"/><path class="cls-17" d="M263.36,697v41.81l-67.05,27.23a4.09,4.09,0,0,0,1.53,7.88h18.35l62.2-25.26V697Z"/><path class="cls-18" d="M185.6,659c.13.27.24.54.39.82l12.72,24.27C202.43,691.21,212,697,220,697H337.31c8,0,17.61-5.81,21.33-12.9l12.73-24.27c.14-.28.26-.55.38-.82Z"/><path class="cls-19" d="M228.81,684.12l-12.72-24.27c-.15-.28-.26-.55-.39-.82H185.6c.13.27.24.54.39.82l12.72,24.27C202.43,691.21,212,697,220,697h30.1c-8,0-17.61-5.81-21.33-12.9Z"/><path class="cls-20" d="M312.79,297.12a19.46,19.46,0,0,0-27.52,0l-6.59,6.59-6.59-6.59a19.46,19.46,0,1,0-27.52,27.51l27.29,27.29H285.5l27.29-27.29a19.45,19.45,0,0,0,0-27.51Z"/><path class="cls-21" d="M285.5,351.92l8.32-8.32L265,314.73a19.47,19.47,0,0,1-3.36-23,19.68,19.68,0,0,0-3.27-.29,19.45,19.45,0,0,0-13.75,33.21l27.29,27.29Z"/><path class="cls-16" d="M299.37,368.46V356.77a4.87,4.87,0,0,0-4.86-4.85H262.84a4.86,4.86,0,0,0-4.85,4.85v11.69Z"/><path class="cls-17" d="M278.08,368.46V356.77a4.86,4.86,0,0,1,4.85-4.85H262.84a4.86,4.86,0,0,0-4.85,4.85v11.69Z"/><path class="cls-22" d="M338.14,444.33v-34a20.39,20.39,0,0,1-10.74,3.07A20.67,20.67,0,0,1,308.11,400,5.41,5.41,0,0,0,298,400a20.58,20.58,0,0,1-38.58,0,5.41,5.41,0,0,0-10.15,0A20.68,20.68,0,0,1,230,413.4a20.41,20.41,0,0,1-10.74-3.07v34Z"/><path class="cls-18" d="M239.37,444.33V411.09A20.65,20.65,0,0,1,230,413.4a20.41,20.41,0,0,1-10.74-3.07v34Z"/><path class="cls-19" d="M372.34,495.62a19.86,19.86,0,0,1-18.54-12.88,5.2,5.2,0,0,0-9.75,0,19.78,19.78,0,0,1-37.08,0,5.2,5.2,0,0,0-9.75,0,19.78,19.78,0,0,1-37.08,0,5.21,5.21,0,0,0-9.76,0,19.78,19.78,0,0,1-37.07,0,5.21,5.21,0,0,0-9.76,0,19.79,19.79,0,0,1-25,11.8v39.09H378.79V494.54a19.8,19.8,0,0,1-6.45,1.08Z"/><path class="cls-16" d="M185,495.62a19.8,19.8,0,0,1-6.45-1.08v39.09h20.28V490A19.86,19.86,0,0,1,185,495.62Z"/><path class="cls-22" d="M236.44,574.73v-9.79c0-5.34,3.78-7.52,8.4-4.86l25,14.44a14.66,14.66,0,0,1,17.64,0l25-14.44c4.62-2.67,8.41-.48,8.41,4.86v9.79h85.61V548.26a14.68,14.68,0,0,0-14.64-14.63H165.46a14.68,14.68,0,0,0-14.64,14.63v26.47Z"/><path class="cls-22" d="M320.92,597.91v9.79c0,5.34-3.79,7.52-8.41,4.85l-25-14.43h0a14.66,14.66,0,0,1-17.64,0l-25,14.43c-4.62,2.67-8.4.49-8.4-4.85v-9.79H150.82v37.47a13.8,13.8,0,0,0,.13,1.82H406.41a15.74,15.74,0,0,0,.12-1.82V597.91Z"/><path class="cls-18" d="M170.91,574.73V548.26a14.68,14.68,0,0,1,14.64-14.63H165.46a14.68,14.68,0,0,0-14.64,14.63v26.47Z"/><path class="cls-18" d="M170.91,597.91H150.82v37.46a13.56,13.56,0,0,0,.13,1.82H171a13.56,13.56,0,0,1-.13-1.82Z"/><path class="cls-16" d="M441.18,655.15a4.88,4.88,0,0,1-4.85,4.86H121a4.88,4.88,0,0,1-4.86-4.86v-13.1a4.88,4.88,0,0,1,4.86-4.86h315.3a4.88,4.88,0,0,1,4.85,4.86Z"/><path class="cls-17" d="M146.64,655.15v-13.1a4.87,4.87,0,0,1,4.85-4.86H121a4.88,4.88,0,0,0-4.86,4.86v13.1A4.88,4.88,0,0,0,121,660h30.46a4.87,4.87,0,0,1-4.85-4.86Z"/><path class="cls-23" d="M236.44,574.73h-89a4.88,4.88,0,0,0-4.86,4.86v13.46a4.88,4.88,0,0,0,4.86,4.86h89Z"/><path class="cls-23" d="M409.91,574.73h-89v23.18h89a4.88,4.88,0,0,0,4.86-4.86V579.59a4.88,4.88,0,0,0-4.86-4.86Z"/><path class="cls-24" d="M162.81,593.05V579.59a4.88,4.88,0,0,1,4.86-4.86H147.45a4.88,4.88,0,0,0-4.86,4.86v13.46a4.88,4.88,0,0,0,4.86,4.86h20.22a4.88,4.88,0,0,1-4.86-4.86Z"/><path class="cls-20" d="M263.93,586.32a14.7,14.7,0,0,1,5.93-11.8l-25-14.43c-4.62-2.67-8.4-.49-8.4,4.85V607.7c0,5.34,3.78,7.52,8.4,4.85l25-14.43a14.7,14.7,0,0,1-5.93-11.8Z"/><path class="cls-20" d="M312.51,560.09l-25,14.43a14.71,14.71,0,0,1,0,23.6l25,14.43c4.62,2.67,8.41.49,8.41-4.85V564.94c0-5.34-3.79-7.52-8.41-4.85Z"/><path class="cls-21" d="M249.55,607.7V564.94a9,9,0,0,1,.22-2l-4.92-2.84c-4.63-2.67-8.41-.48-8.41,4.86V607.7c0,5.34,3.78,7.52,8.41,4.85l4.92-2.84a9,9,0,0,1-.22-2Z"/><path class="cls-23" d="M293.43,586.32a14.75,14.75,0,1,1-14.75-14.75,14.76,14.76,0,0,1,14.75,14.75Z"/><path class="cls-25" d="M372.34,495.62a19.86,19.86,0,0,1-18.54-12.88,5.2,5.2,0,0,0-9.75,0,19.78,19.78,0,0,1-37.08,0,5.2,5.2,0,0,0-9.75,0,19.78,19.78,0,0,1-37.08,0,5.21,5.21,0,0,0-9.76,0,19.78,19.78,0,0,1-37.07,0,5.21,5.21,0,0,0-9.76,0A19.85,19.85,0,0,1,185,495.62a19.49,19.49,0,0,1-8.13-1.75,4.87,4.87,0,0,1-2.86-4.44v-29.8a15.31,15.31,0,0,1,15.3-15.3H368a15.32,15.32,0,0,1,15.3,15.3v29.8a4.86,4.86,0,0,1-2.87,4.44,19.43,19.43,0,0,1-8.13,1.75Z"/><path class="cls-19" d="M194.21,489.43v-29.8a15.31,15.31,0,0,1,15.31-15.3h-20.2A15.32,15.32,0,0,0,174,459.63v29.8a4.87,4.87,0,0,0,2.87,4.44,19.66,19.66,0,0,0,18.53-1.24,4.91,4.91,0,0,1-1.2-3.2Z"/><path class="cls-25" d="M327.41,413.4A20.69,20.69,0,0,1,308.11,400,5.41,5.41,0,0,0,298,400a20.58,20.58,0,0,1-38.58,0,5.41,5.41,0,0,0-10.15,0,20.55,20.55,0,0,1-33.64,7.55,5.33,5.33,0,0,1-1.6-3.8V384.37a15.94,15.94,0,0,1,15.93-15.91h97.5a15.93,15.93,0,0,1,15.92,15.91v19.37a5.29,5.29,0,0,1-1.6,3.8,20.48,20.48,0,0,1-14.34,5.86Z"/><path class="cls-19" d="M235.62,407.54a5.29,5.29,0,0,1-1.6-3.8V384.37a15.93,15.93,0,0,1,15.92-15.91h-20A15.94,15.94,0,0,0,214,384.37v19.37a5.33,5.33,0,0,0,1.6,3.8A20.41,20.41,0,0,0,240,410.76a20.64,20.64,0,0,1-4.33-3.22Z"/><path class="cls-17" d="M261.07,424.13a7.29,7.29,0,1,1-7.29-7.28,7.29,7.29,0,0,1,7.29,7.28Z"/><path class="cls-17" d="M310.85,424.13a7.28,7.28,0,1,1-7.28-7.28,7.28,7.28,0,0,1,7.28,7.28Z"/><path class="cls-17" d="M356.23,510a7.29,7.29,0,1,1-7.29-7.28,7.28,7.28,0,0,1,7.29,7.28Z"/><path class="cls-17" d="M309.38,510a7.28,7.28,0,1,1-7.28-7.28,7.27,7.27,0,0,1,7.28,7.28Z"/><path class="cls-17" d="M262.53,510a7.28,7.28,0,1,1-7.28-7.28,7.27,7.27,0,0,1,7.28,7.28Z"/><path class="cls-17" d="M215.69,510a7.29,7.29,0,1,1-7.28-7.28,7.27,7.27,0,0,1,7.28,7.28Z"/></g></g></svg>