<svg id="Layer_1" data-name="Layer 1" xmlns="http://www.w3.org/2000/svg" width="1920" height="1150" viewBox="0 0 1920 1150"><defs><style>.cls-1{fill:#337b8d;}.cls-2{fill:#ff4f40;}.cls-3{fill:#ffda8f;}.cls-4{fill:#fbb09b;}</style></defs><title>Artboard 1</title><path class="cls-1" d="M793.1217,358.5475l11.2375-1.7559s-7.3746,44.95,2.8094,34.415,7.7258-35.82,7.7258-35.82l12.6612-2.0133s-.2353,49.6322-18.6311,51.88C787.479,407.8739,789.2588,390.8554,793.1217,358.5475Z"/><polygon class="cls-1" points="875.647 345.554 861.249 346.959 845.638 366.618 847.202 349.768 836.667 351.173 830.439 400.546 842.637 398.932 843.918 385.137 848.15 379.857 857.738 397.177 870.38 395.421 855.348 370.878 875.647 345.554"/><path class="cls-1" d="M903.3814,390.2672l13.3534-2.0544L903.039,341.99l-10.2719,1.37-17.12,51.3591,12.3262-2.0544,3.7124-12.4871,9.1319-1.2382Zm-9.4775-17.5507L897.0305,362.2l2.2317,9.863Z"/><path class="cls-1" d="M947.2868,335.37l-.1906,25.9248-12.4516-24.52-10.5353,1.7559L921.3,387.3437s5.9109-.6332,12.291-1.7559c.556-.0978.3025-14.54.5834-27.3918L946.9356,383.13l10.5352-1.4047.7023-48.1108Z"/><path class="cls-1" d="M784.45,390.0241a10.1533,10.1533,0,0,0-10.3918-7.5251c5.7334-3.5835,8.9585-16.8421-.3584-21.8589s-21.4157,1.2016-21.4157,1.2016l-4.7432,52.908C780.15,416.5414,786.9583,398.266,784.45,390.0241ZM762.2328,368.882c6.0918-2.5084,9.3169,1.7917,7.5252,5.3751s-8.2419,4.6584-8.2419,4.6584Zm10.3919,31.1757c-3.225,3.2251-12.1836,5.0168-12.1836,5.0168l.3583-15.05C775.85,386.4407,775.85,396.8326,772.6247,400.0577Z"/><path class="cls-2" d="M501.59,382.5973,499.6278,368.62c9.8858-1.3874,16.7174-5.9247,21.4992-14.2791,4.5693-7.9831,6.4991-18.2562,7.7843-27.2526,2.7935-19.5536,7.8573-53.1708,7.9137-53.5522l14.5225-2.2892c-.0563.3809-5.6757,38.32-8.4639,57.8374-1.474,10.3179-3.7562,22.22-9.5071,32.2679C526.4453,373.4619,515.7506,380.61,501.59,382.5973Z"/><path class="cls-2" d="M542.9411,318.5446,541.059,304.35c28.5739-7.9668,43.746-20.1324,51.4424-28.9352,8.582-9.8159,12.5173-20.73,10.7967-29.9426a17.8606,17.8606,0,0,0-7.3456-11.7007c-4.3341-3.0108-10.2211-4.2515-17.0233-3.5868a70.1457,70.1457,0,0,0-26.3979,7.7788,66.0794,66.0794,0,0,0-17.096,13.1615,64.02,64.02,0,0,0-12.2376,18.3127l.0092-.0241-13.2029-4.9888a76.63,76.63,0,0,1,14.6693-22.4524,80.2476,80.2476,0,0,1,20.8223-16.2508,84.0775,84.0775,0,0,1,32.0617-9.5842c10.1811-.9939,19.3262,1.0953,26.4478,6.0426a32.1219,32.1219,0,0,1,13.1672,20.7011,42.2034,42.2034,0,0,1-1.6809,20.7877,61.1215,61.1215,0,0,1-12.3644,21.036C590.275,299.4042,568.2143,311.4979,542.9411,318.5446Z"/><path class="cls-2" d="M611.3916,365.8815a43.4337,43.4337,0,0,1-14.6837-2.388A27.9484,27.9484,0,0,1,581.2645,350.8c-3.4117-6.2208-4.2347-13.6436-2.4459-22.0623,2.3935-11.2646,6.8477-20.5214,13.239-27.5132a38.8774,38.8774,0,0,1,20.3433-12.0426,31.9366,31.9366,0,0,1,15.6708.3832,23.06,23.06,0,0,1,12.2915,8.19c4.8605,6.5371,5.0386,14.9835.4886,23.1734a27.5791,27.5791,0,0,1-15.94,13.0009A45.9608,45.9608,0,0,1,606.8,335.738a80.0465,80.0465,0,0,1-14.4538-2.5833c-1.3977,8.6246,1.6784,14.3621,9.1578,17.0645a31.8688,31.8688,0,0,0,13.4623,1.3865,53.1611,53.1611,0,0,0,16.6043-4.4529,61.5908,61.5908,0,0,0,29.3528-27.5265,127.4325,127.4325,0,0,0,9.2009-21.7965q-1.4643-.1191-2.8351-.3089c-13.1249-1.8169-18.1534-8.1794-20.06-13.197-2.0834-5.4812-1.3887-11.9568,1.9559-18.2341a29.5371,29.5371,0,0,1,11.7349-12.1,15.9768,15.9768,0,0,1,19.2377,2.8684c5.398,5.4343,7.9364,14.698,7.1712,26.1291A175.2093,175.2093,0,0,0,706.28,279.15l12.0139-3.0563-3.505,11.8908c-.109.37-10.934,37.1369-13.9828,51.2375l-.009.0422a1.59,1.59,0,0,0,2.4992,1.5964c1.9962-1.4552,4.8929-4.3915,8.2692-10.0271,9.163-15.2948,14.8169-36.4762,18.31-53.8474l14.4278-2.1955c-9.1146,45.333-22.9552,75.4144-38.6858,80.6334-5.21,1.7286-10.3473.7883-14.0968-2.5785-4.2473-3.814-5.9331-10.022-4.51-16.6063,2.0749-9.5961,7.3747-28.4719,10.8945-40.727q-6.974,1.3639-13.0318,1.99a135.9911,135.9911,0,0,1-11.4572,28.6921A75.7636,75.7636,0,0,1,637.3038,360.05a67.4219,67.4219,0,0,1-21.0842,5.6141C614.59,365.8093,612.977,365.8815,611.3916,365.8815Zm-14.8178-46.2078a64.8986,64.8986,0,0,0,11.5982,2.0137,31.6956,31.6956,0,0,0,12.3812-1.1831,13.6683,13.6683,0,0,0,7.9607-6.43c1.8146-3.2665,1.9906-5.9236.523-7.8974-1.9041-2.561-6.98-4.6563-13.625-3.2053a24.6786,24.6786,0,0,0-12.9367,7.7764A36.1592,36.1592,0,0,0,596.5738,319.6737Zm72.2221-53.57a3.108,3.108,0,0,0-1.3921.422,15.5615,15.5615,0,0,0-5.7628,6.2007c-1.36,2.5523-1.8156,5.0131-1.2191,6.5826.7681,2.0206,3.9764,3.5627,8.8025,4.2308,1.0943.1514,2.3752.271,3.8655.3318q.0741-.7216.1245-1.3881c.6552-8.6213-1.1567-13.7521-3.0709-15.6792A1.8437,1.8437,0,0,0,668.7959,266.104Z"/><path class="cls-2" d="M774.2784,342.1593a16.98,16.98,0,0,1-10.2592-3.4673,12.665,12.665,0,0,1-4.88-8.7583,27.7113,27.7113,0,0,1,.3624-8.5663c.9322-5.3418,2.9568-11.5134,4.9148-17.4819,1.501-4.5753,2.9187-8.8968,3.8023-12.6365l.0154-.0651a2.8942,2.8942,0,0,0-3.796-3.3846c-5.0166,1.8154-10.9694,5.3986-17.346,10.49a128.1743,128.1743,0,0,0-13.162,12.1557l0,0-8.602-10.5617v-.0011a80.846,80.846,0,0,1,12.7887-12.4871c11.87-9.5113,22.5124-14.5711,31.6318-15.0387,6.1192-.3129,9.3625,2.6908,10.7525,4.51,5.341,6.9893,1.627,18.31-2.6733,31.419-1.5044,4.5861-3.06,9.3283-3.9669,13.279a31.6865,31.6865,0,0,0-.7514,4.49,1.7655,1.7655,0,0,0,2.139,1.8711l.0261-.006c2.0381-.4731,7.794-3.0015,17.2028-16.2279a144.8913,144.8913,0,0,0,9.5747-15.5383h0c.0349.0219,11.5189,7.15,11.567,7.18l0,.0007a103.7555,103.7555,0,0,1-9.6406,16.5394c-9.1005,12.793-17.4456,19.9223-25.5117,21.795A18.4927,18.4927,0,0,1,774.2784,342.1593Z"/><polygon class="cls-2" points="846.238 331.561 831.653 333.913 854.706 195.124 869.395 192.796 846.238 331.561"/><polygon class="cls-2" points="984.87 310.86 970.599 313.056 992.24 179.913 1006.618 178 984.87 310.86"/><path class="cls-2" d="M848.9037,310.0761l-3.9146-13.85q2.0159-.8936,3.8793-1.8068l-8.8093-4.1728a106.9025,106.9025,0,0,1,9.25-15.2933c8.0522-11.1156,16.6072-18.2816,25.4276-21.299,10.1234-3.464,16.0335,1.2235,18.0183,6.29,2.5983,6.632-.3081,15.7258-7.9743,24.95C879.2964,291.4918,867.13,301.9987,848.9037,310.0761Zm30.2993-43.0322c-5.8968,2.0562-12.2791,7.6516-18.4641,16.19-1.9473,2.6881-3.5806,5.2644-4.8489,7.4076a70.3436,70.3436,0,0,0,17.1946-13.785C876.9206,272.491,878.5611,269.1058,879.203,267.0439Z"/><path class="cls-2" d="M879.9756,326.2905A17.2306,17.2306,0,0,1,871,323.91a19.0815,19.0815,0,0,1-8.0431-10.3793,39.1185,39.1185,0,0,1-2.0381-11.18,68.0171,68.0171,0,0,1,.6694-13.0553l13.9254,2.3-6.9627-1.15,6.9645,1.1388a54.1711,54.1711,0,0,0-.4891,10.268c.3423,6.1278,1.8762,9.1489,3.1977,9.933.9979.592,2.8792.505,5.2977-.2453,4.3438-1.3473,10.8689-5.1366,17.4472-10.2453l7.67,11.663c-8.0407,6.2444-14.8938,10.1917-20.9505,12.0674A26.142,26.142,0,0,1,879.9756,326.2905Z"/><path class="cls-2" d="M809.9316,337.07a11.7477,11.7477,0,0,1-4.1487-.7439c-3.7922-1.4193-6.5383-4.7394-7.7322-9.3487a25.4179,25.4179,0,0,1-.4926-9.1767c1.618-12.9386,8.0934-47.7363,8.376-49.1256l15.3687-2.1955c-.0681.335-8.1882,40.6658-9.74,53.0723l-.0037.03a1.3005,1.3005,0,0,0,2.08,1.1834,48.3927,48.3927,0,0,0,5.0479-4.5467c6-6.0941,13.3655-15.6153,21.8923-28.2991l11.7134,7.8746c-10.4173,15.4955-19.3616,26.6838-26.5843,33.254a35.701,35.701,0,0,1-9.6859,6.6685A15.5328,15.5328,0,0,1,809.9316,337.07Z"/><path class="cls-2" d="M1022.74,306.6289a10.96,10.96,0,0,1-5.1289-1.2174c-2.0689-1.084-4.7661-3.3943-5.8659-8.2452a29.8732,29.8732,0,0,1-.45-8.4129,161.9015,161.9015,0,0,1,2.8164-18.456c.942-4.9593,1.9163-10.0873,2.386-14.3044q.0881-.79.1464-1.4752a3.2512,3.2512,0,0,0-4.6814-3.1885,60.4126,60.4126,0,0,0-9.9351,6.472,137.1546,137.1546,0,0,0-12,10.5446.3238.3238,0,0,1-.4566.0013l-9.6-9.44a.3252.3252,0,0,1-.0021-.4626,146.8,146.8,0,0,1,15.6892-13.5118,57.634,57.634,0,0,1,14.15-8.0083c8.7789-3.1073,14.0865-.4678,16.9931,2.2936,6.4229,6.1016,4.1079,18.2868,1.1771,33.7139-.9322,4.9074-1.8963,9.9818-2.3652,14.147l-.0061.0546a2.0066,2.0066,0,0,0,3.1861,1.8353q.3184-.2353.656-.4917a165.454,165.454,0,0,0,16.4042-14.9824.3277.3277,0,0,1,.4626-.0045l9.5933,9.4423a.3278.3278,0,0,1,.0029.4632c-8.7635,8.8875-15.691,14.9875-21.1722,18.6437a29.4676,29.4676,0,0,1-8.0456,4.0058A14.3359,14.3359,0,0,1,1022.74,306.6289Z"/><path class="cls-2" d="M955.9085,315.8217a14.7539,14.7539,0,0,1-4.5549-.6949,13.03,13.03,0,0,1-8.8954-14.0918c.9636-9.6353,12.3567-50.7257,13.556-55.57l13.6436-2.0387c-2.6556,10.7268-9.5311,39.5774-12.154,53.019a2.6118,2.6118,0,0,0,4.1232,2.5958l.07-.0529c3.2662-2.4605,8.4539-7.6171,14.62-18.21l10.12,6.5589c-6.0676,10.4239-10.3308,18.6258-16.7681,23.3094a27.7514,27.7514,0,0,1-9.1564,4.5609A18.16,18.16,0,0,1,955.9085,315.8217Z"/><path class="cls-2" d="M921.3522,320.3678a20.1757,20.1757,0,0,1-13.1194-4.624c-6.0881-5.0448-9.33-13.7172-8.8931-23.7934a51.543,51.543,0,0,1,10.6287-28.3395c8.8394-11.7219,18.5017-17.8969,28.7185-18.3535a29.127,29.127,0,0,1,21.6726,8.928l-8.2659,11.0392s-2.1834-1.55-2.1493-1.5143c-.0445-.0471-4.521-4.6969-10.767-4.3458-7.1876.4022-13.723,7.1524-17.94,12.7444A37.3317,37.3317,0,0,0,913.44,292.561c-.2363,5.4591,1.2189,10.1779,3.798,12.315,1.9278,1.5976,4.6985,1.81,8.235.6319,3.8944-1.2973,10.3962-4.8894,19.2553-14.6346l10.4438,9.4943c-8.76,9.6354-17.2509,15.87-25.2382,18.5309A27.1909,27.1909,0,0,1,921.3522,320.3678Z"/><path class="cls-2" d="M954.1392,462.1476a16.4492,16.4492,0,0,1-3.8794-.45c-6.3532-1.54-10.37-6.8133-9.7694-12.8237.8424-8.425,7.6523-49.7226,7.9417-51.4765l13.9258,2.2985c-.0613.3716-5.3845,32.6511-7.256,46.0983a1.4387,1.4387,0,0,0,1.9771,1.53l.0282-.012c2.321-.9873,6.04-3.3681,10.5783-9.1036,4.8671-6.1518,11.619-19.7509,15.7728-30.2742L994.4092,418.26c-6.3877,16.1821-13.8128,28.1688-22.0691,35.6273A33.7571,33.7571,0,0,1,961.086,460.9,21.018,21.018,0,0,1,954.1392,462.1476Z"/><path class="cls-2" d="M922.7028,466.84a18.6019,18.6019,0,0,1-12.0922-4.2716c-5.5711-4.6163-8.5389-12.51-8.1429-21.6582a46.29,46.29,0,0,1,9.5393-25.4544c7.951-10.5438,16.6824-16.1,25.9514-16.5142,11.5767-.52,18.962,7.2577,19.7655,8.146l-10.4661,9.4694s.0195.0225.0587.0637c-.0369-.0387-3.75-3.8695-8.86-3.5723-6.0114.3473-11.5731,6.1221-15.18,10.9055a32.0755,32.0755,0,0,0-6.7073,17.5669c-.1974,4.5581.97,8.4587,3.0475,10.18,1.4629,1.2123,3.6384,1.3495,6.4649.4079,3.3394-1.1124,8.9342-4.2141,16.6245-12.6734l10.4436,9.4941c-7.821,8.6031-15.4272,14.178-22.6072,16.57A24.8272,24.8272,0,0,1,922.7028,466.84Z"/><path class="cls-2" d="M1105.5125,441.7376a15.4232,15.4232,0,0,1-4.1551-.5558,13.5171,13.5171,0,0,1-10.0048-14.2628c.8425-8.4251,7.6522-49.7227,7.9416-51.4766l13.9258,2.2985c-.0683.4139-6.6659,40.423-7.7484,49.8874.7726.0111,2.6142-.3815,5.3867-2.5452,3.81-2.9734,9.8443-9.6443,16.9533-24.5393l12.7376,6.0794c-6.265,13.1266-12.9045,22.7316-19.7345,28.5481a28.5424,28.5424,0,0,1-9.757,5.6821A18.4513,18.4513,0,0,1,1105.5125,441.7376Z"/><path class="cls-2" d="M1073.5649,444.8854a18.6013,18.6013,0,0,1-12.0922-4.2715c-5.571-4.6164-8.539-12.5106-8.1428-21.6584a46.2894,46.2894,0,0,1,9.5393-25.4543c7.951-10.5438,16.6824-16.1,25.9514-16.5143,11.5771-.5189,18.962,7.2578,19.7656,8.146l-10.4662,9.4694s.02.0225.0587.0637c-.0369-.0387-3.7474-3.8669-8.86-3.5723-6.0113.3474-11.5731,6.1222-15.18,10.9055a32.0775,32.0775,0,0,0-6.7074,17.567c-.1972,4.558.97,8.4587,3.0475,10.18,1.463,1.2124,3.638,1.35,6.465.408,3.3392-1.1124,8.9342-4.2142,16.6245-12.6734l10.4435,9.4942c-7.821,8.603-15.4271,14.1779-22.6071,16.57A24.8274,24.8274,0,0,1,1073.5649,444.8854Z"/><path class="cls-2" d="M1096.9284,294.6366a9.9112,9.9112,0,0,1-5.0079-1.31c-2.0227-1.1581-4.5608-3.573-5.1666-8.5a30.5788,30.5788,0,0,1,.6262-9.3244c2.2992-11.9362,10.6323-50.9463,10.7162-51.3649l14.1141-2.1955c-.0833.4155-8.5815,43.8455-10.9288,56.0113.8449-.5845,1.8268-1.3,2.9628-2.1764,3.9987-3.0848,8.6607-7.1821,13.1691-11.1445,2.1523-1.8916,5.98-4.9375,8.1269-6.7778l7.5839,11.8053c-2.0808,1.7839-4.2731,3.7107-6.3933,5.5741-5.625,4.9437-11.4414,10.0556-16.464,13.6551a39.0715,39.0715,0,0,1-7.8075,4.5575A14.78,14.78,0,0,1,1096.9284,294.6366Z"/><path class="cls-2" d="M1063.3559,299.5307a17.751,17.751,0,0,1-5.64-.8814,16.3163,16.3163,0,0,1-8.307-6.3256,23.4842,23.4842,0,0,1-3.5668-9.0469c-1.422-7.5562-.3624-17.5762,2.9072-27.4907a68.5076,68.5076,0,0,1,5.7637-12.9593,38.6619,38.6619,0,0,1,8.359-10.2943c10.5416-8.7589,20.8943-9.2676,27.7236-8.1516a32.7459,32.7459,0,0,1,12.63,4.8072l-8.06,11.5864s.02.0147.06.0414a19.4917,19.4917,0,0,0-7.4084-2.5808c-5.5417-.7573-10.8994.9766-15.9263,5.1533-7.7565,6.4446-14.2443,26.303-12.1791,37.2782.2277,1.21.9232,4.0792,2.46,4.5907.585.1948,2.8965.6344,8.0888-1.876,5.4438-2.632,12.0923-7.5328,19.76-14.5665l9.54,10.4014c-8.6827,7.9641-16.4741,13.6407-23.1574,16.872A30.3819,30.3819,0,0,1,1063.3559,299.5307Z"/><polygon class="cls-2" points="1133.225 288.591 1118.797 290.63 1131.186 219.118 1145.838 216.634 1133.225 288.591"/><path class="cls-2" d="M1181.0258,283.0549a12.1366,12.1366,0,0,1-6.0247-1.5214c-2.1384-1.1987-4.9462-3.7015-6.1791-8.8178a33.15,33.15,0,0,1-.6136-9.51c.3433-6.243,1.74-13.6218,3.09-20.7578.96-5.0734,1.8664-9.8654,2.343-13.9212l.0068-.0578a2.8411,2.8411,0,0,0-3.8928-2.9564,69.3233,69.3233,0,0,0-16.0131,9.7612,127.4042,127.4042,0,0,0-14.8716,13.0139l-7.99-11.3048a130.6115,130.6115,0,0,1,13.9922-12.6908c11.3665-8.91,21.7733-13.8913,30.9314-14.8072a10.338,10.338,0,0,1,8.8779,3.2511c5.4721,5.9721,3.38,17.0305.4839,32.3359-1.0806,5.7113-2.198,11.617-2.6793,16.5274a31.0909,31.0909,0,0,0-.0916,7.01,25.7588,25.7588,0,0,0,5.0269-2.5837,124.8568,124.8568,0,0,0,16.1029-12.8068L1213,263.68c-8.58,7.7707-15.464,13.0186-21.0462,16.0435a27.1146,27.1146,0,0,1-8.279,3.1A15.8211,15.8211,0,0,1,1181.0258,283.0549Z"/><rect class="cls-2" x="953.5353" y="418.8208" width="68.4978" height="14.1141" transform="translate(471.7945 1369.7234) rotate(-84.6581)"/><path class="cls-2" d="M1031.7419,452.0943a10.4,10.4,0,0,1-4.9821-1.2209c-6.2057-3.3239-5.9455-11.0175-5.86-13.5457a114.0417,114.0417,0,0,1,1.7814-13.8925c.9706-5.8187,1.9744-11.8354,2.0341-16.9326.0706-6.0117-1.2655-7.7414-1.6767-8.1284l-.03-.0274c-.3317,0-2.0591.1514-5.7228,2.886a70.4222,70.4222,0,0,0-10.5357,10.2787,171.9836,171.9836,0,0,0-12.4656,16.5507l-11.8524-7.6635a185.0123,185.0123,0,0,1,12.2913-16.5318,97.9859,97.9859,0,0,1,11.7946-12.1027c5.3122-4.4442,10.0776-6.87,14.5683-7.4156a13.9929,13.9929,0,0,1,11.6258,3.7477c8.7931,8.2759,6.1887,23.8875,3.8907,37.6614-.5988,3.59-1.1644,6.98-1.4393,9.7856q-.039.398-.0678.7547c.95-.577,2.12-1.35,3.542-2.3839a196.46,196.46,0,0,0,17.3353-14.8355l9.6477,10.3018c-9.3283,8.7361-16.5206,14.6971-21.9875,18.2236a31.0619,31.0619,0,0,1-7.877,3.8751A14.2843,14.2843,0,0,1,1031.7419,452.0943Z"/><rect class="cls-2" x="591.7977" y="453.4646" width="66.0061" height="14.1141" transform="translate(74.6261 1008.0287) rotate(-81.2536)"/><path class="cls-2" d="M652.4512,528.8836a63.0706,63.0706,0,0,1-7.6016-.4686,76.71,76.71,0,0,1-28.5813-9.6682,57.93,57.93,0,0,0-29.7312-8.1856A41.321,41.321,0,0,0,574.8,512.1989l-4.803-13.2718c1.0118-.3661,25.11-8.7815,53.3559,7.6126,12.8372,7.45,31.8586,11.7432,45.4144,4.5368,10.1957-5.42,15.9415-16.6617,17.0781-33.4136.4192-6.1788-.0657-11.1991-1.4409-14.9216a11.4172,11.4172,0,0,0-4.4389-5.9453c-4.163-2.6832-11.4225-2.7478-20.4405-.1823a77.5422,77.5422,0,0,0-13.8152,5.4576l-7.8263-11.6651a193.7057,193.7057,0,0,0,18.7761-18.179,87.232,87.232,0,0,0,11.4728-15.5638c2.5347-4.648,3.6186-8.5955,3.0516-11.1152-.5856-2.6033-3.6017-4.6072-8.9645-5.956-15.046-3.7846-28.9957.1788-41.46,11.78a74.1167,74.1167,0,0,0-14.771,19.3387l-12.7-6.1584a88.3612,88.3612,0,0,1,17.8544-23.5117c15.963-14.8579,34.8153-20.0919,54.5186-15.1364a31.8363,31.8363,0,0,1,12.7468,6.0082,18.9,18.9,0,0,1,6.5463,10.5439c2.2787,10.1445-3.2748,22.673-16.9723,38.2723,7.792-.5926,14.3634.81,19.6285,4.2036A25.3357,25.3357,0,0,1,697.6441,457.85c2.07,5.6027,2.8383,12.59,2.2833,20.7686-.7549,11.1273-3.344,20.6561-7.6954,28.3219a41.7228,41.7228,0,0,1-16.8394,16.5991A48.6544,48.6544,0,0,1,652.4512,528.8836Z"/><path class="cls-2" d="M729.2747,498.9294a30.6988,30.6988,0,0,1-3.9568-.2473c-10.8981-1.4155-17.5742-8.93-18.3162-20.618-.6694-10.5413,1.3373-19.9892,5.9639-28.0809a43.14,43.14,0,0,1,16.689-16.3881,39.4577,39.4577,0,0,1,15.8874-4.8923c5.83-.4341,10.8519.7465,14.5166,3.4137a13.6775,13.6775,0,0,1,5.3807,14.1794c-4.3247,22.4894-32.8559,28.2859-34.0683,28.5218l-2.6939-13.8547-.0187.0037a47.1644,47.1644,0,0,0,11.3274-4.1727c6.6947-3.5443,10.5953-7.9732,11.5933-13.1635.0152-.0784.0251-.1455.0317-.2017-1.1957-.7006-6.1937-1.6819-13.3546,1.6246a28.9856,28.9856,0,0,0-12.4157,10.898c-3.6763,5.8505-5.2755,12.99-4.7531,21.2183.3588,5.651,2.58,7.0655,6.0485,7.5159,7.44.9661,20.4118-3.6374,33.0518-11.7279,11.9947-7.6773,23.8986-20.1812,25.9866-26.4451l11.3213,7.23c-1.7082,5.1246-5.5124,10.6764-11.307,16.5006a109.7605,109.7605,0,0,1-18.392,14.6017C760.865,489.2819,744.0824,498.929,729.2747,498.9294Z"/><rect class="cls-2" x="758.6243" y="450.3266" width="64.5016" height="14.114" transform="matrix(0.1264, -0.992, 0.992, 0.1264, 237.1693, 1184.0837)"/><path class="cls-2" d="M830.3834,485.9832a11.9511,11.9511,0,0,1-6.7263-2.027,12.1748,12.1748,0,0,1-5.0106-7.8623,29.1253,29.1253,0,0,1-.4577-7.8371,146.0821,146.0821,0,0,1,2.427-16.94c.9316-5.1587,1.8949-10.4931,2.265-14.9052.0954-1.1376.1415-2.11.1537-2.9382a2.786,2.786,0,0,0-3.669-2.6752c-4.9575,1.6413-9.2525,5.1934-12.2353,8.2287a53.5827,53.5827,0,0,0-7.3249,9.3464l-3.1238,3.1574-9.0994-10.2143a66.9384,66.9384,0,0,1,9.2066-11.9011,52.1076,52.1076,0,0,1,10.7887-8.6509,34.4758,34.4758,0,0,1,15.1005-4.9213,12.5583,12.5583,0,0,1,10.5149,3.9824c1.9639,2.187,4.5,6.271,3.8507,16.4426a162.502,162.502,0,0,1-2.5383,17.5571c-.8562,4.7411-1.665,9.2195-2.05,13.0234a35.8894,35.8894,0,0,0-.2177,4.2446c1.9812-1.0979,5.638-3.76,11.3822-10.1932a147.1021,147.1021,0,0,0,9.535-11.9546l11.5627,8.0939a156.4688,156.4688,0,0,1-12.8045,15.6969,60.2771,60.2771,0,0,1-11.8019,10.1019A18.7836,18.7836,0,0,1,830.3834,485.9832Z"/><path class="cls-2" d="M874.3435,477.8309a20.585,20.585,0,0,1-3.9073-.3688c-8.1144-1.5643-14.2621-7.9023-17.3106-17.8464a53.0548,53.0548,0,0,1-1.3706-23.22c1.3409-8.6057,4.5763-15.8421,9.11-20.3761,7.8952-7.8953,15.86-11.4142,23.6716-10.4568,10.0531,1.231,15.2356,9.397,15.7934,10.3241l-12.0935,7.2769s.0168.03.0519.0845c-.0213-.0332-2.1767-3.3244-5.5573-3.6864-3.1724-.3391-7.3946,1.9466-11.8859,6.4379-2.3634,2.3634-4.2868,7.0621-5.1447,12.5689a39.2619,39.2619,0,0,0,.919,16.91c.8363,2.7282,2.7914,7.4116,6.4881,8.1244,2.5994.5006,6.21-.6615,10.4392-3.3621,5.989-3.8239,12.8168-10.4666,20.2938-19.7436l10.9893,8.8569c-8.4382,10.47-16.4079,18.1347-23.6876,22.7828C885.2113,475.9243,879.5782,477.8306,874.3435,477.8309Z"/><ellipse class="cls-2" cx="815.2256" cy="249.067" rx="11.4029" ry="9.5182" transform="translate(-33.9071 174.2281) rotate(-11.9521)"/><path class="cls-3" d="M753.9306,410.6944a.7841.7841,0,0,1-.7823-.8377l1.6345-23.8894-.0038-.0151a.78.78,0,0,1,.0378-.4818l1.3894-20.3061a.7842.7842,0,0,1,.4815-.6705c.3634-.151,8.96-3.6625,14.2345-.68a7.7606,7.7606,0,0,1,3.778,5.9933c.7264,4.8769-2.3784,9.3293-8.9786,12.8756-1.0486.5634-2.1024,1.061-3.1126,1.4956,6.7763-.2947,16.1207.48,17.7206,6.72a11.76,11.76,0,0,1-1.556,10.0775c-3.6252,5.18-11.9576,8.4488-24.7658,9.7155A.7717.7717,0,0,1,753.9306,410.6944Zm2.3961-24.318-1.55,22.6581c11.8074-1.2785,19.4457-4.2908,22.7125-8.9586a10.2581,10.2581,0,0,0,1.3215-8.7887c-.6036-2.3542-3.1971-5.2289-12.1255-5.5556a60.2656,60.2656,0,0,0-10.2156.606Zm1.41-20.6059-1.2959,18.9419c4.051-1.1743,18.0175-5.8848,16.7084-14.6746a6.195,6.195,0,0,0-2.9966-4.8579C766.1686,362.9255,759.5154,365.1153,757.7366,365.7705Z"/><path class="cls-3" d="M804.41,400.7458a7.0975,7.0975,0,0,1-3.1721-.731c-3.5068-1.7331-5.7007-6.3775-6.0189-12.7423-.521-10.4182,2.0741-26.3531,2.1-26.5129a.7841.7841,0,0,1,1.5474.2546c-.026.158-2.594,15.93-2.0814,26.18.2847,5.6955,2.2088,9.9628,5.1473,11.4149,2.2179,1.0961,4.9663.59,7.9481-1.4621,3.3721-2.3211,6.1986-8.2305,8.1738-17.089a103.2991,103.2991,0,0,0,2.36-21.4635.7841.7841,0,0,1,.7766-.7916h.0077a.7841.7841,0,0,1,.7839.7766,103.39,103.39,0,0,1-2.3972,21.82c-1.4385,6.4517-4.1356,14.8185-8.8154,18.0395A11.2736,11.2736,0,0,1,804.41,400.7458Z"/><path class="cls-3" d="M836.8815,396.2768a.8011.8011,0,0,1-.0858-.0046.7843.7843,0,0,1-.6947-.8644l4.4957-41.2969a.7841.7841,0,1,1,1.559.17L837.66,395.5775A.7844.7844,0,0,1,836.8815,396.2768Z"/><path class="cls-3" d="M838.3439,383.3127a.7842.7842,0,0,1-.6053-1.2822l27.0781-32.9329a.7841.7841,0,1,1,1.2114.996L838.95,383.0266A.7823.7823,0,0,1,838.3439,383.3127Z"/><path class="cls-3" d="M861.6594,393.1405a.7833.7833,0,0,1-.675-.3843L848.02,370.9054a.784.784,0,1,1,1.3486-.8l12.964,21.8509a.7845.7845,0,0,1-.6736,1.1843Z"/><path class="cls-3" d="M883.1959,388.9585a.7847.7847,0,0,1-.741-1.0408l14.01-40.4605a.784.784,0,0,1,1.4879.0181l11.814,37.01a.7842.7842,0,1,1-1.4941.4769l-11.0971-34.765-13.2384,38.2332A.7843.7843,0,0,1,883.1959,388.9585Z"/><path class="cls-3" d="M886.9587,378.3991a.7842.7842,0,0,1-.1032-1.5615l18.7142-2.5092a.7841.7841,0,1,1,.2083,1.5544l-18.7142,2.5092A.7809.7809,0,0,1,886.9587,378.3991Z"/><path class="cls-3" d="M927.4209,383.1036c-.0164,0-.0327,0-.0492-.0015a.7841.7841,0,0,1-.7342-.831l2.5092-40.5651a.784.784,0,0,1,1.4478-.3664l21.7461,34.8719-.1948-37.5894a.7843.7843,0,0,1,.78-.7883h.0043a.7842.7842,0,0,1,.784.78l.2092,40.3559a.784.784,0,0,1-1.4494.419l-21.9134-35.14-2.3578,38.1191A.784.784,0,0,1,927.4209,383.1036Z"/><path class="cls-4" d="M507.9817,374.2549a.7842.7842,0,0,1-.246-1.5287c9.0436-2.99,15.6666-9.0032,20.2476-18.3845,4.12-8.4376,5.92-18.288,7.138-26.811,2.0032-14.0233,5.4219-37.2455,7.2815-49.84a.7841.7841,0,1,1,1.5513.2291c-1.8593,12.5929-5.2776,35.8122-7.28,49.8323-1.235,8.644-3.0657,18.6444-7.2813,27.2774-4.776,9.7808-11.6991,16.0563-21.1646,19.1853A.78.78,0,0,1,507.9817,374.2549Z"/><path class="cls-4" d="M538.3926,312.7422a.7842.7842,0,0,1-.1933-1.544c25.2792-6.45,45.3123-17.1425,57.934-30.9226,10.4319-11.3893,15.2629-24.49,13.2547-35.9438a24.2969,24.2969,0,0,0-9.8825-16.017c-5.5792-3.961-12.9064-5.6279-21.186-4.8185-15.3445,1.4984-28.839,6.8952-40.1084,16.0406a75.0078,75.0078,0,0,0-18.1667,21.6442.784.784,0,1,1-1.3713-.7605,76.5909,76.5909,0,0,1,18.55-22.1014c11.5126-9.3426,25.2883-14.8549,40.9441-16.3837,8.6619-.8457,16.3549.9178,22.2465,5.1005a25.8339,25.8339,0,0,1,10.5192,17.025c2.093,11.9369-2.88,25.5228-13.6428,37.2738-12.8282,14.0057-33.1273,24.8578-58.7027,31.3829A.7867.7867,0,0,1,538.3926,312.7422Z"/><path class="cls-4" d="M611.3157,359.1585a36.8355,36.8355,0,0,1-12.4762-2.01c-11.65-4.2093-16.7109-14.2516-13.8849-27.5521,2.1582-10.157,6.1057-18.4286,11.7331-24.5845a32.6435,32.6435,0,0,1,17.0514-10.1465,25.65,25.65,0,0,1,12.5811.2781,16.8612,16.8612,0,0,1,9.0092,5.9091c3.3739,4.5376,3.3876,10.3563.0389,16.3839a21.2518,21.2518,0,0,1-12.567,10.0378,40.7546,40.7546,0,0,1-15.8932,1.3662,80.149,80.149,0,0,1-19.0621-4.2646q-.7683,2.5747-1.3575,5.3464c-1.3872,6.5292-.8317,12.135,1.6511,16.6621a20.2424,20.2424,0,0,0,11.2328,9.0892c9.4892,3.428,22.4783,2.2192,34.7462-3.2341a67.889,67.889,0,0,0,32.357-30.3394c5.7663-10.967,9.74-21.4581,11.713-30.836a57.6529,57.6529,0,0,1-10.0393-.4023c-5.5645-.77-12.6935-2.9936-15.057-9.212-1.43-3.7635-.8521-8.4,1.6284-13.0556a23.0588,23.0588,0,0,1,9.0808-9.4783c4.2817-2.2147,8.621-1.5888,11.9052,1.7174a18.525,18.525,0,0,1,4.4119,8.4535,41.219,41.219,0,0,1,.9145,13.3459,66.5633,66.5633,0,0,1-.9189,6.967,154.1312,154.1312,0,0,0,27.7119-4.8156.7841.7841,0,0,1,.9454.9817c-.11.3718-10.9992,37.3584-14.0971,51.6853a11.1611,11.1611,0,0,0,.5155,6.9365,5.8684,5.8684,0,0,0,4.0638,3.4579c2.0365.4454,4.4471-.1891,6.9711-1.8356,3.0425-1.9848,6.1221-5.3167,9.1532-9.9033,7.509-11.3622,14.2679-29.9654,19.5458-53.7987a.7841.7841,0,1,1,1.5312.339,250.5381,250.5381,0,0,1-9.6319,33.543,105.4762,105.4762,0,0,1-10.1367,20.7814c-5.3608,8.1116-11.122,12.5855-16.0853,12.5858a7.8311,7.8311,0,0,1-1.6827-.1795,7.4012,7.4012,0,0,1-5.1537-4.3354,12.7274,12.7274,0,0,1-.623-7.9225c2.7758-12.8381,11.7625-43.7276,13.7394-50.4808a151.0116,151.0116,0,0,1-27.0755,4.5477c-1.9753,9.626-6.0293,20.3978-11.9419,31.6435a69.4639,69.4639,0,0,1-33.108,31.0424A58.6725,58.6725,0,0,1,611.3157,359.1585Zm-23.0016-36.0808a78.3625,78.3625,0,0,0,18.761,4.2036,39.1813,39.1813,0,0,0,15.2614-1.3045,19.7267,19.7267,0,0,0,11.6608-9.3013c3.0317-5.4571,3.0579-10.6728.0735-14.6867-3.81-5.124-11.8463-7.3707-19.9973-5.5908a31.0864,31.0864,0,0,0-16.2283,9.6725A46.0315,46.0315,0,0,0,588.3141,323.0777Zm80.5144-63.7032a9.372,9.372,0,0,0-4.3066,1.1349,21.755,21.755,0,0,0-8.417,8.8227c-2.2646,4.25-2.8138,8.427-1.5467,11.761,1.6548,4.3536,6.4289,7.1946,13.8061,8.2158a56.7973,56.7973,0,0,0,10.14.3758,65.5043,65.5043,0,0,0,.9653-7.17c.7029-9.2493-1.0741-16.7486-4.8752-20.5753A8.014,8.014,0,0,0,668.8285,259.3745Z"/><path class="cls-4" d="M774.4106,335.4893a10.9484,10.9484,0,0,1-6.6506-2.2778c-5.2334-3.8875-1.42-15.51,2.6164-27.8155,3.3072-10.0812,6.7271-20.5057,3.8934-24.2137-.817-1.0693-2.1662-1.5409-4.1206-1.44-9.2633.4751-19.4583,7.4522-26.38,13.2214a122.1347,122.1347,0,0,0-12.9859,12.6046.7841.7841,0,0,1-1.19-1.0209,123.928,123.928,0,0,1,13.1722-12.7882c10.334-8.6139,19.52-13.1839,27.3037-13.583,2.4741-.1277,4.3083.5639,5.4469,2.0539,3.3352,4.3643-.0575,14.7059-3.6494,25.6549-1.8712,5.7038-3.806,11.6019-4.641,16.3856-.893,5.1171-.4123,8.2842,1.47,9.6822a9.3783,9.3783,0,0,0,8.1545,1.6754c14.2406-3.33,29.7991-33.4846,29.9545-33.7887a.7841.7841,0,1,1,1.3964.7136,145.0778,145.0778,0,0,1-9.7615,15.9012c-7.7762,10.9331-14.92,17.225-21.2322,18.7009A12.2691,12.2691,0,0,1,774.4106,335.4893Z"/><path class="cls-4" d="M838.91,333.1307a.7854.7854,0,0,1-.7744-.9132l22.0307-132.1842a.7841.7841,0,0,1,1.5468.2579L839.6819,332.4754A.7842.7842,0,0,1,838.91,333.1307Z"/><path class="cls-4" d="M978.2841,307.2534a.7854.7854,0,0,1-.7747-.9114L997.6193,184a.7841.7841,0,0,1,1.5474.2542l-20.11,122.342A.7842.7842,0,0,1,978.2841,307.2534Z"/><path class="cls-4" d="M844.0425,304.1169a.7842.7842,0,0,1-.3-1.5088c18.4832-7.6482,28.8089-16.5635,34.2165-22.6959,7.2557-8.2282,8.5373-14.5725,7.43-17.5053-.9674-2.5632-3.9252-3.2112-8.1146-1.7783-9.0409,3.093-17.0083,11.795-22.1,18.55a107.2633,107.2633,0,0,0-9.0215,14.1583.7842.7842,0,0,1-1.3986-.71,108.8935,108.8935,0,0,1,9.1516-14.3711c7.6031-10.0932,15.2945-16.5233,22.8608-19.1116,5.0282-1.72,8.8-.7079,10.0892,2.7081,1.6862,4.4663-1.2723,11.7835-7.7209,19.0963-5.5173,6.2569-16.0321,15.3448-34.7929,23.1079A.7814.7814,0,0,1,844.0425,304.1169Z"/><path class="cls-4" d="M879.57,320.1486a10.6232,10.6232,0,0,1-5.2213-1.2624c-4.3509-2.405-6.7723-8.056-7.197-16.796a64.942,64.942,0,0,1,.6254-12.2163.7841.7841,0,0,1,1.5479.2519c-.0361.2219-3.5,22.2588,5.7833,27.3884,2.86,1.58,6.7362,1.4037,11.5217-.5252,5.7343-2.3113,12.8114-7.1567,21.0345-14.4015a.7842.7842,0,1,1,1.0368,1.1767c-8.3574,7.3631-15.5864,12.3021-21.4863,14.68A20.7378,20.7378,0,0,1,879.57,320.1486Z"/><path class="cls-4" d="M809.7512,330.4206a5.3453,5.3453,0,0,1-1.892-.33c-1.83-.6848-3.1388-2.4428-3.7852-5.0837a19.84,19.84,0,0,1-.2913-6.8734c1.0565-8.45,6.0715-33.97,8.213-44.8672l.0692-.3519a.7841.7841,0,1,1,1.5388.3023l-.0692.3521c-2.1382,10.8814-7.1459,36.3639-8.1958,44.7592-.5261,4.2075.21,9.2236,3.07,10.2939,1.7584.6589,5.2156.1924,11.6977-5.7667,6.6728-6.1347,15.14-16.8074,25.1667-31.722a.7841.7841,0,1,1,1.3014.8751C829.4215,317.5241,817.0536,330.4192,809.7512,330.4206Z"/><path class="cls-4" d="M1023.6007,300.05a4.8819,4.8819,0,0,1-2.272-.5157c-5.3142-2.74-3.0828-15.3919-.7205-28.787,1.0195-5.7808,2.0738-11.7583,2.4-16.5611.3523-5.183-.174-8.3651-1.6085-9.728-4.4653-4.242-13.7443,1.0725-20.7422,6.2781a135.8382,135.8382,0,0,0-14.5956,12.8371.7842.7842,0,0,1-1.13-1.0877,137.6678,137.6678,0,0,1,14.7895-13.0076c10.881-8.0947,18.5381-10.1658,22.7582-6.1569,3.9037,3.7084,1.8487,15.3614-.3273,27.6984-2.0592,11.6761-4.3932,24.91-.105,27.1208,1.822.94,4.9526-.04,9.3043-2.9123,5.05-3.3332,11.8589-9.3389,20.2364-17.85a.7841.7841,0,1,1,1.1176,1.1c-8.5733,8.7106-15.2758,14.6178-20.49,18.059C1028.6566,298.8853,1025.81,300.0493,1023.6007,300.05Z"/><path class="cls-4" d="M956.0378,309.4738a8.3423,8.3423,0,0,1-2.5827-.3916c-3.2608-1.0568-5.1274-4.1451-4.7552-7.8679.7525-7.5241,8.1817-38.4557,11.341-51.4053a.7841.7841,0,0,1,1.5235.3718c-3.1514,12.9175-10.5615,43.7639-11.304,51.1894-.2959,2.9585,1.1479,5.4,3.6782,6.22,2.9.94,6.7751-.2133,10.9119-3.2469,5.3437-3.9185,10.7957-10.6174,16.2051-19.91a.7841.7841,0,1,1,1.3553.789c-5.5183,9.48-11.1145,16.3392-16.6329,20.386C962.31,308.1516,958.9438,309.4736,956.0378,309.4738Z"/><path class="cls-4" d="M921.3816,313.7578a13.6528,13.6528,0,0,1-8.7867-3.0134c-4.5589-3.6884-7-10.4807-6.6979-18.6353a46.9251,46.9251,0,0,1,9.069-25.1514c7.3315-10.2123,15.308-15.5656,23.7083-15.9111a24.6359,24.6359,0,0,1,14.5119,4.4574,29.4976,29.4976,0,0,1,5.6208,4.8215.7841.7841,0,1,1-1.1945,1.016c-.0993-.1159-7.9856-9.1832-18.8872-8.7274-7.8886.33-15.4538,5.4637-22.4855,15.2582a45.3457,45.3457,0,0,0-8.7758,24.295c-.2838,7.6563,1.9459,13.9831,6.1173,17.3581,3.6111,2.9214,8.4711,3.4449,14.0553,1.5134,6.614-2.2879,13.9264-7.8025,21.7337-16.3907a.7842.7842,0,0,1,1.1606,1.0549c-7.9862,8.7849-15.5165,14.4431-22.3817,16.8178A20.6948,20.6948,0,0,1,921.3816,313.7578Z"/><path class="cls-4" d="M953.9253,455.2481a10.0087,10.0087,0,0,1-2.35-.2622c-3.1746-.77-5.121-3.1541-4.8431-5.9326.6521-6.52,5.13-34.205,7.0244-45.8054a.7841.7841,0,1,1,1.5477.2527c-1.8924,11.586-6.3639,39.2326-7.0116,45.7087-.2,1.9969,1.2338,3.6661,3.6522,4.2525,4.16,1.0092,9.8841-1.3591,15.3151-6.333,7.4965-6.8653,14.6894-18.6745,20.8011-34.1509a.7841.7841,0,0,1,1.4586.5761c-6.287,15.9205-13.42,27.6059-21.2006,34.7312C962.0084,454.0646,956.9815,455.2479,953.9253,455.2481Z"/><path class="cls-4" d="M922.71,460.1305a12.3985,12.3985,0,0,1-8.0974-2.8367c-4.046-3.3527-6.1885-9.3875-5.8781-16.5568a39.9691,39.9691,0,0,1,8.2806-21.9488c6.7713-8.9793,13.9116-13.6977,21.2231-14.0246,8.858-.3942,14.5941,5.823,14.8339,6.088a.7842.7842,0,0,1-1.1626,1.0526c-.0664-.0729-5.5138-5.9431-13.6217-5.5729-6.8151.313-13.551,4.8218-20.0206,13.4012a38.39,38.39,0,0,0-7.966,21.0724c-.289,6.6746,1.6473,12.2446,5.3121,15.2814,3.1967,2.6488,7.502,3.1775,12.45,1.5293,5.89-1.9621,12.3774-6.8086,19.2833-14.4052a.7841.7841,0,1,1,1.16,1.0548c-7.0889,7.7979-13.8,12.79-19.9481,14.8382A18.4892,18.4892,0,0,1,922.71,460.1305Z"/><path class="cls-4" d="M1105.5085,435.0234a9.0745,9.0745,0,0,1-2.5893-.3645,7.2667,7.2667,0,0,1-5.3249-7.5608c.6651-6.65,5.2534-34.9793,7.1952-46.85a.7841.7841,0,0,1,1.5477.2533c-1.9395,11.8566-6.5218,40.1468-7.1823,46.7532a5.6287,5.6287,0,0,0,4.21,5.9012c3.185.9434,7.2407-.3433,11.42-3.625,5.5479-4.356,11.1233-11.9143,16.5715-22.4646a.7841.7841,0,1,1,1.3934.7194c-5.5521,10.7516-11.27,18.4829-16.9964,22.9787C1112.1882,433.5636,1108.6415,435.0232,1105.5085,435.0234Z"/><path class="cls-4" d="M1073.5726,438.1755a12.399,12.399,0,0,1-8.0976-2.8366c-4.046-3.3529-6.1885-9.3875-5.8781-16.5569a39.97,39.97,0,0,1,8.2807-21.9488c6.7713-8.9792,13.9117-13.6977,21.2231-14.0244,8.8567-.3983,14.5941,5.8228,14.8339,6.0878a.7841.7841,0,0,1-1.1622,1.0529h0c-.0542-.06-5.5082-5.94-13.6221-5.5732-6.8151.3132-13.551,4.8218-20.0206,13.4012a38.39,38.39,0,0,0-7.9659,21.0724c-.2892,6.6746,1.6471,12.2445,5.3119,15.2814,3.1966,2.649,7.5016,3.1778,12.45,1.5293,5.89-1.962,12.3776-6.8086,19.2835-14.4052a.7841.7841,0,1,1,1.16,1.0549c-7.0889,7.7978-13.8005,12.79-19.9482,14.8382A18.4924,18.4924,0,0,1,1073.5726,438.1755Z"/><path class="cls-4" d="M1097.23,287.6724a4.072,4.072,0,0,1-2.0721-.51c-2.2543-1.2979-2.7838-4.87-1.6186-10.9187,1.8327-9.5142,7.424-37.48,9.7428-49.062a.7841.7841,0,1,1,1.5376.3078c-2.3183,11.58-7.9087,39.5417-9.74,49.0507-.9945,5.1631-.6968,8.3662.861,9.2632,1.796,1.0343,5.61-.5068,11.3374-4.5784,5.33-3.7895,11.5439-9.1981,17.5529-14.4285,1.8116-1.577,3.5227-3.0664,5.2175-4.5193a.7841.7841,0,1,1,1.0206,1.1906c-1.69,1.4491-3.3992,2.9366-5.2085,4.5114-6.0377,5.2555-12.2809,10.69-17.6738,14.524C1103.2951,285.9807,1099.7312,287.6721,1097.23,287.6724Z"/><path class="cls-4" d="M1063.3777,292.8157a11.5953,11.5953,0,0,1-3.6806-.5633c-3.9773-1.3236-6.6364-4.9823-7.69-10.5805-1.2319-6.5463-.248-15.4275,2.7-24.3662,2.9669-8.9969,7.4042-16.43,12.1742-20.3933a28.3553,28.3553,0,0,1,12.7508-6.185,29.974,29.974,0,0,1,11.5432.0848,35.4689,35.4689,0,0,1,11.5835,4.4294.7841.7841,0,0,1-.8561,1.314,34.5635,34.5635,0,0,0-11.0818-4.2148,28.3986,28.3986,0,0,0-10.92-.068,26.8115,26.8115,0,0,0-12.0173,5.8458c-4.55,3.7805-8.81,10.9528-11.6871,19.6783-2.8672,8.6947-3.8323,17.2912-2.6479,23.5849.9554,5.0767,3.1907,8.2334,6.644,9.3826,4.9179,1.6372,14.8228-.1173,34.07-17.7716a.7841.7841,0,1,1,1.06,1.1557c-8.2319,7.5506-15.5153,12.8823-21.6476,15.8473A24.2958,24.2958,0,0,1,1063.3777,292.8157Z"/><path class="cls-4" d="M1126.8972,285.1588a.7854.7854,0,0,1-.7736-.9179l10.7058-61.965a.7841.7841,0,1,1,1.5453.2671l-10.7058,61.965A.7844.7844,0,0,1,1126.8972,285.1588Z"/><path class="cls-4" d="M1181.0552,276.3405a5.9687,5.9687,0,0,1-3.0414-.7549c-2.8023-1.6158-3.9269-5.5969-3.5392-12.529.3254-5.82,1.6786-12.9713,2.9871-19.8873,2.0934-11.0641,4.258-22.5048,1.4393-25.5811a2.5831,2.5831,0,0,0-2.3165-.746c-7.55.755-17.1725,5.4856-27.8281,13.68a142.454,142.454,0,0,0-14.0263,12.35.7841.7841,0,1,1-1.1287-1.0886A144.2243,144.2243,0,0,1,1147.8,229.2794c11.0432-8.4929,20.6751-13.2023,28.6283-13.9978a4.1043,4.1043,0,0,1,3.6285,1.2473c3.35,3.6553,1.3087,14.442-1.0546,26.9318-2.47,13.0527-5.2686,27.8467-.2053,30.7664,3.8034,2.1927,12.1353-2.2182,24.7657-13.1109a.7841.7841,0,1,1,1.0242,1.1875C1193.61,271.7709,1185.985,276.34,1181.0552,276.3405Z"/><path class="cls-4" d="M984.9644,456.3866c-.0245,0-.049-.0011-.074-.0034a.7842.7842,0,0,1-.7077-.8538l5.5276-59.1189a.7842.7842,0,1,1,1.5615.1461l-5.5276,59.1189A.7842.7842,0,0,1,984.9644,456.3866Z"/><path class="cls-4" d="M1031.4655,445.3567a4.1414,4.1414,0,0,1-1.9985-.464c-3.9314-2.1183-2.5165-10.3488-.725-20.7689,1.0433-6.0691,2.1222-12.3446,2.2135-17.9457.1015-6.2377-1.0819-10.43-3.6175-12.8168a6.2163,6.2163,0,0,0-5.3054-1.6737c-12.8637,1.5628-32.8152,32.2133-33.0152,32.5226a.7841.7841,0,1,1-1.317-.8512A181.6674,181.6674,0,0,1,999.53,407.4528c9.053-10.7948,16.56-16.6229,22.3132-17.322a7.7991,7.7991,0,0,1,6.57,2.0886c6.374,5.999,3.9836,19.903,1.8748,32.17a109.73,109.73,0,0,0-1.7389,12.8031c-.1415,3.5734.4022,5.64,1.6622,6.3194,1.555.8372,4.5371-.1575,8.864-2.9581,5.051-3.2694,11.87-8.9457,20.8477-17.3532a.7841.7841,0,1,1,1.0721,1.1446C1045.55,438.81,1036.4081,445.3561,1031.4655,445.3567Z"/><path class="cls-4" d="M620.6346,487.9483a.7857.7857,0,0,1-.7759-.9036l8.4014-54.6091a.7841.7841,0,0,1,1.55.2386l-8.4014,54.6091A.7845.7845,0,0,1,620.6346,487.9483Z"/><path class="cls-4" d="M652.4564,522.1663a56.8788,56.8788,0,0,1-6.8509-.4235,70.2955,70.2955,0,0,1-26.1883-8.8663,66.2381,66.2381,0,0,0-22.91-8.291,58.08,58.08,0,0,0-16.7727-.264.7841.7841,0,0,1-.2074-1.5545,59.6475,59.6475,0,0,1,17.2255.2695,67.7971,67.7971,0,0,1,23.4517,8.4837,68.6916,68.6916,0,0,0,25.59,8.6659c9.78,1.1867,18.7428-.2016,25.9175-4.0154a34.0043,34.0043,0,0,0,13.7008-13.5463c3.7654-6.6336,6.0169-15.0386,6.6915-24.9818.9026-13.3059-2.0372-22.243-8.7383-26.563-4.03-2.5979-11.73-4.8717-25.5287-.9523a84.8523,84.8523,0,0,0-15.099,5.9748.7841.7841,0,0,1-.87-1.2961,200.1182,200.1182,0,0,0,19.376-18.74c8.5018-9.5216,18.1893-22.8609,16.06-32.3366-1.1466-5.1034-5.7072-8.6919-13.5551-10.6659-14.0144-3.5242-27.2737-1.1685-39.4093,7.0029-9.8633,6.6414-16.7615,15.6-20.8114,21.9459a.7841.7841,0,1,1-1.322-.8435c7.4738-11.7109,28.4673-38.0412,61.9253-29.626,8.4692,2.13,13.4159,6.1147,14.7028,11.8434,1.0155,4.5206-.2823,10.1251-3.8574,16.6573a95.4166,95.4166,0,0,1-12.5759,17.0807,199.5973,199.5973,0,0,1-15.2477,15.1692,85.7959,85.7959,0,0,1,10.2253-3.6665,52.0549,52.0549,0,0,1,13.7634-2.1879c.0677,0,.136-.0006.2035-.0006a23.3981,23.3981,0,0,1,12.8672,3.3216c7.2183,4.6522,10.3995,14.0689,9.455,27.9887-.6907,10.18-3.01,18.81-6.8921,25.65a35.55,35.55,0,0,1-14.3285,14.1568A42.4117,42.4117,0,0,1,652.4564,522.1663Z"/><path class="cls-4" d="M729.2734,492.3252a23.2435,23.2435,0,0,1-3.597-.2639c-7.5806-1.1888-11.8735-6.32-12.4144-14.84-.59-9.2953,1.1423-17.5618,5.1493-24.57a36.8687,36.8687,0,0,1,14.2648-14.0045c8.6847-4.7734,18.6483-5.5743,23.6914-1.9041a7.5271,7.5271,0,0,1,2.9118,7.9228c-2.4916,12.9565-15.66,19.2876-23.2874,21.9085a.7841.7841,0,0,1-.51-1.4831c7.307-2.5106,19.9148-8.5411,22.257-20.7215a5.96,5.96,0,0,0-2.2946-6.3588c-2.1119-1.5371-5.4227-2.224-9.3211-1.9339a32.0274,32.0274,0,0,0-12.6921,3.9445A35.3014,35.3014,0,0,0,719.7727,453.43c-3.8521,6.737-5.516,14.7082-4.9456,23.6921.4958,7.808,4.2277,12.313,11.0924,13.39,8.93,1.4015,22.8731-3.1573,37.2987-12.1921,13.6313-8.5371,24.4486-19.1651,27.5584-27.076a.7841.7841,0,1,1,1.4595.5737c-1.647,4.19-5.2671,9.0753-10.4688,14.1282a108.2207,108.2207,0,0,1-17.7167,13.7033C751.1021,487.7588,738.4553,492.3251,729.2734,492.3252Z"/><path class="cls-4" d="M787.381,485.145a.785.785,0,0,1-.7788-.8833l6.94-54.4527a.7841.7841,0,1,1,1.5557.1982l-6.94,54.4526A.7844.7844,0,0,1,787.381,485.145Z"/><path class="cls-4" d="M830.4119,479.2547a5.77,5.77,0,0,1-3.2751-.9629c-2.132-1.4214-2.985-4.6425-2.6844-10.1372a142.1592,142.1592,0,0,1,2.3365-16.1678c1.9734-10.9276,4.21-23.3131.57-27.3669a4.7245,4.7245,0,0,0-4.1221-1.4c-4.864.3474-12.5281,2.726-21.4176,12.0847a69.8143,69.8143,0,0,0-8.695,11.2907.7841.7841,0,0,1-1.3535-.7922,70.011,70.011,0,0,1,8.8881-11.554,50.2562,50.2562,0,0,1,9.8983-8.2366,27.7784,27.7784,0,0,1,12.5679-4.3569,6.2723,6.2723,0,0,1,5.4008,1.9166c4.1532,4.625,1.9434,16.8607-.1935,28.6935-1.9763,10.9431-4.02,22.2586-.3254,24.7215,3.4861,2.324,9.7779-1.1583,18.1958-10.0689a150.8119,150.8119,0,0,0,12.0917-14.82.7841.7841,0,1,1,1.2846.8993,152.53,152.53,0,0,1-12.2261,14.987C840.2711,475.4825,834.5944,479.2542,830.4119,479.2547Z"/><path class="cls-4" d="M874.34,471.1118a14.3211,14.3211,0,0,1-2.7166-.2541c-5.7255-1.1039-10.165-5.9072-12.5-13.5256a47.3451,47.3451,0,0,1-1.17-20.415c1.1377-7.3017,3.7472-13.3057,7.3479-16.9062,5.819-5.8192,11.4619-8.7694,16.7729-8.7694h.0515a14.9131,14.9131,0,0,1,10.143,4.2478.7841.7841,0,0,1-1.0724,1.1443A13.3715,13.3715,0,0,0,882.12,412.81l-.0458,0c-4.88,0-10.15,2.7956-15.6641,8.31-3.3673,3.3673-5.82,9.0633-6.9071,16.0387a45.7278,45.7278,0,0,0,1.12,19.7141,22.571,22.571,0,0,0,4.3286,8.2829,12.2,12.2,0,0,0,6.97,4.1624c6.4717,1.2466,18.11-2.1335,36.8047-25.3287a.7841.7841,0,1,1,1.2209.9841c-8.0109,9.9395-15.473,17.15-22.1792,21.432C882.8643,469.5354,878.3618,471.1116,874.34,471.1118Z"/><path class="cls-1" d="M573.5089,564.2132A24.8617,24.8617,0,0,1,571.77,570.84a1.9678,1.9678,0,0,1-1.4256,1.0459,1.3128,1.3128,0,0,1-.5062-.0251,1.0883,1.0883,0,0,1-.57-1.6667,22.1857,22.1857,0,0,0,1.4145-5.5956,1.9294,1.9294,0,0,1,1.5869-1.5607h0A1.0217,1.0217,0,0,1,573.5089,564.2132Zm6.3125-.8617a24.8592,24.8592,0,0,1-1.74,6.6271,1.9666,1.9666,0,0,1-1.4253,1.0457,1.3119,1.3119,0,0,1-.5061-.0251,1.0882,1.0882,0,0,1-.57-1.6667,22.1728,22.1728,0,0,0,1.4145-5.5956,1.9288,1.9288,0,0,1,1.5865-1.5606h.0006A1.0219,1.0219,0,0,1,579.8214,563.3515Z"/><path class="cls-1" d="M609.0011,579.2879c-2.4084,5.918-6.6795,10.0213-10.8895,10.5961a7.4,7.4,0,0,1-1.0794.0689c-4.4485-.0447-7.29-3.33-7.7954-9.0121a29.6028,29.6028,0,0,1,2.1237-12.8769q.09-.23.1831-.456c-3.4432-.6333-6.4021-2.0145-7.8128-4.1824a1.7733,1.7733,0,0,1,.6923-2.2531,1.5292,1.5292,0,0,1,2.2181.0908c1.0329,1.5871,3.4685,2.7068,6.3812,3.2424a20.7848,20.7848,0,0,1,6.1556-7.1788c3.237-2.225,7.1271-2.9817,9.6812-1.8828a3.6949,3.6949,0,0,1,2.2956,4.0991c-.37,2.91-2.5442,5.3459-6.1236,6.8581a24.3353,24.3353,0,0,1-10.4334,1.5678,26.131,26.131,0,0,0-2.086,11.8967c.2277,2.5583,1.2324,6.8562,5.4047,6.8982,2.8369.0284,6.1512-3.228,8.06-7.92,2.8278-6.9492,1.3164-11.5793,1.3-11.6253a1.9782,1.9782,0,0,1,1.1149-2.1913,1.3562,1.3562,0,0,1,2.0385.5314C610.5081,565.7866,612.2837,571.2217,609.0011,579.2879Zm-12.8536-14.4421a19.95,19.95,0,0,0,8.2949-1.3265c3.1727-1.34,3.382-2.9891,3.4511-3.531a1.4039,1.4039,0,0,0-.9673-1.5672c-1.3452-.5783-3.962-.3007-6.3631,1.35A15.8364,15.8364,0,0,0,596.1475,564.8458Z"/><path class="cls-1" d="M627.0211,558.3966l-2.734,21.5346a2.2251,2.2251,0,0,1-1.831,1.8015,1.1789,1.1789,0,0,1-1.43-1.3563l1.1665-9.1883-5.3984.7369-1.1665,9.1884a2.2252,2.2252,0,0,1-1.8313,1.8015,1.1791,1.1791,0,0,1-1.43-1.3564L615.1,560.0239a2.2254,2.2254,0,0,1,1.831-1.8015,1.1792,1.1792,0,0,1,1.43,1.3563l-1.1665,9.1885,5.3983-.7369,1.1666-9.1885a2.225,2.225,0,0,1,1.831-1.8016A1.1791,1.1791,0,0,1,627.0211,558.3966Z"/><path class="cls-1" d="M632.1436,576.7678l-.0535.4211a2.0948,2.0948,0,0,1-.1207.4731,12.13,12.13,0,0,1-2.3267,3.6567.8769.8769,0,0,1-1.0322.2813.5425.5425,0,0,1-.2331-.5768l.44-1.8613a1.3947,1.3947,0,0,1-.6411-1.4388l.0536-.4211a2.67,2.67,0,0,1,2.1971-2.1618A1.4148,1.4148,0,0,1,632.1436,576.7678Z"/><path class="cls-1" d="M684.2026,544.6254a1.8344,1.8344,0,0,1-2.3226.5565c-7.1039-5.046-14.3713-1.5591-22.065,2.1328-1.1576.5555-2.326,1.1148-3.5014,1.6484L652.866,576.12a2.2248,2.2248,0,0,1-1.83,1.8009,1.1788,1.1788,0,0,1-1.43-1.3559l3.3231-26.1759a27.7421,27.7421,0,0,1-6.0869,1.6571c-8.2547,1.1268-11.5585-1.8611-11.695-1.9888a1.5747,1.5747,0,0,1,.2708-2.2305,1.7274,1.7274,0,0,1,2.2979-.3348c.1276.1125,2.7432,2.3235,9.5269,1.3974,3.7539-.5124,7.66-2.3866,11.7957-4.3708,7.8666-3.774,16.7829-8.0521,25.1946-2.0779A1.4738,1.4738,0,0,1,684.2026,544.6254Z"/><path class="cls-1" d="M668.0532,573.9427a2.2263,2.2263,0,0,1-1.832,1.8015l-6.4122.8754a1.1787,1.1787,0,0,1-1.43-1.3563l2.7337-21.5346a2.2251,2.2251,0,0,1,1.831-1.8015l6.4122-.8754a1.1794,1.1794,0,0,1,1.431,1.3563,2.2263,2.2263,0,0,1-1.832,1.8015l-4.7814.6527-.9125,7.1884,3.1341-.4278a1.1792,1.1792,0,0,1,1.43,1.3563,2.2255,2.2255,0,0,1-1.831,1.8015l-3.134.4278-1.02,8.0307,4.7814-.6527A1.18,1.18,0,0,1,668.0532,573.9427Z"/><path class="cls-1" d="M682.0485,573.4868a1.9986,1.9986,0,0,1-.6182.1951,1.1923,1.1923,0,0,1-1.3889-.7876l-2.2687-7.5142-1.8371.2507-.9365,7.3771a2.2257,2.2257,0,0,1-1.8307,1.8015,1.1794,1.1794,0,0,1-1.431-1.3561l2.734-21.5348a2.2262,2.2262,0,0,1,1.8316-1.8017l3.6234-.4945c3.4565-.4719,5.9229,1.8672,5.4981,5.2144l-.4567,3.5962a8.37,8.37,0,0,1-3.9018,5.7466l2.1538,7.1316A2.0047,2.0047,0,0,1,682.0485,573.4868Zm.115-18.2047a2.177,2.177,0,0,0-2.638-2.502l-1.9929.2719-1.196,9.421,1.9929-.272a4.11,4.11,0,0,0,3.3773-3.3229Z"/><path class="cls-1" d="M701.8,548.1879l-2.734,21.5348a2.2275,2.2275,0,0,1-1.52,1.731,1.9015,1.9015,0,0,1-.312.0706,1.1909,1.1909,0,0,1-1.3876-.7871l-3.9664-13.1223-1.691,13.3195a2.2253,2.2253,0,0,1-1.8307,1.8015,1.18,1.18,0,0,1-1.431-1.3563l2.734-21.5348a2.2291,2.2291,0,0,1,1.52-1.731,1.2593,1.2593,0,0,1,1.7.7165l3.9664,13.1223,1.691-13.3195a2.2251,2.2251,0,0,1,1.831-1.8015A1.1789,1.1789,0,0,1,701.8,548.1879Z"/><path class="cls-1" d="M717.16,546.6638,710.48,559.763l-1.0851,8.5478a2.2251,2.2251,0,0,1-1.8307,1.8014,1.1791,1.1791,0,0,1-1.43-1.3562l1.0851-8.5478-3.5318-11.7051a2.005,2.005,0,0,1,1.1716-2.1757,1.3358,1.3358,0,0,1,2.0064.5928l2.5646,8.4985,4.85-9.5107a2.11,2.11,0,0,1,2.23-1.1712A1.2569,1.2569,0,0,1,717.16,546.6638Z"/><path class="cls-1" d="M725.0614,567.67a1.2469,1.2469,0,0,1-1.8107-.9088l-.566-4.7351-4.8935.6681-1.8095,5.0594a2.264,2.264,0,0,1-1.74,1.4349,1.6144,1.6144,0,0,1-.369.009,1.1986,1.1986,0,0,1-.9739-1.7322l7.9553-22.2476a2.2668,2.2668,0,0,1,1.7426-1.4347,1.1761,1.1761,0,0,1,1.4329,1.0012l2.4879,20.8218A2.1254,2.1254,0,0,1,725.0614,567.67Zm-2.7416-8.6971-.8-6.7035-2.5614,7.1624Z"/><path class="cls-1" d="M740.7586,542.87a2.2255,2.2255,0,0,1-1.8311,1.8015l-2.9411.4015-2.5335,19.9558a2.2256,2.2256,0,0,1-1.8317,1.8015,1.1791,1.1791,0,0,1-1.43-1.3563l2.5335-19.9557-2.9412.4015a1.1788,1.1788,0,0,1-1.43-1.3563,2.2251,2.2251,0,0,1,1.831-1.8015l9.144-1.2483A1.179,1.179,0,0,1,740.7586,542.87Z"/><path class="cls-1" d="M749.3673,564.3522a1.247,1.247,0,0,1-1.8108-.9087l-.566-4.7352-4.8934.6681-1.8095,5.0593a2.264,2.264,0,0,1-1.74,1.435,1.6144,1.6144,0,0,1-.369.009,1.1987,1.1987,0,0,1-.974-1.7322L745.16,541.9a2.2674,2.2674,0,0,1,1.7427-1.4348,1.1759,1.1759,0,0,1,1.4329,1.0013l2.4885,20.8217A2.1262,2.1262,0,0,1,749.3673,564.3522Zm-2.741-8.6972-.801-6.7034-2.5614,7.1624Z"/><path class="cls-1" d="M797.006,562.8354a20.0194,20.0194,0,0,1-9.55,4.1744,13.81,13.81,0,0,1-4.4411-.0707,8.5,8.5,0,0,1-7.08-7.3092c-.0364-.2041-.2746-2.1569-.5926-4.8067l-4.8757.6657-1.8086,5.0574a2.197,2.197,0,0,1-2.1091,1.4438,1.1983,1.1983,0,0,1-.973-1.7317l7.9528-22.2393a2.2638,2.2638,0,0,1,1.7414-1.4343l.0013,0a1.1748,1.1748,0,0,1,1.4313,1.0034c.9422,8.0079,2.38,20.1412,2.4768,20.7448a6.2481,6.2481,0,0,0,5.2387,5.4692c3.3358.6385,7.73-.6514,10.9323-3.2092a1.5749,1.5749,0,0,1,2.2468-.0116A1.7237,1.7237,0,0,1,797.006,562.8354Zm-22.0279-11.0643c-.2607-2.19-.54-4.5506-.7928-6.682l-2.5532,7.1387Z"/><path class="cls-1" d="M797.2483,539.5576l-1.5935,12.552a8.5672,8.5672,0,0,1-7.04,6.9262l-4.0212.5489a1.18,1.18,0,0,1-1.4307-1.3563l2.7337-21.5347a2.227,2.227,0,0,1,1.8316-1.8016l4.0212-.5489C795.2063,533.8713,797.6734,536.2106,797.2483,539.5576Zm-3.2617.4453a2.1766,2.1766,0,0,0-2.6377-2.5017l-2.39.3263-2.333,18.3768,2.39-.3263a4.1106,4.1106,0,0,0,3.3772-3.3231Z"/><path class="cls-1" d="M809.1792,556.187a1.2473,1.2473,0,0,1-1.8114-.9087l-.5653-4.7351-4.8942.668L800.1,556.2706a2.266,2.266,0,0,1-1.7407,1.435,1.6128,1.6128,0,0,1-.369.009,1.1987,1.1987,0,0,1-.974-1.7322l7.956-22.2476a2.2659,2.2659,0,0,1,1.742-1.4348,1.1758,1.1758,0,0,1,1.4329,1.0012l2.4885,20.8219A2.1254,2.1254,0,0,1,809.1792,556.187Zm-2.7416-8.6971-.801-6.7035-2.5614,7.1625Z"/><path class="cls-1" d="M859.3546,522.3477a1.8626,1.8626,0,0,1-2.3232.6121c-2.455-1.6268-6.0834-1.8136-9.468-.4887a15.0756,15.0756,0,0,0-7.9306,7.4829l-6.6783,13.0945L831.87,551.593a2.2233,2.2233,0,0,1-1.83,1.8009,1.1787,1.1787,0,0,1-1.43-1.3559l1.0848-8.5444-3.53-11.701a2.0034,2.0034,0,0,1,1.1706-2.175,1.336,1.336,0,0,1,2.0059.5927l2.563,8.4954,4.8491-9.5072a19.9069,19.9069,0,0,1,10.3251-9.65c4.3785-1.7152,9.0711-1.4735,12.2463.63A1.4507,1.4507,0,0,1,859.3546,522.3477Z"/><path class="cls-1" d="M849.5528,550.6754a1.247,1.247,0,0,1-1.8108-.9087l-.566-4.7352-4.8934.6681-1.8089,5.0593a2.2658,2.2658,0,0,1-1.7407,1.435,1.6136,1.6136,0,0,1-.369.009,1.1986,1.1986,0,0,1-.974-1.7321l7.956-22.2477a2.2654,2.2654,0,0,1,1.742-1.4348,1.1759,1.1759,0,0,1,1.4329,1.0013l2.4885,20.8218A2.1252,2.1252,0,0,1,849.5528,550.6754Zm-2.741-8.6972-.801-6.7034-2.5614,7.1624Z"/><path class="cls-1" d="M867.7286,525.5363l-2.734,21.5348a2.2282,2.2282,0,0,1-1.5193,1.731,1.9025,1.9025,0,0,1-.3123.0706,1.1913,1.1913,0,0,1-1.3876-.7871l-3.9664-13.1223-1.691,13.3194a2.2255,2.2255,0,0,1-1.8311,1.8015,1.1791,1.1791,0,0,1-1.4306-1.3561l2.734-21.5348a2.23,2.23,0,0,1,1.5193-1.731,1.26,1.26,0,0,1,1.7006.7163l3.9664,13.1224,1.691-13.32a2.2249,2.2249,0,0,1,1.831-1.8015A1.1789,1.1789,0,0,1,867.7286,525.5363Z"/><path class="cls-1" d="M879.14,528.6709l.095-.75a1.8386,1.8386,0,0,0-2.2281-2.1137,3.4726,3.4726,0,0,0-2.8535,2.8074l-1.7081,13.4558a1.8389,1.8389,0,0,0,2.2285,2.1138,3.472,3.472,0,0,0,2.8531-2.8075l.446-3.513-.9717.1326a1.1792,1.1792,0,0,1-1.43-1.3563,2.2261,2.2261,0,0,1,1.831-1.8015l2.6029-.3553a1.1789,1.1789,0,0,1,1.43,1.3563l-.6465,5.0919a7.93,7.93,0,0,1-6.5158,6.4106c-3.2.4368-5.4832-1.7283-5.09-4.8262l1.7081-13.4558a7.93,7.93,0,0,1,6.5164-6.4106c3.2-.4367,5.4826,1.7283,5.0892,4.8262l-.095.75a2.2248,2.2248,0,0,1-1.831,1.8014A1.1791,1.1791,0,0,1,879.14,528.6709Z"/><path class="cls-1" d="M930.7234,511.8707l-3.4321,27.031a2.2246,2.2246,0,0,1-1.8307,1.8015,1.18,1.18,0,0,1-1.431-1.3562l2.6688-21.0187c-1.9447,2.9507-4.2151,6.3846-5.672,8.5446l-.0006.0018-.0159.0229c-.0082.0126-.0177.0244-.0266.0369-.0241.0332-.0469.0662-.0722.0984-.0146.0178-.0291.0345-.0437.0516-.0228.028-.0463.0559-.0716.0829-.0171.02-.0355.0382-.0551.0571-.0228.023-.0443.046-.0684.0682-.0222.0209-.0456.0408-.0684.0609-.0216.0185-.0431.0371-.0646.0549-.0273.0219-.0558.0423-.083.0628-.02.0145-.0393.0293-.0589.0434-.0323.0218-.0646.042-.097.062-.0152.0091-.0291.0193-.0443.0282l-.0108.006c-.0329.0186-.0652.0354-.0988.0523-.02.0105-.04.022-.0608.0317-.0253.012-.0507.0223-.0766.0332-.0286.0122-.0558.0251-.0843.0357l-.03.01a1.9151,1.9151,0,0,1-.4022.0988,1.5374,1.5374,0,0,1-.4852-.0094l-.0083-.0009c-.0285-.0053-.0551-.0133-.083-.0206-.02-.0053-.0411-.01-.0614-.016-.0184-.006-.0361-.0137-.0551-.02-.0279-.01-.0558-.02-.0824-.0321l-.01-.0037c-.0126-.0059-.024-.0133-.0361-.02-.0279-.0138-.0545-.0277-.0811-.0434-.0164-.01-.03-.0205-.0462-.0312-.0228-.0154-.045-.0308-.0665-.048-.0171-.0131-.0317-.0273-.0469-.0412a.7313.7313,0,0,1-.0538-.05c-.0165-.0168-.0317-.0349-.0476-.0527-.0133-.0166-.0272-.0327-.04-.05-.0158-.0216-.03-.0441-.0443-.0665-.0108-.0161-.0209-.0316-.03-.0484-.0146-.0258-.0273-.0527-.04-.08a.4044.4044,0,0,1-.0184-.0374l-2.6434-6.2683c-.0089-.02-.0172-.04-.0241-.06a6.5363,6.5363,0,0,0-.4472-.9929l-2.221,17.4914c-.6036,4.7547-2.4692,8.1065-6.44,11.5688a2.1507,2.1507,0,0,1-1.1067.5229,1.2728,1.2728,0,0,1-1.1694-.3841,1.6632,1.6632,0,0,1,.4631-2.2507c3.1546-2.7505,4.5077-5.193,4.9923-9.0117l2.5706-20.246a7.3269,7.3269,0,0,0-4.9486.6746c-2.8835,1.3838-5.4725,4.3545-4.7554,7.8714.4707,2.31,2.8968,3.1807,3.918,3.4477a1.257,1.257,0,0,1,.6524,1.9261,2.2711,2.2711,0,0,1-1.6425,1.2026,1.51,1.51,0,0,1-.5873-.03c-1.4354-.3749-4.85-1.6309-5.5738-5.1818-1.0933-5.3648,2.9716-9.998,7.2113-12.0329,4.47-2.1451,10.1943-1.9,12.2144,3.6987l1.6058,3.8079c3.17-4.7658,7.492-11.3606,7.5445-11.4408a2.1441,2.1441,0,0,1,1.93-1.0047A1.148,1.148,0,0,1,930.7234,511.8707Z"/><path class="cls-1" d="M940.6827,536.7247a2.225,2.225,0,0,1-1.8314,1.8016l-6.4119.8753a1.1794,1.1794,0,0,1-1.4309-1.3561l2.734-21.5347a2.2264,2.2264,0,0,1,1.8319-1.8016l6.4119-.8753a1.1789,1.1789,0,0,1,1.43,1.3562,2.2261,2.2261,0,0,1-1.8314,1.8016l-4.7813.6527-.9128,7.1884,3.1337-.4279a1.179,1.179,0,0,1,1.43,1.3563,2.2253,2.2253,0,0,1-1.8313,1.8015l-3.1337.4278-1.0193,8.0307,4.7814-.6527A1.179,1.179,0,0,1,940.6827,536.7247Z"/><path class="cls-1" d="M959.2392,513.0437l-2.7333,21.5348a2.2288,2.2288,0,0,1-1.52,1.731,1.9025,1.9025,0,0,1-.3123.0706,1.1916,1.1916,0,0,1-1.3879-.7871L949.32,522.4707l-1.6907,13.32a2.2263,2.2263,0,0,1-1.8314,1.8015,1.179,1.179,0,0,1-1.43-1.3563l2.7334-21.5348a2.2312,2.2312,0,0,1,1.52-1.731,1.2593,1.2593,0,0,1,1.7.7165l3.9661,13.1223,1.6907-13.32a2.2256,2.2256,0,0,1,1.8313-1.8015A1.1786,1.1786,0,0,1,959.2392,513.0437Z"/><path class="cls-1" d="M970.651,516.1783l.0957-.75a1.8389,1.8389,0,0,0-2.2285-2.1137,3.4724,3.4724,0,0,0-2.8531,2.8075l-1.7085,13.4558a1.8388,1.8388,0,0,0,2.2285,2.1137,3.472,3.472,0,0,0,2.8531-2.8075l.446-3.513-.9717.1326a1.1789,1.1789,0,0,1-1.43-1.3562,2.2252,2.2252,0,0,1,1.8307-1.8016l2.6029-.3553a1.18,1.18,0,0,1,1.431,1.3563l-.6468,5.092a7.93,7.93,0,0,1-6.5164,6.4105c-3.2.4368-5.4832-1.7283-5.09-4.8263l1.7084-13.4558a7.93,7.93,0,0,1,6.5164-6.4105c3.2-.4367,5.4833,1.7283,5.09,4.8263l-.0957.75a2.2248,2.2248,0,0,1-1.8313,1.8015A1.18,1.18,0,0,1,970.651,516.1783Z"/><path class="cls-1" d="M985.9516,514.09l.0957-.75a1.8388,1.8388,0,0,0-2.2286-2.1136,3.4723,3.4723,0,0,0-2.8531,2.8074l-1.7084,13.4558a1.8389,1.8389,0,0,0,2.2285,2.1138,3.4723,3.4723,0,0,0,2.8531-2.8076l.446-3.513-.9718.1327a1.1789,1.1789,0,0,1-1.43-1.3563,2.2249,2.2249,0,0,1,1.8307-1.8015l2.6029-.3553a1.1785,1.1785,0,0,1,1.43,1.3563l-.6461,5.0919a7.93,7.93,0,0,1-6.5158,6.4106c-3.2.4368-5.4832-1.7284-5.09-4.8263l1.7084-13.4558a7.93,7.93,0,0,1,6.5164-6.4105c3.2-.4367,5.4826,1.7283,5.0892,4.8262l-.0956.75a2.2239,2.2239,0,0,1-1.8307,1.8014A1.18,1.18,0,0,1,985.9516,514.09Z"/><path class="cls-1" d="M1000.4572,528.5646a2.2258,2.2258,0,0,1-1.8313,1.8017l-6.4125.8752a1.18,1.18,0,0,1-1.431-1.3561l2.734-21.5346a2.2271,2.2271,0,0,1,1.832-1.8017l6.4125-.8753a1.1791,1.1791,0,0,1,1.43,1.3562,2.2266,2.2266,0,0,1-1.8313,1.8016l-4.7814.6527-.9128,7.1884,3.1337-.4278a1.179,1.179,0,0,1,1.43,1.3563,2.2257,2.2257,0,0,1-1.8313,1.8015l-3.1338.4278-1.0192,8.0307,4.7814-.6527A1.1791,1.1791,0,0,1,1000.4572,528.5646Z"/><path class="cls-1" d="M1019.0138,504.8837l-2.7334,21.5348a2.2285,2.2285,0,0,1-1.52,1.731,1.8954,1.8954,0,0,1-.3117.0705,1.1913,1.1913,0,0,1-1.3879-.7871l-3.9661-13.1222-1.6907,13.3194a2.2262,2.2262,0,0,1-1.8313,1.8015,1.179,1.179,0,0,1-1.43-1.3562l2.7334-21.5348a2.2312,2.2312,0,0,1,1.52-1.731,1.26,1.26,0,0,1,1.7008.7164l3.9661,13.1223,1.6907-13.3195a2.2258,2.2258,0,0,1,1.8314-1.8014A1.1786,1.1786,0,0,1,1019.0138,504.8837Z"/><path class="cls-1" d="M1034.1788,502.8136a2.2242,2.2242,0,0,1-1.8307,1.8015l-2.9411.4014-2.5332,19.9558a2.2265,2.2265,0,0,1-1.832,1.8016,1.1788,1.1788,0,0,1-1.43-1.3563l2.5332-19.9557-2.9412.4015a1.1793,1.1793,0,0,1-1.43-1.3563,2.2255,2.2255,0,0,1,1.8313-1.8015l9.144-1.2483A1.1786,1.1786,0,0,1,1034.1788,502.8136Z"/><path class="cls-1" d="M1042.7875,524.2961a1.2469,1.2469,0,0,1-1.81-.9088l-.5657-4.7351-4.8934.668-1.81,5.0594a2.2643,2.2643,0,0,1-1.7408,1.4349,1.6,1.6,0,0,1-.368.009,1.1985,1.1985,0,0,1-.9743-1.7321l7.9556-22.2477a2.2671,2.2671,0,0,1,1.7427-1.4347,1.1762,1.1762,0,0,1,1.4329,1.0012l2.4876,20.8218A2.126,2.126,0,0,1,1042.7875,524.2961Zm-2.7409-8.6972-.8007-6.7034-2.5611,7.1623Z"/><path class="cls-1" d="M1058.68,500.0413,1052,513.1406l-1.0852,8.5477a2.2249,2.2249,0,0,1-1.8307,1.8015,1.179,1.179,0,0,1-1.43-1.3563l1.0851-8.5478-3.5322-11.705a2.0041,2.0041,0,0,1,1.1719-2.1757,1.3357,1.3357,0,0,1,2.0062.5927l2.5642,8.4985,4.85-9.5107a2.1111,2.1111,0,0,1,2.23-1.1711A1.257,1.257,0,0,1,1058.68,500.0413Z"/><path class="cls-1" d="M1066.5816,521.0478a1.2474,1.2474,0,0,1-1.8111-.9087l-.565-4.7352-4.8942.6681-1.8091,5.0594a2.2665,2.2665,0,0,1-1.7408,1.435,1.6051,1.6051,0,0,1-.368.0089,1.1985,1.1985,0,0,1-.9749-1.7322l7.9563-22.2476a2.2659,2.2659,0,0,1,1.7426-1.4347,1.1753,1.1753,0,0,1,1.4323,1.0012l2.4882,20.8218A2.1258,2.1258,0,0,1,1066.5816,521.0478Zm-2.741-8.6971-.8007-6.7035-2.5617,7.1625Z"/><path class="cls-1" d="M1084.7568,495.9087l-2.7334,21.5348a2.2275,2.2275,0,0,1-1.52,1.731,1.9053,1.9053,0,0,1-.3123.0707,1.1918,1.1918,0,0,1-1.388-.7871l-3.966-13.1224-1.6908,13.32a2.2261,2.2261,0,0,1-1.8313,1.8015,1.1789,1.1789,0,0,1-1.43-1.3562l2.7333-21.5348a2.231,2.231,0,0,1,1.52-1.731,1.2591,1.2591,0,0,1,1.7.7164l3.966,13.1223,1.6908-13.3194a2.2257,2.2257,0,0,1,1.8313-1.8016A1.1786,1.1786,0,0,1,1084.7568,495.9087Z"/><path class="cls-1" d="M1096.1686,499.0433l.0956-.75a1.8386,1.8386,0,0,0-2.2278-2.1137,3.4722,3.4722,0,0,0-2.8538,2.8074l-1.7084,13.4558a1.8391,1.8391,0,0,0,2.2291,2.1138,3.4723,3.4723,0,0,0,2.8525-2.8075l.446-3.513-.9711.1326a1.1794,1.1794,0,0,1-1.43-1.3563,2.2256,2.2256,0,0,1,1.8313-1.8015l2.6029-.3554a1.1794,1.1794,0,0,1,1.43,1.3563l-.6468,5.0919a7.93,7.93,0,0,1-6.5158,6.4107c-3.2.4367-5.4832-1.7284-5.09-4.8263l1.7084-13.4558a7.93,7.93,0,0,1,6.5164-6.4105c3.199-.4368,5.4826,1.7282,5.0893,4.8261l-.0957.75A2.2248,2.2248,0,0,1,1097.6,500.4,1.18,1.18,0,0,1,1096.1686,499.0433Z"/><path class="cls-1" d="M1106.9938,492.8733l-2.7334,21.5346a2.2262,2.2262,0,0,1-1.8313,1.8015,1.179,1.179,0,0,1-1.43-1.3562l2.7334-21.5346a2.2268,2.2268,0,0,1,1.832-1.8017A1.1789,1.1789,0,0,1,1106.9938,492.8733Z"/><path class="cls-1" d="M1126.25,490.2446l-2.7334,21.5348a2.2255,2.2255,0,0,1-1.8313,1.8014,1.1786,1.1786,0,0,1-1.43-1.3563l1.9757-15.5638-3.7735,5.7065a2.2588,2.2588,0,0,1-1.519.9922,1.2161,1.2161,0,0,1-1.3157-.6052l-2.4319-4.8592-1.9757,15.5637a2.2267,2.2267,0,0,1-1.832,1.8015,1.1788,1.1788,0,0,1-1.43-1.3563l2.7334-21.5348a2.2241,2.2241,0,0,1,1.4075-1.692,1.326,1.326,0,0,1,1.74.4955l3.71,7.4134,5.7569-8.7058a2.1368,2.1368,0,0,1,1.9282-.9964A1.1471,1.1471,0,0,1,1126.25,490.2446Z"/><path class="cls-1" d="M1141.5509,488.1441l-2.2221,17.5031a7.9313,7.9313,0,0,1-6.5177,6.4126c-3.2.4369-5.4845-1.7288-5.0911-4.8278l2.2221-17.5032a2.2248,2.2248,0,0,1,1.8307-1.8013,1.179,1.179,0,0,1,1.43,1.3562l-2.2222,17.5031a1.84,1.84,0,0,0,2.23,2.1154,3.4758,3.4758,0,0,0,2.8563-2.81l2.2222-17.5032a2.2253,2.2253,0,0,1,1.8307-1.8014A1.1789,1.1789,0,0,1,1141.5509,488.1441Z"/><path class="cls-1" d="M1149.0758,485.64a24.8166,24.8166,0,0,1-1.74,6.6272,1.9666,1.9666,0,0,1-1.4253,1.0459,1.31,1.31,0,0,1-.5061-.0252,1.0884,1.0884,0,0,1-.5707-1.6666,22.1649,22.1649,0,0,0,1.4151-5.5956,1.9293,1.9293,0,0,1,1.5868-1.5608A1.0217,1.0217,0,0,1,1149.0758,485.64Zm6.3124-.8616a24.8414,24.8414,0,0,1-1.7394,6.627,1.9673,1.9673,0,0,1-1.4247,1.0458,1.3192,1.3192,0,0,1-.5074-.0251,1.0882,1.0882,0,0,1-.5695-1.6667,22.2131,22.2131,0,0,0,1.4145-5.5957,1.9276,1.9276,0,0,1,1.5869-1.56h.0006A1.0218,1.0218,0,0,1,1155.3882,484.7783Z"/></svg>