<?xml version="1.0" encoding="utf-8"?>
<!-- Generator: Adobe Illustrator 22.1.0, SVG Export Plug-In . SVG Version: 6.00 Build 0)  -->
<svg version="1.1" id="Layer_1" xmlns="http://www.w3.org/2000/svg" xmlns:xlink="http://www.w3.org/1999/xlink" x="0px" y="0px"
	 viewBox="0 0 1920 1150" style="enable-background:new 0 0 1920 1150;" xml:space="preserve">
<style type="text/css">
	.st0{fill:#337B8D;}
	.st1{fill:#FF4F40;}
	.st2{fill:#FFDA8F;}
	.st3{fill:#FBB09B;}
</style>
<g>
	<g>
		<path class="st0" d="M791.7,359.3l11.2-1.8c0,0-7.4,44.9,2.8,34.4c10.2-10.5,7.7-35.8,7.7-35.8l12.6-2c0,0-0.2,49.6-18.6,51.8
			C786.1,408.6,787.9,391.6,791.7,359.3z"/>
		<polygon class="st0" points="874.1,346.3 859.7,347.7 844.2,367.4 845.7,350.5 835.2,351.9 829,401.2 841.2,399.6 842.4,385.8 
			846.7,380.6 856.2,397.9 868.9,396.1 853.8,371.6 		"/>
		<path class="st0" d="M901.8,391l13.3-2.1l-13.7-46.2l-10.3,1.4l-17.1,51.3l12.3-2.1l3.7-12.5l9.1-1.2L901.8,391z M892.4,373.4
			l3.1-10.5l2.2,9.8L892.4,373.4z"/>
		<path class="st0" d="M945.7,336.1l-0.2,25.9L933,337.6l-10.5,1.8l-2.8,48.7c0,0,5.9-0.6,12.3-1.8c0.6-0.1,0.3-14.5,0.6-27.4
			l12.7,24.9l10.5-1.4l0.7-48L945.7,336.1z"/>
		<path class="st0" d="M783.1,390.7c-2.5-8.2-10.4-7.5-10.4-7.5c5.7-3.6,8.9-16.8-0.4-21.8s-21.4,1.2-21.4,1.2l-4.7,52.8
			C778.8,417.2,785.6,399,783.1,390.7z M760.9,369.6c6.1-2.5,9.3,1.8,7.5,5.4c-1.8,3.6-8.2,4.7-8.2,4.7L760.9,369.6z M771.2,400.7
			c-3.2,3.2-12.2,5-12.2,5l0.4-15C774.5,387.1,774.5,397.5,771.2,400.7z"/>
	</g>
	<g>
		<g>
			<g>
				<path class="st1" d="M500.6,383.3l-2-14c9.9-1.4,16.7-5.9,21.5-14.3c4.6-8,6.5-18.2,7.8-27.2c2.8-19.5,7.8-53.1,7.9-53.5
					l14.5-2.3c-0.1,0.4-5.7,38.3-8.5,57.8c-1.5,10.3-3.8,22.2-9.5,32.2C525.4,374.2,514.7,381.3,500.6,383.3z"/>
			</g>
		</g>
		<g>
			<g>
				<path class="st1" d="M541.9,319.3l-1.9-14.2c28.5-8,43.7-20.1,51.4-28.9c8.6-9.8,12.5-20.7,10.8-29.9c-0.9-5-3.5-9-7.3-11.7
					c-4.3-3-10.2-4.2-17-3.6c-9.6,0.9-18.5,3.6-26.4,7.8c-6.3,3.4-12.1,7.8-17.1,13.1c-8.7,9.3-12.2,18.2-12.2,18.3l0,0l-13.2-5
					c0.2-0.5,4.3-11.2,14.6-22.4c6.1-6.6,13.1-12,20.8-16.2c9.6-5.2,20.4-8.4,32-9.6c10.2-1,19.3,1.1,26.4,6
					c6.9,4.8,11.6,12.1,13.1,20.7c1.2,6.5,0.6,13.7-1.7,20.8c-2.4,7.3-6.6,14.4-12.3,21C589.1,300.2,567.1,312.3,541.9,319.3z"/>
			</g>
		</g>
		<g>
			<g>
				<path class="st1" d="M610.2,366.6c-5.3,0-10.3-0.8-14.7-2.4c-6.9-2.5-12.2-6.9-15.4-12.7c-3.4-6.2-4.2-13.6-2.4-22
					c2.4-11.2,6.8-20.5,13.2-27.5c5.7-6.2,12.7-10.4,20.3-12c5.4-1.2,10.8-1,15.6,0.4c5.2,1.5,9.4,4.3,12.3,8.2
					c4.9,6.5,5,15,0.5,23.1c-3.5,6.2-8.8,10.6-15.9,13c-5.2,1.7-11.3,2.3-18.1,1.8c-5.5-0.4-10.7-1.6-14.4-2.6
					c-1.4,8.6,1.7,14.3,9.1,17c3.8,1.4,8.4,1.8,13.4,1.4c5.4-0.5,11.1-2,16.6-4.4c12.5-5.6,22.9-15.3,29.3-27.5
					c4.4-8.4,7.3-15.7,9.2-21.8c-1-0.1-1.9-0.2-2.8-0.3c-13.1-1.8-18.1-8.2-20-13.2c-2.1-5.5-1.4-11.9,2-18.2
					c2.8-5.2,7.2-9.7,11.7-12.1c6.7-3.4,14-2.4,19.2,2.9c5.4,5.4,7.9,14.7,7.2,26.1c5.2-0.7,11.4-1.9,18.9-3.8l12-3.1l-3.5,11.9
					c-0.1,0.4-10.9,37.1-14,51.2c0,0,0,0,0,0c-0.3,1.4,1.3,2.4,2.5,1.6c2-1.5,4.9-4.4,8.3-10c9.2-15.3,14.8-36.4,18.3-53.8l14.4-2.2
					c-9.1,45.3-22.9,75.3-38.6,80.5c-5.2,1.7-10.3,0.8-14.1-2.6c-4.2-3.8-5.9-10-4.5-16.6c2.1-9.6,7.4-28.4,10.9-40.7
					c-4.6,0.9-9,1.6-13,2c-2.3,9-6.2,18.7-11.4,28.7c-7.9,15-20.7,27-36.1,33.8c-6.9,3.1-14.1,5-21.1,5.6
					C613.4,366.5,611.8,366.6,610.2,366.6z M595.4,320.5c3.1,0.8,7.2,1.7,11.6,2c4.9,0.4,9,0,12.4-1.2c3.6-1.2,6.2-3.3,7.9-6.4
					c1.8-3.3,2-5.9,0.5-7.9c-1.9-2.6-7-4.6-13.6-3.2c-3.3,0.7-8.3,2.7-12.9,7.8C599,314.1,597.1,317.1,595.4,320.5z M667.6,267
					c-0.4,0-0.8,0.1-1.4,0.4c-1.7,0.9-4.1,3.1-5.8,6.2c-1.4,2.5-1.8,5-1.2,6.6c0.8,2,4,3.6,8.8,4.2c1.1,0.2,2.4,0.3,3.9,0.3
					c0-0.5,0.1-0.9,0.1-1.4c0.7-8.6-1.2-13.7-3.1-15.7C668.5,267.3,668.1,267,667.6,267z"/>
			</g>
		</g>
		<g>
			<g>
				<path class="st1" d="M772.9,342.9c-3.7,0-7.2-1.2-10.2-3.5c-1.9-1.4-4.2-4-4.9-8.7c-0.3-2.4-0.2-5.2,0.4-8.6
					c0.9-5.3,3-11.5,4.9-17.5c1.5-4.6,2.9-8.9,3.8-12.6c0,0,0,0,0-0.1c0.5-2.2-1.6-4.2-3.8-3.4c-5,1.8-11,5.4-17.3,10.5
					c-7.5,6-13.1,12.1-13.1,12.1c0,0,0,0,0,0l-8.6-10.5c0,0,0,0,0,0c0.3-0.3,4.4-5.8,12.8-12.5c11.9-9.5,22.5-14.6,31.6-15
					c6.1-0.3,9.3,2.7,10.7,4.5c5.3,7,1.6,18.3-2.7,31.4c-1.5,4.6-3.1,9.3-4,13.3c-0.5,2-0.7,3.5-0.8,4.5c-0.1,1.2,1,2.1,2.1,1.9
					c0,0,0,0,0,0c2-0.5,7.8-3,17.2-16.2c5.6-7.9,9.5-15.5,9.6-15.5c0,0,0,0,0,0c0,0,11.5,7.1,11.6,7.2c0,0,0,0,0,0
					c-0.2,0.4-3.4,7.8-9.6,16.5c-9.1,12.8-17.4,19.9-25.5,21.8C775.7,342.8,774.3,342.9,772.9,342.9z"/>
			</g>
		</g>
		<g>
			<g>
				<polygon class="st1" points="844.8,332.3 830.2,334.7 853.2,196.1 867.9,193.8 				"/>
			</g>
		</g>
		<g>
			<g>
				<polygon class="st1" points="983.2,311.7 968.9,313.9 990.5,180.9 1004.9,179 				"/>
			</g>
		</g>
		<g>
			<g>
				<path class="st1" d="M847.4,310.9l-3.9-13.8c1.3-0.6,2.6-1.2,3.9-1.8l-8.8-4.2c0.1-0.3,3.5-7.4,9.2-15.3
					c8-11.1,16.6-18.3,25.4-21.3c10.1-3.5,16,1.2,18,6.3c2.6,6.6-0.3,15.7-8,24.9C877.8,292.3,865.6,302.8,847.4,310.9z
					 M877.7,267.9c-5.9,2.1-12.3,7.6-18.4,16.2c-1.9,2.7-3.6,5.3-4.8,7.4c8.5-5,13.9-10,17.2-13.8C875.4,273.4,877,270,877.7,267.9z
					"/>
			</g>
		</g>
		<g>
			<g>
				<path class="st1" d="M878.4,327.1c-3.3,0-6.3-0.8-9-2.4c-3.6-2.2-6.3-5.7-8-10.4c-1.1-3.2-1.8-6.9-2-11.2
					c-0.3-6.8,0.6-12.8,0.7-13l13.9,2.3l-7-1.1l7,1.1c0,0-0.8,4.9-0.5,10.3c0.3,6.1,1.9,9.1,3.2,9.9c1,0.6,2.9,0.5,5.3-0.2
					c4.3-1.3,10.9-5.1,17.4-10.2l7.7,11.6c-8,6.2-14.9,10.2-20.9,12.1C883.4,326.7,880.9,327.1,878.4,327.1z"/>
			</g>
		</g>
		<g>
			<g>
				<path class="st1" d="M808.5,337.8c-1.4,0-2.8-0.2-4.1-0.7c-3.8-1.4-6.5-4.7-7.7-9.3c-1-3.7-0.7-7.3-0.5-9.2
					c1.6-12.9,8.1-47.7,8.4-49.1l15.3-2.2c-0.1,0.3-8.2,40.6-9.7,53c0,0,0,0,0,0c-0.1,1.1,1.2,1.9,2.1,1.2c1.3-1,3-2.4,5-4.5
					c6-6.1,13.3-15.6,21.9-28.3l11.7,7.9c-10.4,15.5-19.3,26.6-26.5,33.2c-3.5,3.2-6.7,5.4-9.7,6.7
					C812.5,337.4,810.4,337.8,808.5,337.8z"/>
			</g>
		</g>
		<g>
			<g>
				<path class="st1" d="M1021,307.4c-2.2,0-3.9-0.6-5.1-1.2c-2.1-1.1-4.8-3.4-5.9-8.2c-0.5-2.3-0.7-5-0.4-8.4
					c0.3-5.4,1.6-12,2.8-18.4c0.9-5,1.9-10.1,2.4-14.3c0.1-0.5,0.1-1,0.1-1.5c0.2-2.5-2.4-4.3-4.7-3.2c-2.4,1.2-5.6,3.1-9.9,6.5
					c-5.9,4.6-10.9,9.4-12,10.5c-0.1,0.1-0.3,0.1-0.5,0c-1.3-1.3-8.2-8.1-9.6-9.4c-0.1-0.1-0.1-0.3,0-0.5c1.3-1.3,7.9-7.8,15.7-13.5
					c5.3-3.8,10-6.5,14.1-8c8.8-3.1,14.1-0.5,17,2.3c6.4,6.1,4.1,18.3,1.2,33.7c-0.9,4.9-1.9,10-2.4,14.1c0,0,0,0,0,0.1
					c-0.2,1.7,1.8,2.9,3.2,1.8c0.2-0.2,0.4-0.3,0.7-0.5c4.3-3.3,9.8-8.3,16.4-15c0.1-0.1,0.3-0.1,0.5,0l9.6,9.4
					c0.1,0.1,0.1,0.3,0,0.5c-8.8,8.9-15.7,15-21.1,18.6c-3,2-5.6,3.3-8,4C1023.5,307.3,1022.2,307.4,1021,307.4z"/>
			</g>
		</g>
		<g>
			<g>
				<path class="st1" d="M954.3,316.6c-1.6,0-3.1-0.2-4.5-0.7c-6-1.9-9.5-7.6-8.9-14.1c1-9.6,12.3-50.7,13.5-55.5l13.6-2
					c-2.7,10.7-9.5,39.5-12.1,52.9c-0.5,2.3,2.2,4,4.1,2.6c0,0,0,0,0.1-0.1c3.3-2.5,8.4-7.6,14.6-18.2l10.1,6.5
					c-6.1,10.4-10.3,18.6-16.7,23.3c-3.1,2.2-6.1,3.8-9.1,4.6C957.3,316.4,955.8,316.6,954.3,316.6z"/>
			</g>
		</g>
		<g>
			<g>
				<path class="st1" d="M919.8,321.2c-4.9,0-9.4-1.6-13.1-4.6c-6.1-5-9.3-13.7-8.9-23.8c0.4-9.7,4.2-19.8,10.6-28.3
					c8.8-11.7,18.5-17.9,28.7-18.3c5.4-0.2,10.8,1.2,15.7,4.2c3.5,2.1,5.6,4.3,6,4.8l-8.3,11c0,0-2.2-1.5-2.1-1.5
					c0,0-4.5-4.7-10.8-4.3c-7.2,0.4-13.7,7.1-17.9,12.7c-4.7,6.3-7.5,13.5-7.8,20.4c-0.2,5.5,1.2,10.2,3.8,12.3
					c1.9,1.6,4.7,1.8,8.2,0.6c3.9-1.3,10.4-4.9,19.2-14.6l10.4,9.5c-8.7,9.6-17.2,15.8-25.2,18.5
					C925.4,320.7,922.5,321.2,919.8,321.2z"/>
			</g>
		</g>
		<g>
			<g>
				<path class="st1" d="M952.5,462.7c-1.3,0-2.6-0.1-3.9-0.4c-6.3-1.5-10.4-6.8-9.8-12.8c0.8-8.4,7.6-49.7,7.9-51.4l13.9,2.3
					c-0.1,0.4-5.4,32.6-7.2,46c-0.2,1.1,1,2,2,1.5c0,0,0,0,0,0c2.3-1,6-3.4,10.6-9.1c4.9-6.1,11.6-19.7,15.8-30.2l10.9,10.3
					c-6.4,16.2-13.8,28.1-22,35.6c-3.7,3.3-7.5,5.7-11.2,7C957.1,462.3,954.7,462.7,952.5,462.7z"/>
			</g>
		</g>
		<g>
			<g>
				<path class="st1" d="M921.1,467.4c-4.5,0-8.7-1.4-12.1-4.3c-5.6-4.6-8.5-12.5-8.1-21.6c0.4-8.7,3.8-17.8,9.5-25.4
					c7.9-10.5,16.7-16.1,25.9-16.5c11.6-0.5,18.9,7.2,19.7,8.1l-10.5,9.5c0,0,0,0,0.1,0.1c0,0-3.7-3.9-8.8-3.6
					c-6,0.3-11.6,6.1-15.2,10.9c-4.1,5.4-6.4,11.6-6.7,17.5c-0.2,4.6,1,8.4,3,10.2c1.5,1.2,3.6,1.3,6.5,0.4
					c3.3-1.1,8.9-4.2,16.6-12.7l10.4,9.5c-7.8,8.6-15.4,14.2-22.6,16.5C926.3,467,923.6,467.4,921.1,467.4z"/>
			</g>
		</g>
		<g>
			<g>
				<path class="st1" d="M1103.7,442.4c-1.4,0-2.8-0.2-4.1-0.6c-6.4-1.8-10.6-7.8-10-14.2c0.8-8.4,7.6-49.7,7.9-51.4l13.9,2.3
					c-0.1,0.4-6.7,40.4-7.7,49.8c0.8,0,2.6-0.4,5.4-2.5c3.8-3,9.8-9.6,16.9-24.5l12.7,6.1c-6.3,13.1-12.9,22.7-19.7,28.5
					c-3.2,2.7-6.5,4.6-9.7,5.7C1107.3,442.1,1105.5,442.4,1103.7,442.4z"/>
			</g>
		</g>
		<g>
			<g>
				<path class="st1" d="M1071.8,445.5c-4.5,0-8.7-1.4-12.1-4.3c-5.6-4.6-8.5-12.5-8.1-21.6c0.4-8.7,3.8-17.8,9.5-25.4
					c7.9-10.5,16.7-16.1,25.9-16.5c11.6-0.5,18.9,7.2,19.7,8.1l-10.5,9.5c0,0,0,0,0.1,0.1c0,0-3.7-3.9-8.8-3.6
					c-6,0.3-11.6,6.1-15.2,10.9c-4.1,5.4-6.4,11.6-6.7,17.5c-0.2,4.6,1,8.4,3,10.2c1.5,1.2,3.6,1.3,6.5,0.4
					c3.3-1.1,8.9-4.2,16.6-12.7l10.4,9.5c-7.8,8.6-15.4,14.2-22.6,16.5C1076.9,445.1,1074.3,445.5,1071.8,445.5z"/>
			</g>
		</g>
		<g>
			<g>
				<path class="st1" d="M1095.1,295.5c-1.8,0-3.5-0.4-5-1.3c-2-1.2-4.6-3.6-5.2-8.5c-0.3-2.5-0.1-5.5,0.6-9.3
					c2.3-11.9,10.6-50.9,10.7-51.3l14.1-2.2c-0.1,0.4-8.6,43.8-10.9,55.9c0.8-0.6,1.8-1.3,3-2.2c4-3.1,8.6-7.2,13.2-11.1
					c2.1-1.9,6-4.9,8.1-6.8l7.6,11.8c-2.1,1.8-4.3,3.7-6.4,5.6c-5.6,4.9-11.4,10-16.4,13.6c-3,2.2-5.6,3.6-7.8,4.6
					C1098.7,295.1,1096.8,295.5,1095.1,295.5z"/>
			</g>
		</g>
		<g>
			<g>
				<path class="st1" d="M1061.6,300.4c-2,0-3.9-0.3-5.6-0.9c-3.3-1.1-6.2-3.3-8.3-6.3c-1.7-2.5-2.9-5.5-3.6-9
					c-1.4-7.5-0.4-17.6,2.9-27.5c1.5-4.7,3.5-9.1,5.8-12.9c2.5-4.3,5.3-7.8,8.3-10.3c10.5-8.7,20.9-9.3,27.7-8.1
					c7.3,1.2,12.1,4.4,12.6,4.8l-8,11.6c0,0,0,0,0.1,0c0,0-3-2-7.4-2.6c-5.5-0.8-10.9,1-15.9,5.1c-7.7,6.4-14.2,26.3-12.2,37.2
					c0.2,1.2,0.9,4.1,2.5,4.6c0.6,0.2,2.9,0.6,8.1-1.9c5.4-2.6,12.1-7.5,19.7-14.5l9.5,10.4c-8.7,8-16.5,13.6-23.1,16.8
					C1069.9,299.2,1065.5,300.4,1061.6,300.4z"/>
			</g>
		</g>
		<g>
			<g>
				<polygon class="st1" points="1131.3,289.4 1116.9,291.5 1129.3,220.1 1143.9,217.6 				"/>
			</g>
		</g>
		<g>
			<g>
				<path class="st1" d="M1179.1,283.9c-2.2,0-4.2-0.5-6-1.5c-2.1-1.2-4.9-3.7-6.2-8.8c-0.6-2.6-0.8-5.7-0.6-9.5
					c0.3-6.2,1.7-13.6,3.1-20.7c1-5.1,1.9-9.9,2.3-13.9c0,0,0,0,0-0.1c0.2-2.1-1.9-3.8-3.9-3c-4.8,1.9-10.2,5.2-16,9.7
					c-7.3,5.7-9.7,7.8-14.9,13l-8-11.3c0.2-0.3,5.9-6.3,14-12.7c11.4-8.9,21.7-13.9,30.9-14.8c3.5-0.3,6.6,0.8,8.9,3.2
					c5.5,6,3.4,17,0.5,32.3c-1.1,5.7-2.2,11.6-2.7,16.5c-0.4,3.6-0.3,5.8-0.1,7c1-0.4,2.6-1.1,5-2.6c4.2-2.7,9.7-7,16.1-12.8
					l9.5,10.4c-8.6,7.8-15.4,13-21,16c-3.1,1.7-5.8,2.7-8.3,3.1C1180.8,283.8,1179.9,283.9,1179.1,283.9z"/>
			</g>
		</g>
		<g>
			<g>
				
					<rect x="951.9" y="419.5" transform="matrix(9.309869e-02 -0.9957 0.9957 9.309869e-02 469.6173 1368.6382)" class="st1" width="68.4" height="14.1"/>
			</g>
		</g>
		<g>
			<g>
				<path class="st1" d="M1030,452.7c-1.8,0-3.5-0.4-5-1.2c-6.2-3.3-5.9-11-5.9-13.5c0.1-4,0.9-8.8,1.8-13.9c1-5.8,2-11.8,2-16.9
					c0.1-6-1.3-7.7-1.7-8.1c0,0,0,0,0,0c-0.3,0-2.1,0.2-5.7,2.9c-3.1,2.3-6.6,5.8-10.5,10.3c-6.9,8-12.4,16.4-12.4,16.5l-11.8-7.7
					c0.2-0.3,5.4-8.3,12.3-16.5c4.2-5,8.1-9,11.8-12.1c5.3-4.4,10.1-6.9,14.5-7.4c4.4-0.5,8.4,0.8,11.6,3.7
					c8.8,8.3,6.2,23.9,3.9,37.6c-0.6,3.6-1.2,7-1.4,9.8c0,0.3,0,0.5-0.1,0.8c0.9-0.6,2.1-1.3,3.5-2.4c4.4-3.2,10.3-8.2,17.3-14.8
					l9.6,10.3c-9.3,8.7-16.5,14.7-22,18.2c-3,1.9-5.6,3.2-7.9,3.9C1032.6,452.5,1031.3,452.7,1030,452.7z"/>
			</g>
		</g>
		<g>
			<g>
				
					<rect x="590.7" y="454.1" transform="matrix(0.1521 -0.9884 0.9884 0.1521 73.0324 1007.379)" class="st1" width="65.9" height="14.1"/>
			</g>
		</g>
		<g>
			<g>
				<path class="st1" d="M651.2,529.4c-2.5,0-5-0.2-7.6-0.5c-9.7-1.2-19.8-4.6-28.5-9.7c-11.9-6.9-22.7-8.3-29.7-8.2
					c-7.1,0.1-11.7,1.6-11.7,1.6l-4.8-13.3c1-0.4,25.1-8.8,53.3,7.6c12.8,7.4,31.8,11.7,45.4,4.5c10.2-5.4,15.9-16.6,17.1-33.4
					c0.4-6.2-0.1-11.2-1.4-14.9c-1-2.7-2.5-4.7-4.4-5.9c-4.2-2.7-11.4-2.7-20.4-0.2c-7.7,2.2-13.7,5.4-13.8,5.4l-7.8-11.6
					c0.1-0.1,9.8-8.1,18.7-18.2c5.1-5.7,9-10.9,11.5-15.5c2.5-4.6,3.6-8.6,3-11.1c-0.6-2.6-3.6-4.6-9-5.9c-15-3.8-29,0.2-41.4,11.8
					c-9.7,9-14.7,19.2-14.8,19.3l-12.7-6.1c0.2-0.5,6.2-12.7,17.8-23.5c15.9-14.8,34.8-20.1,54.4-15.1c5.3,1.3,9.5,3.3,12.7,6
					c3.4,2.8,5.6,6.4,6.5,10.5c2.3,10.1-3.3,22.6-16.9,38.2c7.8-0.6,14.3,0.8,19.6,4.2c4.6,2.9,7.9,7.3,10,12.9
					c2.1,5.6,2.8,12.6,2.3,20.7c-0.8,11.1-3.3,20.6-7.7,28.3c-4.1,7.3-9.8,12.8-16.8,16.6C667.5,527.6,659.7,529.4,651.2,529.4z"/>
			</g>
		</g>
		<g>
			<g>
				<path class="st1" d="M728,499.5c-1.3,0-2.7-0.1-4-0.2c-10.9-1.4-17.5-8.9-18.3-20.6c-0.7-10.5,1.3-20,6-28
					c3.9-6.9,9.7-12.5,16.7-16.4c5.1-2.8,10.6-4.5,15.9-4.9c5.8-0.4,10.8,0.7,14.5,3.4c4.5,3.3,6.5,8.4,5.4,14.2
					c-4.3,22.5-32.8,28.2-34,28.5l-2.7-13.8l0,0c0.1,0,5.6-1.1,11.3-4.2c6.7-3.5,10.6-8,11.6-13.1c0-0.1,0-0.1,0-0.2
					c-1.2-0.7-6.2-1.7-13.3,1.6c-3.6,1.6-8.6,4.9-12.4,10.9c-3.7,5.8-5.3,13-4.7,21.2c0.4,5.6,2.6,7.1,6,7.5c7.4,1,20.4-3.6,33-11.7
					c12-7.7,23.9-20.2,26-26.4l11.3,7.2c-1.7,5.1-5.5,10.7-11.3,16.5c-5.1,5.1-11.4,10.1-18.4,14.6
					C759.5,489.8,742.7,499.5,728,499.5z"/>
			</g>
		</g>
		<g>
			<g>
				
					<rect x="757.3" y="450.9" transform="matrix(0.1264 -0.992 0.992 0.1264 235.3356 1183.2181)" class="st1" width="64.4" height="14.1"/>
			</g>
		</g>
		<g>
			<g>
				<path class="st1" d="M828.9,486.6c-2.8,0-5.1-0.9-6.7-2c-2.5-1.7-4.2-4.3-5-7.9c-0.5-2.2-0.6-4.7-0.5-7.8
					c0.3-5,1.3-10.8,2.4-16.9c0.9-5.2,1.9-10.5,2.3-14.9c0.1-1.1,0.1-2.1,0.2-2.9c0-1.9-1.8-3.3-3.7-2.7c-5,1.6-9.2,5.2-12.2,8.2
					c-4.6,4.6-7.3,9.3-7.3,9.3l-3.1,3.2l-9.1-10.2c0.1-0.2,3.5-6,9.2-11.9c3.4-3.5,7.1-6.4,10.8-8.6c4.9-2.9,10-4.6,15.1-4.9
					c4.2-0.3,7.9,1.1,10.5,4c2,2.2,4.5,6.3,3.8,16.4c-0.3,5.4-1.5,11.6-2.5,17.5c-0.9,4.7-1.7,9.2-2,13c-0.2,1.9-0.2,3.3-0.2,4.2
					c2-1.1,5.6-3.8,11.4-10.2c5.3-6,9.5-11.9,9.5-11.9l11.5,8.1c-0.2,0.3-5.9,8.3-12.8,15.7c-4.3,4.5-8.3,7.9-11.8,10.1
					C834.8,485.7,831.6,486.6,828.9,486.6z"/>
			</g>
		</g>
		<g>
			<g>
				<path class="st1" d="M872.8,478.4c-1.3,0-2.6-0.1-3.9-0.4c-8.1-1.6-14.2-7.9-17.3-17.8c-2.1-6.9-2.6-15.2-1.4-23.2
					c1.3-8.6,4.6-15.8,9.1-20.3c7.9-7.9,15.8-11.4,23.6-10.4c10,1.2,15.2,9.4,15.8,10.3l-12.1,7.3c0,0,0,0,0.1,0.1
					c0,0-2.2-3.3-5.5-3.7c-3.2-0.3-7.4,1.9-11.9,6.4c-2.4,2.4-4.3,7.1-5.1,12.6c-0.9,5.9-0.6,12,0.9,16.9c0.8,2.7,2.8,7.4,6.5,8.1
					c2.6,0.5,6.2-0.7,10.4-3.4c6-3.8,12.8-10.5,20.3-19.7l11,8.8c-8.4,10.5-16.4,18.1-23.7,22.8C883.7,476.5,878,478.4,872.8,478.4z
					"/>
			</g>
		</g>
		<g>
			<g>
				
					<ellipse transform="matrix(0.9783 -0.2071 0.2071 0.9783 -34.1248 173.9489)" class="st1" cx="813.8" cy="250" rx="11.4" ry="9.5"/>
			</g>
		</g>
	</g>
	<g>
		<g>
			<path class="st2" d="M752.6,411.4c-0.2,0-0.4-0.1-0.5-0.2c-0.2-0.2-0.3-0.4-0.2-0.6l1.6-23.9c0,0,0,0,0,0c0-0.2,0-0.3,0-0.5
				l1.4-20.3c0-0.3,0.2-0.6,0.5-0.7c0.4-0.2,8.9-3.7,14.2-0.7c2.1,1.2,3.4,3.2,3.8,6c0.7,4.9-2.4,9.3-9,12.9c-1,0.6-2.1,1.1-3.1,1.5
				c6.8-0.3,16.1,0.5,17.7,6.7c1,3.8,0.5,7.2-1.6,10.1C773.8,406.8,765.4,410.1,752.6,411.4C752.6,411.4,752.6,411.4,752.6,411.4z
				 M755,387.1l-1.5,22.6c11.8-1.3,19.4-4.3,22.7-8.9c1.7-2.5,2.2-5.4,1.3-8.8c-0.6-2.4-3.2-5.2-12.1-5.5c-4.3-0.2-8.5,0.4-10.2,0.6
				C755.1,387.1,755,387.1,755,387.1z M756.4,366.5l-1.3,18.9c4-1.2,18-5.9,16.7-14.7c-0.3-2.3-1.3-3.9-3-4.9
				C764.8,363.7,758.2,365.9,756.4,366.5z"/>
		</g>
		<g>
			<path class="st2" d="M803,401.4c-1.3,0-2.3-0.3-3.2-0.7c-3.5-1.7-5.7-6.4-6-12.7c-0.5-10.4,2.1-26.3,2.1-26.5
				c0.1-0.4,0.5-0.7,0.9-0.6c0.4,0.1,0.7,0.5,0.6,0.9c0,0.2-2.6,15.9-2.1,26.1c0.3,5.7,2.2,9.9,5.1,11.4c2.2,1.1,5,0.6,7.9-1.5
				c3.4-2.3,6.2-8.2,8.2-17.1c1.8-8.1,2.4-16.6,2.4-21.4c0-0.4,0.3-0.8,0.8-0.8c0,0,0,0,0,0c0.4,0,0.8,0.3,0.8,0.8
				c0,5.1-0.6,13.5-2.4,21.8c-1.4,6.4-4.1,14.8-8.8,18C806.8,400.9,804.7,401.4,803,401.4z"/>
		</g>
		<g>
			<path class="st2" d="M835.4,397C835.4,397,835.4,397,835.4,397c-0.5-0.1-0.8-0.4-0.8-0.9l4.5-41.2c0-0.4,0.4-0.7,0.9-0.7
				c0.4,0,0.7,0.4,0.7,0.9l-4.5,41.2C836.1,396.7,835.8,397,835.4,397z"/>
		</g>
		<g>
			<path class="st2" d="M836.9,384c-0.2,0-0.4-0.1-0.5-0.2c-0.3-0.3-0.4-0.8-0.1-1.1l27-32.9c0.3-0.3,0.8-0.4,1.1-0.1
				c0.3,0.3,0.4,0.8,0.1,1.1l-27,32.9C837.3,383.9,837.1,384,836.9,384z"/>
		</g>
		<g>
			<path class="st2" d="M860.2,393.8c-0.3,0-0.5-0.1-0.7-0.4l-12.9-21.8c-0.2-0.4-0.1-0.9,0.3-1.1c0.4-0.2,0.9-0.1,1.1,0.3
				l12.9,21.8c0.2,0.4,0.1,0.9-0.3,1.1C860.4,393.8,860.3,393.8,860.2,393.8z"/>
		</g>
		<g>
			<path class="st2" d="M881.7,389.7c-0.1,0-0.2,0-0.3,0c-0.4-0.1-0.6-0.6-0.5-1l14-40.4c0.1-0.3,0.4-0.5,0.7-0.5
				c0.3,0,0.6,0.2,0.7,0.5l11.8,37c0.1,0.4-0.1,0.9-0.5,1c-0.4,0.1-0.9-0.1-1-0.5L895.6,351l-13.2,38.2
				C882.3,389.5,882,389.7,881.7,389.7z"/>
		</g>
		<g>
			<path class="st2" d="M885.4,379.1c-0.4,0-0.7-0.3-0.8-0.7c-0.1-0.4,0.2-0.8,0.7-0.9l18.7-2.5c0.4-0.1,0.8,0.2,0.9,0.7
				c0.1,0.4-0.2,0.8-0.7,0.9l-18.7,2.5C885.5,379.1,885.5,379.1,885.4,379.1z"/>
		</g>
		<g>
			<path class="st2" d="M925.8,383.8C925.8,383.8,925.8,383.8,925.8,383.8c-0.5,0-0.8-0.4-0.8-0.8l2.5-40.5c0-0.3,0.3-0.6,0.6-0.7
				c0.3-0.1,0.7,0.1,0.9,0.3l21.7,34.8l-0.2-37.5c0-0.4,0.3-0.8,0.8-0.8c0,0,0,0,0,0c0.4,0,0.8,0.3,0.8,0.8l0.2,40.3
				c0,0.4-0.2,0.7-0.6,0.8c-0.3,0.1-0.7,0-0.9-0.3L929,345l-2.4,38.1C926.6,383.5,926.2,383.8,925.8,383.8z"/>
		</g>
	</g>
	<g>
		<g>
			<g>
				<path class="st3" d="M507,375c-0.3,0-0.6-0.2-0.7-0.5c-0.1-0.4,0.1-0.9,0.5-1c9-3,15.6-9,20.2-18.4c4.1-8.4,5.9-18.3,7.1-26.8
					c2-14,5.4-37.2,7.3-49.8c0.1-0.4,0.5-0.7,0.9-0.7c0.4,0.1,0.7,0.5,0.7,0.9c-1.9,12.6-5.3,35.8-7.3,49.8
					c-1.2,8.6-3.1,18.6-7.3,27.2c-4.8,9.8-11.7,16-21.1,19.2C507.1,375,507.1,375,507,375z"/>
			</g>
			<g>
				<path class="st3" d="M537.3,313.6c-0.3,0-0.7-0.2-0.8-0.6c-0.1-0.4,0.1-0.8,0.6-1c25.2-6.4,45.2-17.1,57.9-30.9
					c10.4-11.4,15.2-24.5,13.2-35.9c-1.2-6.7-4.6-12.2-9.9-16c-5.6-4-12.9-5.6-21.2-4.8c-15.3,1.5-28.8,6.9-40.1,16
					c-9.2,7.5-15,15.9-18.1,21.6c-0.2,0.4-0.7,0.5-1.1,0.3c-0.4-0.2-0.5-0.7-0.3-1.1c3.2-5.8,9.1-14.4,18.5-22.1
					c11.5-9.3,25.3-14.8,40.9-16.4c8.6-0.8,16.3,0.9,22.2,5.1c5.6,4,9.3,9.9,10.5,17c2.1,11.9-2.9,25.5-13.6,37.2
					c-12.8,14-33.1,24.8-58.6,31.3C537.5,313.5,537.4,313.6,537.3,313.6z"/>
			</g>
			<g>
				<path class="st3" d="M610.2,359.9c-4.5,0-8.7-0.7-12.5-2c-11.6-4.2-16.7-14.2-13.9-27.5c2.2-10.1,6.1-18.4,11.7-24.6
					c4.8-5.2,10.7-8.7,17-10.1c4.3-0.9,8.7-0.9,12.6,0.3c3.8,1.1,7,3.2,9,5.9c3.4,4.5,3.4,10.3,0,16.4c-2.7,4.8-6.9,8.2-12.5,10
					c-4.5,1.4-9.8,1.9-15.9,1.4c-9.2-0.8-17.3-3.6-19-4.3c-0.5,1.7-1,3.5-1.4,5.3c-1.4,6.5-0.8,12.1,1.6,16.6
					c2.2,4.1,6.1,7.2,11.2,9.1c9.5,3.4,22.4,2.2,34.7-3.2c13.8-6.1,25.3-16.9,32.3-30.3c5.8-11,9.7-21.4,11.7-30.8
					c-3.7,0.1-7.1,0-10-0.4c-5.6-0.8-12.7-3-15-9.2c-1.4-3.8-0.9-8.4,1.6-13c2.2-4.1,5.6-7.7,9.1-9.5c4.3-2.2,8.6-1.6,11.9,1.7
					c2,2,3.5,4.9,4.4,8.4c1,3.8,1.3,8.3,0.9,13.3c-0.2,2.2-0.5,4.6-0.9,7c7.7-0.5,17-2.1,27.7-4.8c0.3-0.1,0.6,0,0.8,0.2
					c0.2,0.2,0.3,0.5,0.2,0.8c-0.1,0.4-11,37.3-14.1,51.6c-0.6,2.5-0.4,5,0.5,6.9c0.8,1.8,2.3,3.1,4.1,3.5c2,0.4,4.4-0.2,7-1.8
					c3-2,6.1-5.3,9.1-9.9c7.5-11.3,14.2-29.9,19.5-53.7c0.1-0.4,0.5-0.7,0.9-0.6c0.4,0.1,0.7,0.5,0.6,0.9c-2.8,12.8-6.1,24-9.6,33.5
					c-3.1,8.4-6.6,15.3-10.1,20.8c-5.4,8.1-11.1,12.6-16.1,12.6c-0.6,0-1.1-0.1-1.7-0.2c-2.3-0.5-4.1-2-5.1-4.3
					c-1-2.2-1.2-5-0.6-7.9c2.8-12.8,11.7-43.7,13.7-50.4c-10.4,2.6-19.5,4.1-27,4.5c-2,9.6-6,20.4-11.9,31.6
					c-7.2,13.7-19,24.7-33.1,31C625.7,358.1,617.6,359.9,610.2,359.9z M587.2,323.9c1.5,0.5,9.6,3.4,18.7,4.2
					c5.9,0.5,11,0.1,15.2-1.3c5.2-1.7,9.2-4.8,11.6-9.3c3-5.4,3.1-10.7,0.1-14.7c-3.8-5.1-11.8-7.4-20-5.6c-6,1.3-11.6,4.7-16.2,9.7
					C592.6,311.4,589.4,317.1,587.2,323.9z M667.6,260.3c-1.4,0-2.8,0.4-4.3,1.1c-3.2,1.6-6.4,5-8.4,8.8c-2.3,4.2-2.8,8.4-1.5,11.7
					c1.7,4.3,6.4,7.2,13.8,8.2c3,0.4,6.4,0.5,10.1,0.4c0.5-2.5,0.8-4.9,1-7.2c0.7-9.2-1.1-16.7-4.9-20.5
					C671.7,261.1,669.7,260.3,667.6,260.3z"/>
			</g>
			<g>
				<path class="st3" d="M773,336.3c-2.4,0-4.6-0.8-6.6-2.3c-5.2-3.9-1.4-15.5,2.6-27.8c3.3-10.1,6.7-20.5,3.9-24.2
					c-0.8-1.1-2.2-1.5-4.1-1.4c-9.3,0.5-19.4,7.4-26.3,13.2c-7.5,6.3-12.9,12.5-13,12.6c-0.3,0.3-0.8,0.4-1.1,0.1
					c-0.3-0.3-0.4-0.8-0.1-1.1c0.1-0.1,5.5-6.4,13.2-12.8c10.3-8.6,19.5-13.2,27.3-13.6c2.5-0.1,4.3,0.6,5.4,2.1
					c3.3,4.4-0.1,14.7-3.6,25.6c-1.9,5.7-3.8,11.6-4.6,16.4c-0.9,5.1-0.4,8.3,1.5,9.7c2.5,1.8,5.1,2.4,8.1,1.7
					c14.2-3.3,29.8-33.4,29.9-33.7c0.2-0.4,0.7-0.5,1.1-0.3c0.4,0.2,0.5,0.7,0.3,1.1c0,0.1-4,7.8-9.7,15.9
					c-7.8,10.9-14.9,17.2-21.2,18.7C774.9,336.2,773.9,336.3,773,336.3z"/>
			</g>
			<g>
				<path class="st3" d="M837.4,333.9c0,0-0.1,0-0.1,0c-0.4-0.1-0.7-0.5-0.6-0.9l22-132c0.1-0.4,0.5-0.7,0.9-0.6
					c0.4,0.1,0.7,0.5,0.6,0.9l-22,132C838.1,333.6,837.8,333.9,837.4,333.9z"/>
			</g>
			<g>
				<path class="st3" d="M976.6,308.1c0,0-0.1,0-0.1,0c-0.4-0.1-0.7-0.5-0.6-0.9L995.9,185c0.1-0.4,0.5-0.7,0.9-0.6
					c0.4,0.1,0.7,0.5,0.6,0.9l-20.1,122.2C977.3,307.8,977,308.1,976.6,308.1z"/>
			</g>
			<g>
				<path class="st3" d="M842.6,304.9c-0.3,0-0.6-0.2-0.7-0.5c-0.2-0.4,0-0.9,0.4-1c18.5-7.6,28.8-16.5,34.2-22.7
					c7.2-8.2,8.5-14.6,7.4-17.5c-1-2.6-3.9-3.2-8.1-1.8c-9,3.1-17,11.8-22.1,18.5c-5.5,7.4-9,14.1-9,14.1c-0.2,0.4-0.7,0.5-1.1,0.3
					c-0.4-0.2-0.5-0.7-0.3-1.1c0-0.1,3.5-6.9,9.1-14.4c7.6-10.1,15.3-16.5,22.8-19.1c5-1.7,8.8-0.7,10.1,2.7
					c1.7,4.5-1.3,11.8-7.7,19.1c-5.5,6.2-16,15.3-34.7,23.1C842.8,304.9,842.7,304.9,842.6,304.9z"/>
			</g>
			<g>
				<path class="st3" d="M878,320.9c-2,0-3.7-0.4-5.2-1.3c-4.3-2.4-6.8-8-7.2-16.8c-0.3-6.4,0.6-12,0.6-12.2
					c0.1-0.4,0.5-0.7,0.9-0.6c0.4,0.1,0.7,0.5,0.6,0.9c0,0.2-3.5,22.2,5.8,27.3c2.9,1.6,6.7,1.4,11.5-0.5c5.7-2.3,12.8-7.1,21-14.4
					c0.3-0.3,0.8-0.3,1.1,0.1c0.3,0.3,0.3,0.8-0.1,1.1c-8.3,7.4-15.6,12.3-21.5,14.7C882.9,320.4,880.3,320.9,878,320.9z"/>
			</g>
			<g>
				<path class="st3" d="M808.3,331.2c-0.7,0-1.3-0.1-1.9-0.3c-1.8-0.7-3.1-2.4-3.8-5.1c-0.5-2-0.6-4.5-0.3-6.9
					c1.1-8.4,6.1-33.9,8.2-44.8l0.1-0.4c0.1-0.4,0.5-0.7,0.9-0.6c0.4,0.1,0.7,0.5,0.6,0.9l-0.1,0.4c-2.1,10.9-7.1,36.3-8.2,44.7
					c-0.5,4.2,0.2,9.2,3.1,10.3c1.8,0.7,5.2,0.2,11.7-5.8c6.7-6.1,15.1-16.8,25.1-31.7c0.2-0.4,0.7-0.5,1.1-0.2
					c0.4,0.2,0.5,0.7,0.2,1.1C828,318.3,815.6,331.2,808.3,331.2z"/>
			</g>
			<g>
				<path class="st3" d="M1021.9,300.9c-0.8,0-1.6-0.2-2.3-0.5c-5.3-2.7-3.1-15.4-0.7-28.7c1-5.8,2.1-11.7,2.4-16.5
					c0.4-5.2-0.2-8.4-1.6-9.7c-4.5-4.2-13.7,1.1-20.7,6.3c-7.8,5.8-14.5,12.7-14.6,12.8c-0.3,0.3-0.8,0.3-1.1,0
					c-0.3-0.3-0.3-0.8,0-1.1c0.1-0.1,6.9-7.1,14.8-13c10.9-8.1,18.5-10.2,22.7-6.1c3.9,3.7,1.8,15.3-0.3,27.7
					c-2.1,11.7-4.4,24.9-0.1,27.1c1.8,0.9,4.9,0,9.3-2.9c5-3.3,11.8-9.3,20.2-17.8c0.3-0.3,0.8-0.3,1.1,0c0.3,0.3,0.3,0.8,0,1.1
					c-8.6,8.7-15.3,14.6-20.5,18C1026.9,299.7,1024.1,300.9,1021.9,300.9z"/>
			</g>
			<g>
				<path class="st3" d="M954.4,310.3c-0.9,0-1.8-0.1-2.6-0.4c-3.3-1.1-5.1-4.1-4.7-7.9c0.8-7.5,8.2-38.4,11.3-51.3
					c0.1-0.4,0.5-0.7,0.9-0.6c0.4,0.1,0.7,0.5,0.6,0.9c-3.1,12.9-10.5,43.7-11.3,51.1c-0.3,3,1.1,5.4,3.7,6.2
					c2.9,0.9,6.8-0.2,10.9-3.2c5.3-3.9,10.8-10.6,16.2-19.9c0.2-0.4,0.7-0.5,1.1-0.3c0.4,0.2,0.5,0.7,0.3,1.1
					c-5.5,9.5-11.1,16.3-16.6,20.4C960.7,309,957.3,310.3,954.4,310.3z"/>
			</g>
			<g>
				<path class="st3" d="M919.8,314.6c-4,0-6.9-1.5-8.8-3c-4.6-3.7-7-10.5-6.7-18.6c0.3-8.5,3.5-17.4,9.1-25.1
					c7.3-10.2,15.3-15.5,23.7-15.9c6.1-0.3,11.3,2.3,14.5,4.5c3.5,2.3,5.5,4.7,5.6,4.8c0.3,0.3,0.2,0.8-0.1,1.1
					c-0.3,0.3-0.8,0.2-1.1-0.1c-0.1-0.1-8-9.2-18.9-8.7c-7.9,0.3-15.4,5.5-22.5,15.2c-5.3,7.4-8.5,16.1-8.8,24.3
					c-0.3,7.6,1.9,14,6.1,17.3c3.6,2.9,8.5,3.4,14,1.5c6.6-2.3,13.9-7.8,21.7-16.4c0.3-0.3,0.8-0.3,1.1-0.1c0.3,0.3,0.3,0.8,0.1,1.1
					c-8,8.8-15.5,14.4-22.4,16.8C924,314.2,921.8,314.6,919.8,314.6z"/>
			</g>
			<g>
				<path class="st3" d="M952.3,455.9c-1,0-1.8-0.1-2.3-0.3c-3.2-0.8-5.1-3.1-4.8-5.9c0.7-6.5,5.1-34.2,7-45.7
					c0.1-0.4,0.5-0.7,0.9-0.6c0.4,0.1,0.7,0.5,0.6,0.9c-1.9,11.6-6.4,39.2-7,45.6c-0.2,2,1.2,3.7,3.6,4.2c4.2,1,9.9-1.4,15.3-6.3
					c7.5-6.9,14.7-18.6,20.8-34.1c0.2-0.4,0.6-0.6,1-0.4s0.6,0.6,0.4,1c-6.3,15.9-13.4,27.6-21.2,34.7
					C960.4,454.7,955.3,455.9,952.3,455.9z"/>
			</g>
			<g>
				<path class="st3" d="M921.1,460.7c-3.7,0-6.4-1.4-8.1-2.8c-4-3.3-6.2-9.4-5.9-16.5c0.3-7.5,3.3-15.3,8.3-21.9
					c6.8-9,13.9-13.7,21.2-14c8.8-0.4,14.6,5.8,14.8,6.1c0.3,0.3,0.3,0.8-0.1,1.1c-0.3,0.3-0.8,0.3-1.1-0.1
					c-0.1-0.1-5.5-5.9-13.6-5.6c-6.8,0.3-13.5,4.8-20,13.4c-4.8,6.4-7.6,13.9-8,21c-0.3,6.7,1.6,12.2,5.3,15.3
					c3.2,2.6,7.5,3.2,12.4,1.5c5.9-2,12.4-6.8,19.3-14.4c0.3-0.3,0.8-0.3,1.1-0.1c0.3,0.3,0.3,0.8,0.1,1.1
					c-7.1,7.8-13.8,12.8-19.9,14.8C924.8,460.4,922.8,460.7,921.1,460.7z"/>
			</g>
			<g>
				<path class="st3" d="M1103.7,435.7c-0.9,0-1.8-0.1-2.6-0.4c-3.4-1-5.7-4.2-5.3-7.6c0.7-6.6,5.2-34.9,7.2-46.8
					c0.1-0.4,0.5-0.7,0.9-0.6c0.4,0.1,0.7,0.5,0.6,0.9c-1.9,11.8-6.5,40.1-7.2,46.7c-0.3,2.7,1.5,5.1,4.2,5.9
					c3.2,0.9,7.2-0.3,11.4-3.6c5.5-4.3,11.1-11.9,16.5-22.4c0.2-0.4,0.7-0.5,1.1-0.3c0.4,0.2,0.5,0.7,0.3,1.1
					c-5.5,10.7-11.3,18.5-17,22.9C1110.3,434.2,1106.8,435.7,1103.7,435.7z"/>
			</g>
			<g>
				<path class="st3" d="M1071.8,438.8c-3.7,0-6.4-1.4-8.1-2.8c-4-3.3-6.2-9.4-5.9-16.5c0.3-7.5,3.3-15.3,8.3-21.9
					c6.8-9,13.9-13.7,21.2-14c8.8-0.4,14.6,5.8,14.8,6.1c0.3,0.3,0.3,0.8-0.1,1.1c-0.3,0.3-0.8,0.3-1.1-0.1l0,0
					c-0.1-0.1-5.5-5.9-13.6-5.6c-6.8,0.3-13.5,4.8-20,13.4c-4.8,6.4-7.6,13.9-8,21c-0.3,6.7,1.6,12.2,5.3,15.3
					c3.2,2.6,7.5,3.2,12.4,1.5c5.9-2,12.4-6.8,19.3-14.4c0.3-0.3,0.8-0.3,1.1-0.1c0.3,0.3,0.3,0.8,0.1,1.1
					c-7.1,7.8-13.8,12.8-19.9,14.8C1075.4,438.5,1073.5,438.8,1071.8,438.8z"/>
			</g>
			<g>
				<path class="st3" d="M1095.4,288.5c-0.8,0-1.5-0.2-2.1-0.5c-2.3-1.3-2.8-4.9-1.6-10.9c1.8-9.5,7.4-37.4,9.7-49
					c0.1-0.4,0.5-0.7,0.9-0.6c0.4,0.1,0.7,0.5,0.6,0.9c-2.3,11.6-7.9,39.5-9.7,49c-1,5.2-0.7,8.4,0.9,9.3c1.8,1,5.6-0.5,11.3-4.6
					c5.3-3.8,11.5-9.2,17.5-14.4c1.8-1.6,3.5-3.1,5.2-4.5c0.3-0.3,0.8-0.2,1.1,0.1c0.3,0.3,0.2,0.8-0.1,1.1
					c-1.7,1.4-3.4,2.9-5.2,4.5c-6,5.2-12.3,10.7-17.6,14.5C1101.4,286.8,1097.9,288.5,1095.4,288.5z"/>
			</g>
			<g>
				<path class="st3" d="M1061.6,293.7c-1.3,0-2.5-0.2-3.7-0.6c-4-1.3-6.6-5-7.7-10.6c-1.2-6.5-0.2-15.4,2.7-24.3
					c3-9,7.4-16.4,12.2-20.4c3.8-3.2,8.1-5.3,12.7-6.2c3.7-0.7,7.6-0.7,11.5,0.1c6.7,1.3,11.4,4.3,11.6,4.4c0.4,0.2,0.5,0.7,0.2,1.1
					c-0.2,0.4-0.7,0.5-1.1,0.2c-0.1,0-4.6-3-11.1-4.2c-3.8-0.7-7.4-0.8-10.9-0.1c-4.3,0.9-8.4,2.8-12,5.8
					c-4.5,3.8-8.8,10.9-11.7,19.7c-2.9,8.7-3.8,17.3-2.6,23.6c1,5.1,3.2,8.2,6.6,9.4c4.9,1.6,14.8-0.1,34-17.7
					c0.3-0.3,0.8-0.3,1.1,0c0.3,0.3,0.3,0.8,0,1.1c-8.2,7.5-15.5,12.9-21.6,15.8C1068,292.7,1064.6,293.7,1061.6,293.7z"/>
			</g>
			<g>
				<path class="st3" d="M1125,286c0,0-0.1,0-0.1,0c-0.4-0.1-0.7-0.5-0.6-0.9l10.7-61.9c0.1-0.4,0.5-0.7,0.9-0.6
					c0.4,0.1,0.7,0.5,0.6,0.9l-10.7,61.9C1125.7,285.7,1125.4,286,1125,286z"/>
			</g>
			<g>
				<path class="st3" d="M1179.1,277.2c-1.2,0-2.2-0.3-3-0.8c-2.8-1.6-3.9-5.6-3.5-12.5c0.3-5.8,1.7-13,3-19.9
					c2.1-11,4.3-22.5,1.4-25.5c-0.6-0.6-1.3-0.8-2.3-0.7c-7.5,0.8-17.1,5.5-27.8,13.7c-8.1,6.2-13.9,12.3-14,12.3
					c-0.3,0.3-0.8,0.3-1.1,0c-0.3-0.3-0.3-0.8,0-1.1c0.1-0.1,6-6.2,14.2-12.5c11-8.5,20.6-13.2,28.6-14c1.5-0.1,2.7,0.3,3.6,1.2
					c3.3,3.7,1.3,14.4-1.1,26.9c-2.5,13-5.3,27.8-0.2,30.7c3.8,2.2,12.1-2.2,24.7-13.1c0.3-0.3,0.8-0.2,1.1,0.1
					c0.3,0.3,0.2,0.8-0.1,1.1C1191.6,272.6,1184,277.2,1179.1,277.2z"/>
			</g>
			<g>
				<path class="st3" d="M983.3,457C983.3,457,983.2,457,983.3,457c-0.5,0-0.8-0.4-0.8-0.9l5.5-59c0-0.4,0.4-0.7,0.9-0.7
					c0.4,0,0.7,0.4,0.7,0.9l-5.5,59C984,456.7,983.7,457,983.3,457z"/>
			</g>
			<g>
				<path class="st3" d="M1029.7,446c-0.8,0-1.4-0.2-2-0.5c-3.9-2.1-2.5-10.3-0.7-20.7c1-6.1,2.1-12.3,2.2-17.9
					c0.1-6.2-1.1-10.4-3.6-12.8c-1.5-1.4-3.2-1.9-5.3-1.7c-12.8,1.6-32.8,32.2-33,32.5c-0.2,0.4-0.7,0.5-1.1,0.2s-0.5-0.7-0.2-1.1
					c0.1-0.1,5.1-7.9,11.8-15.9c9-10.8,16.5-16.6,22.3-17.3c2.6-0.3,4.8,0.4,6.6,2.1c6.4,6,4,19.9,1.9,32.1
					c-0.8,4.8-1.6,9.3-1.7,12.8c-0.1,3.6,0.4,5.6,1.7,6.3c1.6,0.8,4.5-0.2,8.9-3c5-3.3,11.9-8.9,20.8-17.3c0.3-0.3,0.8-0.3,1.1,0
					s0.3,0.8,0,1.1C1043.8,439.4,1034.7,446,1029.7,446z"/>
			</g>
			<g>
				<path class="st3" d="M619.5,488.5c0,0-0.1,0-0.1,0c-0.4-0.1-0.7-0.5-0.7-0.9l8.4-54.5c0.1-0.4,0.5-0.7,0.9-0.7
					c0.4,0.1,0.7,0.5,0.7,0.9l-8.4,54.5C620.2,488.2,619.8,488.5,619.5,488.5z"/>
			</g>
			<g>
				<path class="st3" d="M651.2,522.7c-2.2,0-4.5-0.1-6.8-0.4c-8.9-1.1-18.2-4.2-26.2-8.9c-7.3-4.2-15-7-22.9-8.3
					c-5.7-0.9-11.3-1-16.7-0.3c-0.4,0.1-0.8-0.2-0.9-0.7c-0.1-0.4,0.2-0.8,0.7-0.9c5.6-0.7,11.4-0.7,17.2,0.3
					c8.1,1.3,15.9,4.1,23.4,8.5c7.8,4.5,16.9,7.6,25.6,8.7c9.8,1.2,18.7-0.2,25.9-4c5.7-3,10.3-7.6,13.7-13.5c3.8-6.6,6-15,6.7-24.9
					c0.9-13.3-2-22.2-8.7-26.5c-4-2.6-11.7-4.9-25.5-1c-8.3,2.4-15,5.9-15.1,6c-0.4,0.2-0.8,0.1-1-0.3c-0.2-0.3-0.2-0.8,0.2-1
					c0.1-0.1,10.1-8.3,19.3-18.7c8.5-9.5,18.2-22.8,16-32.3c-1.1-5.1-5.7-8.7-13.5-10.7c-14-3.5-27.2-1.2-39.4,7
					c-9.8,6.6-16.7,15.6-20.8,21.9c-0.2,0.4-0.7,0.5-1.1,0.2c-0.4-0.2-0.5-0.7-0.2-1.1c7.5-11.7,28.4-38,61.8-29.6
					c8.5,2.1,13.4,6.1,14.7,11.8c1,4.5-0.3,10.1-3.9,16.6c-2.8,5.1-7,10.9-12.6,17.1c-5.6,6.3-11.4,11.7-15.2,15.1
					c2.7-1.2,6.3-2.5,10.2-3.7c5-1.4,9.6-2.2,13.7-2.2c0.1,0,0.1,0,0.2,0c5.1,0,9.4,1.1,12.8,3.3c7.2,4.6,10.4,14,9.4,27.9
					c-0.7,10.2-3,18.8-6.9,25.6c-3.5,6.2-8.3,11-14.3,14.1C665.5,521.1,658.7,522.7,651.2,522.7z"/>
			</g>
			<g>
				<path class="st3" d="M728,492.9c-1.3,0-2.5-0.1-3.6-0.3c-7.6-1.2-11.9-6.3-12.4-14.8c-0.6-9.3,1.1-17.5,5.1-24.5
					c3.4-5.9,8.3-10.7,14.2-14c8.7-4.8,18.6-5.6,23.7-1.9c2.5,1.8,3.5,4.6,2.9,7.9c-2.5,12.9-15.6,19.3-23.3,21.9
					c-0.4,0.1-0.9-0.1-1-0.5c-0.1-0.4,0.1-0.9,0.5-1c7.3-2.5,19.9-8.5,22.2-20.7c0.5-2.7-0.3-4.9-2.3-6.3c-2.1-1.5-5.4-2.2-9.3-1.9
					c-4.1,0.3-8.6,1.7-12.7,3.9c-5.7,3.1-10.4,7.8-13.6,13.4c-3.8,6.7-5.5,14.7-4.9,23.7c0.5,7.8,4.2,12.3,11.1,13.4
					c8.9,1.4,22.8-3.2,37.2-12.2c13.6-8.5,24.4-19.1,27.5-27c0.2-0.4,0.6-0.6,1-0.4c0.4,0.2,0.6,0.6,0.4,1
					c-1.6,4.2-5.3,9.1-10.5,14.1c-4.9,4.8-11.1,9.5-17.7,13.7C749.7,488.3,737.1,492.9,728,492.9z"/>
			</g>
			<g>
				<path class="st3" d="M786,485.7C785.9,485.7,785.9,485.7,786,485.7c-0.5-0.1-0.8-0.5-0.8-0.9l6.9-54.4c0.1-0.4,0.4-0.7,0.9-0.7
					c0.4,0.1,0.7,0.4,0.7,0.9l-6.9,54.4C786.7,485.4,786.4,485.7,786,485.7z"/>
			</g>
			<g>
				<path class="st3" d="M828.9,479.8c-1.2,0-2.3-0.3-3.3-1c-2.1-1.4-3-4.6-2.7-10.1c0.3-4.6,1.3-10.2,2.3-16.1
					c2-10.9,4.2-23.3,0.6-27.3c-1-1.1-2.3-1.5-4.1-1.4c-4.9,0.3-12.5,2.7-21.4,12.1c-5.4,5.6-8.7,11.2-8.7,11.3
					c-0.2,0.4-0.7,0.5-1.1,0.3c-0.4-0.2-0.5-0.7-0.3-1.1c0.1-0.2,3.4-5.8,8.9-11.5c3.2-3.4,6.6-6.2,9.9-8.2
					c4.2-2.6,8.4-4.1,12.6-4.4c2.3-0.2,4.1,0.5,5.4,1.9c4.1,4.6,1.9,16.8-0.2,28.7c-2,10.9-4,22.2-0.3,24.7
					c3.5,2.3,9.8-1.2,18.2-10.1c6.5-6.9,12-14.7,12.1-14.8c0.2-0.4,0.7-0.4,1.1-0.2c0.4,0.2,0.4,0.7,0.2,1.1c-0.1,0.1-5.6,8-12.2,15
					C838.8,476.1,833.1,479.8,828.9,479.8z"/>
			</g>
			<g>
				<path class="st3" d="M872.8,471.7c-0.9,0-1.8-0.1-2.7-0.3c-5.7-1.1-10.2-5.9-12.5-13.5c-1.8-6-2.3-13.4-1.2-20.4
					c1.1-7.3,3.7-13.3,7.3-16.9c5.8-5.8,11.4-8.8,16.7-8.8c0,0,0,0,0.1,0c4.6,0,8.1,2.3,10.1,4.2c0.3,0.3,0.3,0.8,0,1.1
					c-0.3,0.3-0.8,0.3-1.1,0c-1.8-1.7-4.9-3.8-9.1-3.8c0,0,0,0,0,0c-4.9,0-10.1,2.8-15.6,8.3c-3.4,3.4-5.8,9.1-6.9,16
					c-1.1,6.8-0.6,13.9,1.1,19.7c1,3.4,2.5,6.2,4.3,8.3c2,2.2,4.3,3.6,7,4.2c6.5,1.2,18.1-2.1,36.8-25.3c0.3-0.3,0.8-0.4,1.1-0.1
					c0.3,0.3,0.4,0.8,0.1,1.1c-8,9.9-15.5,17.1-22.1,21.4C881.3,470.1,876.8,471.7,872.8,471.7z"/>
			</g>
		</g>
	</g>
	<g>
		<path class="st0" d="M647.4,551.9c0.1-0.6,0.4-1.3,0.9-2c0.5-0.8,1-1.5,1.4-2l1.4-0.1c-0.3,0.5-0.8,1.2-1.2,1.9
			c0.9,0,1.5,0.7,1.3,1.7c-0.2,1.1-1.2,2-2.2,2.2S647.2,553,647.4,551.9z M651.8,551.3c0.1-0.6,0.4-1.3,0.9-2c0.5-0.8,1-1.5,1.4-2
			l1.4-0.2c-0.3,0.5-0.8,1.2-1.2,1.9c0.9,0,1.4,0.7,1.3,1.7c-0.2,1.1-1.1,2-2.2,2.2C652.4,553.1,651.7,552.4,651.8,551.3z"/>
		<path class="st0" d="M659.9,549.4c-0.8-2.2,2.8-4.4,3.6-2.1l1.9,5.2c0.6,1.2,1.5,1.6,2.7-0.2c3.7-6,10.4-16.6,16.9-17.8l3.8-0.4
			c2.2,0,1.4,3.5-0.9,3.7c-1.2,0.1-2.5,0.3-3.7,0.4c-4.9,0.9-12.8,14.4-15.9,19.4c-0.5,0.8-1,1.9-1.1,2.7l-1.7,10.6
			c-0.4,2.6-4.2,3.1-3.7,0.5l1.7-10.5c0.1-0.9,0.1-1.8-0.2-2.5C662.4,555.9,660.1,550.1,659.9,549.4z"/>
		<path class="st0" d="M675.9,564.8c0.9-6.3,2-12.6,3-18.9c0.4-2.8,4.3-3.2,3.8-0.6c-1,6.3-2,12.5-3,18.8c-0.8,4.1,4.5,3.2,5.1-0.3
			c1-6.3,2.1-12.6,3.1-19c0.4-2.7,4.2-3.2,3.8-0.6c-1,6.3-2,12.5-3,18.7C687.2,571.9,674.6,573.8,675.9,564.8z"/>
		<path class="st0" d="M694.5,554.3l1.7-10.7c0.4-2.7,4.2-3.1,3.8-0.5l-1.2,7.2c-0.1,0.7,0.5,1.1,1.2,0l5.8-8.9
			c1.8-2.5,4.3-0.9,3.1,1l-4.6,7.2c-0.9,1.5-1.3,2.3-0.9,3.8l3.1,11.1c0.5,2.1-2.8,4.2-3.7,2.1l-2.6-9c-0.5-1.6-2.6,0.2-3,3.3
			l-1,5.8c-0.4,2.6-4.2,3.2-3.7,0.5L694.5,554.3z"/>
		<path class="st0" d="M731.5,547.4l1.4-8.8c0.4-2.7,4.3-3.2,3.8-0.6l-1.4,8.5l-1.6,10c-0.2,1.5-0.7,3.3-1.8,4.7
			c-3.3,4.3-12.1,5.2-10.9-2l0.4-2.8c0.6-2.8,4.4-3,3.8-0.5l-0.4,2.6c-0.5,2.6,2.8,2.3,4.1,0.9c0.6-0.7,0.8-1.6,1-2.6L731.5,547.4z"
			/>
		<path class="st0" d="M751.5,550.3c0.4,5.3,0.4,16.2,6.8,15.7c0.9-0.1,1.9-0.1,3.3-0.6c0.9-0.3,1.7,0.1,1.8,1
			c0.2,1-0.7,2.1-1.8,2.4c-1.5,0.5-2.6,0.6-3.7,0.7c-7.1,1.2-8.8-5.4-9.6-11c-0.2-1.1-0.5-2.1-1.7-1.9l-3.7,0.5
			c-0.8,0.1-1.7,0.4-2.3,1.7l-1.1,2.5c-0.9,2.1-4.1,2-3.2-0.6l8.9-23.5c1.5-3.6,5-3.7,5.1-0.7L751.5,550.3z M743.7,551.6
			c-0.3,0.7-0.1,1.4,0.8,1.3l2.2-0.3c0.9-0.1,1.2-0.9,1.2-1.6l-0.4-6c0-1-1.1-1.1-1.7,0.2C745.1,547.4,744.4,549.5,743.7,551.6z"/>
		<path class="st0" d="M766.4,557.7l-3.4-11.1c-0.2-0.9-0.9-0.3-1,0.2c-0.6,4-1.1,7.2-1.8,11.2c-0.4,2.6-4.2,3.2-3.7,0.5l2.1-12.9
			l1.7-10.7c0.4-2.3,3.3-3.2,3.8-1.2c0.9,3.5,2.1,8.6,2.9,12.1c0.3,0.7,1,0.1,1-0.2c0.6-3.5,1.4-8.4,1.9-12c0.4-2.7,4.2-3.1,3.8-0.5
			l-1.7,10.5l-2.1,13C769.5,559.2,766.9,559.6,766.4,557.7z"/>
		<path class="st0" d="M778.8,550.3c-0.1,0.9-0.2,1.7,0.1,2.2c0.2,0.6,0.9,0.9,2.1,0.6c1.3-0.3,2.7-0.9,3-3l0.3-1.7
			c0.1-0.7-0.6-1-0.9-0.9l-0.5,0.1c-2.2,0.3-1.6-3.6,0.6-3.9c1-0.1,2.3-0.3,3.3-0.5c1.7-0.2,1.9,0.7,1.7,1.9
			c-0.2,1.4-0.5,3.2-0.7,4.5c-0.2,1.3-0.7,2.6-1.6,3.8c-1.4,2-3.8,3.2-6,3.7c-2.1,0.4-4.2-0.1-5-1.6c-0.7-1.1-0.6-3.1-0.3-4.6l1.1-7
			l1-6.3c0.2-1.5,0.8-3.5,1.8-4.9c1.3-1.8,3.5-2.8,5.6-3.1c2.3-0.3,4.5,0.4,5.3,2.1c0.5,1,0.6,2.3,0.4,3.5l-0.3,2
			c-0.3,2.3-4.2,3.2-3.8,0.6l0.3-2c0.2-1.7-0.9-2.4-2.2-2.2c-1.3,0.1-2.8,1-3,2.6l-1.2,7.3L778.8,550.3z"/>
		<path class="st0" d="M806.6,542.9l0.6,8.6c0.1,2.2-3.7,3.5-3.7,1l-0.1-1.8c0-0.8-0.4-1.5-1.5-1.3l-3.9,0.5
			c-0.8,0.1-1.7,0.4-2.2,1.7l-1.1,2.5c-0.9,2.1-4.1,2-3.2-0.6l8.9-23.5c1.5-3.6,5-3.7,5.1-0.7L806.6,542.9z M798.8,544.2
			c-0.3,0.7-0.1,1.4,0.8,1.3l2.2-0.3c0.9-0.1,1.2-0.9,1.2-1.5l-0.3-6c0-1-1.1-1.1-1.7,0.2C800.2,540,799.5,542.1,798.8,544.2z"/>
		<path class="st0" d="M821.3,550.2l-3.4-11.1c-0.2-0.9-0.9-0.3-1,0.2c-0.6,4-1.1,7.2-1.8,11.2c-0.4,2.6-4.2,3.2-3.7,0.5l2.1-12.9
			l1.7-10.7c0.4-2.3,3.3-3.2,3.8-1.2c0.9,3.5,2.1,8.6,2.9,12.1c0.3,0.7,1,0.1,1-0.2c0.6-3.5,1.4-8.4,1.9-12c0.4-2.7,4.2-3.1,3.8-0.5
			l-1.7,10.5l-2.1,13C824.5,551.7,821.9,552.1,821.3,550.2z"/>
		<path class="st0" d="M843.8,523.8c0.3-2.1-0.4-2.2-1.9-2.3c-2.9,0-5.5-0.8-8-1.8c-2.2-1,0.1-5.1,2.5-4c1.2,0.7,5.9,1.7,7.9,1.7
			c4.2-0.1,7.1-1.8,11.1-4c7.9-4.3,14.1-7.7,21.3-5.3c1.8,1-0.5,4.7-2.4,3.8c-4.7-2-12.9,2.1-18.3,5c-2.1,1.2-3.9,2.1-5.8,2.9
			c-1.6,0.8-2.5,2.6-2.6,3.6c-1.3,7.8-2.6,15.6-3.9,23.4c-0.4,2.6-4.1,3.2-3.7,0.5L843.8,523.8z"/>
		<path class="st0" d="M864,535.1l0.6,8.6c0.1,2.2-3.7,3.5-3.7,1l0-1.8c0-0.8-0.4-1.5-1.5-1.3l-3.9,0.5c-0.8,0.1-1.7,0.4-2.2,1.7
			l-1.1,2.5c-0.9,2.1-4.1,2-3.2-0.6l8.9-23.5c1.5-3.6,5-3.7,5.1-0.7L864,535.1z M856.2,536.4c-0.3,0.7-0.1,1.4,0.8,1.3l2.2-0.3
			c0.9-0.1,1.2-0.9,1.2-1.5l-0.3-6c0-1-1.1-1.1-1.7,0.2C857.7,532.2,856.9,534.3,856.2,536.4z"/>
		<path class="st0" d="M870.3,530.4l1.7-10.6c0.4-2.7,4.2-3.1,3.8-0.5l-1.2,7.2c-0.2,0.7,0.5,1.1,1.2,0l5.8-8.9
			c1.8-2.5,4.3-0.9,3.1,1l-4.6,7.2c-1,1.5-1.3,2.3-0.9,3.8c1,3.6,2.7,14,5.3,16c2.5,1.7,5.2,0.8,8.5,0.4c2.4-0.3,1.9,3-0.4,3.5
			c-3.9,0.7-7.6,1.8-10.9-0.5c-3.2-2.3-4.5-11-5.7-15.1c-0.5-1.6-2.6,0.2-3,3.2l-1,5.8c-0.4,2.6-4.2,3.2-3.7,0.5L870.3,530.4z"/>
		<path class="st0" d="M887.2,536.1c0.9-6.3,2-12.6,3-18.9c0.4-2.8,4.3-3.2,3.8-0.6c-1,6.3-2,12.5-3,18.8c-0.8,4.1,4.5,3.2,5.1-0.3
			c1-6.3,2.1-12.6,3.1-19c0.4-2.7,4.2-3.2,3.8-0.6c-1,6.3-2,12.5-3,18.7C898.5,543.3,885.9,545.1,887.2,536.1z"/>
		<path class="st0" d="M910.5,525l1.1-6.8c0.2-1.4-0.5-1.5-1.6-1.4l-1.7,0.2c-2.6,0.4-2-3.8,0.7-4.2l11-1.5c2.7-0.4,2,3.8-0.6,4.2
			l-2.2,0.3c-1.1,0.1-1.6,0.5-1.8,1.8l-1.1,6.6l-2.1,13c-0.4,2.6-4.1,3.2-3.7,0.5L910.5,525z"/>
		<path class="st0" d="M941.9,508.2c3-0.1,4.4,2,4.5,4.6c0.1,1.4-0.1,2.6-0.8,4c-0.5,1.1-1.1,2.1-1.2,3c-0.1,0.8,0.4,1.1,1,2
			c0.8,1.4,0.8,3.6,0.5,5.4c-0.7,3.4-3.3,7.1-6.5,8.1c-1,0.4-4.2,0.7-5.9,0.9c-2.2,0.3-2.1-1.1-1.9-2.4l1.9-11.9
			c0.6-3.5,1.1-7.2,1.7-10.7c0.3-1.8,1.4-2.3,2.7-2.5C939.7,508.5,940,508.4,941.9,508.2z M935.9,529.8c-0.2,0.9-0.1,1.9,1.3,1.7
			l1.3-0.2c4.1-0.6,5-8.2,1.4-7.7l-1.5,0.2c-1.3,0.2-1.7,1-1.9,2C936.4,526.9,936.1,528.6,935.9,529.8z M937.8,518.5
			c-0.1,0.6,0,1.3,0.9,1.2l1-0.1c2.9-0.4,4.4-7.3,1-6.8l-0.6,0.1c-1,0.1-1.5,0.6-1.7,1.7C938.2,515.8,938,517.1,937.8,518.5z"/>
		<path class="st0" d="M962.9,505.4c2.2-0.3,1.6,3.4-0.6,3.8c-1.4,0.2-2.7,0.4-4.1,0.6c-0.9,0.1-1.9,0.8-2.1,2
			c-0.2,1.5-0.5,2.9-0.7,4.4c-0.2,1,0.1,1.8,1.1,1.6l3.1-0.4c2.3-0.3,1.6,3.4-0.6,3.8c-1.1,0.1-2.1,0.3-3.2,0.4
			c-0.7,0.1-1.4,0.7-1.6,1.8c-0.2,1.4-0.5,2.9-0.7,4.4c-0.2,1-0.1,2.1,1.4,1.9l4.2-0.6c2.2-0.3,1.6,3.4-0.6,3.8
			c-2.4,0.3-4.9,0.7-7.3,1c-2.2,0.3-2.1-1.1-1.9-2.4l1.9-11.9c0.6-3.5,1.1-7.2,1.8-10.7c0.3-1.8,1.4-2.3,2.7-2.5L962.9,505.4z"/>
		<path class="st0" d="M965.9,518.5l1.8-11.4c0.2-1.5,1.7-2.7,2.7-2.8l5.7-0.8c5.1-0.7,5.7,8.1,2.2,13.3c-0.7,1.1-1,1.6-0.6,2.5
			c0.8,2.4-0.8,8.3-0.9,11.6c-0.2,2.9,1.9,4.6,4.6,4.8c2.3,0.1,4.7-0.8,6.9-2.5c0.5-0.4,1.1-0.6,1.6-0.5c0.6,0,1,0.4,1.1,0.9
			c0.2,0.6,0,1.4-0.5,2c-0.2,0.3-0.6,0.6-0.9,0.8c-2.7,1.9-5.8,3.1-8.6,3.1c-4.5,0-8-2.8-7.8-7.6c0.1-2.6,1.4-8.3,1.2-10
			c0-0.5-0.2-0.9-0.6-1c-0.3-0.2-0.7-0.3-1-0.2c-0.5,0-1,0.1-1.7,0.2c-0.7,0.1-2,1.2-2.2,2.3l-1,6.4c-0.4,2.6-4.1,3.2-3.7,0.5
			L965.9,518.5z M971.7,517l1.5-0.2c3.8-0.5,5.5-9.8,1-9.2l-1.2,0.2c-0.8,0.1-1.9,0.9-2.2,2.1l-0.9,5.6
			C969.8,516.4,970.5,517.2,971.7,517z"/>
		<path class="st0" d="M995.8,500.9c2.2-0.3,1.6,3.4-0.6,3.8c-1.4,0.2-2.7,0.4-4.1,0.6c-0.9,0.1-1.9,0.8-2.1,2
			c-0.2,1.5-0.5,2.9-0.7,4.4c-0.2,1,0.1,1.8,1.1,1.6l3.1-0.4c2.3-0.3,1.6,3.4-0.6,3.8c-1.1,0.1-2.1,0.3-3.2,0.4
			c-0.7,0.1-1.4,0.7-1.6,1.8c-0.2,1.4-0.5,2.9-0.7,4.4c-0.2,1-0.1,2.1,1.4,1.9l4.2-0.6c2.2-0.3,1.6,3.4-0.7,3.8
			c-2.4,0.3-4.9,0.7-7.3,1c-2.2,0.3-2.1-1.1-1.9-2.4l1.9-11.9c0.6-3.5,1.1-7.2,1.8-10.7c0.3-1.8,1.4-2.3,2.7-2.5L995.8,500.9z"/>
		<path class="st0" d="M1006.9,525l-3.3-11.1c-0.2-0.9-1-0.3-1,0.2c-0.7,4-1.1,7.2-1.8,11.2c-0.4,2.6-4.1,3.2-3.7,0.5l2.1-12.9
			l1.7-10.6c0.4-2.3,3.2-3.2,3.8-1.2c0.8,3.5,2.1,8.6,2.9,12.1c0.2,0.6,0.9,0.3,1-0.5c0.5-3.4,1.1-6.8,1.6-10.2
			c1-6.3,7.1-12.8,13.1-14c1.6-0.3,3.1-0.5,4.6-0.6c1.2-0.1,1.8,0.8,1.4,2c-0.3,0.9-1.2,1.7-2,1.8c-1.4,0.2-2.9,0.2-4.3,0.5
			c-4,0.9-7.8,5.1-9,9.6c-0.5,3.1-1,6.2-1.5,9.3l-2.1,13C1010.1,526.5,1007.5,526.9,1006.9,525z"/>
		<path class="st0" d="M1021.9,520.4c1.3-0.3,2.7-1.3,3-3l0.3-1.9c0.5-2.7,4.3-2.8,3.9-0.5l-0.3,2c-0.2,1.3-0.7,2.6-1.6,3.8
			c-1.4,2-3.8,3.2-6,3.6c-2.2,0.4-4.2,0-5-1.6c-0.7-1.1-0.6-3.1-0.3-4.6c0.4-2.3,0.7-4.6,1.1-6.8c0.3-2.2,0.7-4.3,1-6.4
			c0.2-1.6,0.7-3.5,1.9-4.9c1.3-1.8,3.5-2.8,5.5-3c2.3-0.3,4.5,0.4,5.4,2.1c0.5,1,0.6,2.2,0.4,3.5l-0.3,2c-0.3,2.3-4.3,3.2-3.9,0.5
			l0.3-1.9c0.2-1.7-0.9-2.4-2.2-2.3c-1.3,0.1-2.8,1.1-3.1,2.6c-0.4,2.4-0.8,4.8-1.2,7.2c-0.4,2.3-0.7,4.6-1,6.8
			C1019.4,519.4,1019.5,520.9,1021.9,520.4z"/>
		<path class="st0" d="M1047.5,510.2l0.6,8.6c0.1,2.2-3.7,3.5-3.7,1l-0.1-1.8c0-0.8-0.4-1.5-1.5-1.3l-3.9,0.5
			c-0.8,0.1-1.7,0.4-2.2,1.7l-1.1,2.5c-0.9,2.1-4.1,2-3.2-0.6l8.9-23.5c1.5-3.6,5-3.7,5.1-0.7L1047.5,510.2z M1039.7,511.5
			c-0.3,0.7-0.2,1.4,0.8,1.3l2.2-0.3c0.9-0.1,1.2-0.9,1.2-1.5l-0.3-6c0-1-1.1-1.1-1.7,0.2C1041.1,507.3,1040.4,509.4,1039.7,511.5z"
			/>
		<path class="st0" d="M1062.3,517.5l-3.4-11.1c-0.2-0.9-0.9-0.3-1,0.2c-0.6,4-1.1,7.2-1.8,11.2c-0.4,2.6-4.2,3.2-3.7,0.5l2.1-12.9
			l1.7-10.7c0.4-2.3,3.3-3.2,3.8-1.2c0.9,3.5,2.1,8.6,2.9,12.1c0.3,0.7,1,0.1,1-0.2c0.6-3.5,1.3-8.4,1.9-12c0.4-2.7,4.2-3.1,3.8-0.5
			l-1.7,10.5l-2.1,13C1065.4,519,1062.8,519.4,1062.3,517.5z"/>
		<path class="st0" d="M1085.2,505.1l0.6,8.6c0.1,2.2-3.7,3.5-3.7,1l-0.1-1.8c0-0.8-0.4-1.5-1.5-1.3l-3.9,0.5
			c-0.8,0.1-1.7,0.4-2.2,1.7l-1.1,2.5c-0.9,2.1-4.1,2-3.2-0.6l8.9-23.5c1.5-3.6,5-3.7,5.1-0.7L1085.2,505.1z M1077.4,506.4
			c-0.3,0.7-0.2,1.4,0.8,1.3l2.2-0.3c0.9-0.1,1.2-0.9,1.2-1.5l-0.3-6c0-1-1.1-1.1-1.7,0.2C1078.8,502.2,1078.1,504.3,1077.4,506.4z"
			/>
		<path class="st0" d="M1098.1,488.9c-0.1,0.5-0.4,1.3-0.9,2c-0.4,0.7-1,1.5-1.4,2l-1.4,0.2c0.4-0.5,0.8-1.2,1.2-1.9
			c-0.9,0-1.4-0.7-1.3-1.7c0.2-1.1,1.2-2,2.2-2.2C1097.5,487.1,1098.2,487.8,1098.1,488.9z M1102.5,488.3c-0.1,0.5-0.4,1.3-0.9,2
			c-0.5,0.8-1,1.5-1.4,2l-1.4,0.1c0.3-0.5,0.8-1.2,1.2-1.9c-0.9,0-1.5-0.7-1.3-1.7c0.2-1.1,1.2-2,2.2-2.2
			C1102,486.5,1102.7,487.2,1102.5,488.3z"/>
	</g>
</g>
</svg>
